<svg width="1186" height="1024" viewBox="0 0 1186 1024" style="color: white" xmlns="http://www.w3.org/2000/svg">
<path d="M401.321 582.521C404.605 576.425 403.973 569.989 404.322 562.354C410.007 568.047 413.474 573.754 416.84 579.481C417.336 580.325 416.601 582.053 416.154 583.267C408.114 605.109 409.601 626.707 417.704 648.159C420.8 656.355 419.545 658.966 410.719 662.507C405.855 655.627 404.055 647.173 399.837 639.259C394.008 646.182 388.698 652.554 383.414 658.904C378.557 664.741 372.686 666.592 365.622 667.084C355.5 667.789 345.396 668.823 335.305 669.912C331.282 670.346 328.5 669.701 326.398 665.598C321.185 655.421 312.933 648.428 302.228 644.256C293.696 640.931 285.269 637.335 276.788 633.879C265.685 629.355 257.516 633.22 253.966 644.721C253.21 647.171 252.684 649.691 252.038 652.235C249.519 651.51 249.487 649.588 248.792 648.187C244.652 639.844 236.27 634.455 227.159 636.247C212.727 639.086 198.573 643.326 183.494 644.37C185.363 647.632 189.206 646.662 190.747 649.3C182.079 655.728 176.023 656.036 167.284 650.74C153.731 642.527 139.541 635.529 125.162 628.905C124.278 628.498 123.32 628.251 121.638 627.667C125.334 640.881 131.119 652.85 133.581 665.856C124.051 666.959 120.829 665.182 117.651 657.493C114.412 649.658 111.173 641.824 107.506 632.954C105.244 638.509 103.501 643.227 101.416 647.789C99.3597 652.286 97.4174 656.905 93.9242 660.73C90.3303 659.129 88.368 656.184 86.1013 653.595C84.3966 651.647 85.6959 649.818 86.513 648.042C91.255 637.735 95.4948 627.256 97.5534 616.026C98.7591 609.449 99.4446 602.856 97.943 596.222C96.9074 591.648 95.4404 587.281 91.5006 583.797C93.905 581.383 96.7334 580.413 99.4811 579.463C102.048 578.574 102.791 577.189 102.024 574.574C100.948 570.906 100.046 567.178 99.2621 563.436C98.584 560.197 97.1182 559.705 94.3567 561.365C89.3614 564.368 84.1281 566.994 79.2558 570.177C74.6084 573.214 70.8225 573.002 66.1812 569.702C56.1314 562.555 46.1864 555.288 36.4887 547.674C35.2082 546.669 33.8418 545.773 31.6794 544.23C30.3108 552.783 29.3408 560.602 31.2354 568.39C32.1731 572.244 37.0662 572.388 39.8649 575.252C38.9329 575.72 38.4149 576.173 37.8544 576.234C28.4382 577.259 23.4786 583.627 19.3979 591.266C16.1386 597.368 12.5557 603.296 8.45938 609.164C6.43493 602.104 2.02078 595.494 6.66314 587.987C8.05902 585.73 8.74752 582.992 10.3195 580.894C16.3426 572.855 17.985 563.876 17.0342 554.092C16.5009 548.604 17.1302 543.059 18.2379 537.703C19.0356 533.846 17.5923 531.607 15.1533 529.007C8.36828 521.774 2.85244 513.71 0.365016 503.878C-0.546361 500.276 0.193446 497.698 3.21264 495.17C12.2835 487.574 21.3556 479.986 30.8393 472.912C33.0865 471.236 33.9852 469.688 33.2778 466.665C31.9553 461.014 30.9899 455.259 30.958 449.382C30.9419 446.415 31.7235 444.725 34.9464 444.29C40.7109 443.511 46.412 442.247 52.183 441.54C56.3031 441.035 59.57 439.913 60.7454 435.403C61.6362 431.984 64.1398 430.238 67.5196 429.546C74.154 428.187 80.6362 425.626 87.6219 427.196C89.1973 427.55 90.532 426.662 91.8628 425.999C99.6165 422.138 107.331 418.196 115.121 414.411C117.573 413.219 119.108 411.798 119.202 408.816C119.337 404.497 121.284 401.166 125.574 399.582C125.728 399.525 125.869 399.429 126.015 399.349C143.575 389.673 145.233 389.542 163.916 396.589C165.889 390.836 164.739 384.748 165.886 378.969C166.459 376.079 166.398 373.034 166.809 370.056C167.555 364.652 167.502 359.497 165.174 354.076C159.561 341.009 158.473 327.037 159.076 312.932C159.293 307.864 161.872 304.069 166.036 301.438C168.98 299.579 170.205 297.276 170.375 293.704C171.26 275.098 175.25 257.426 187.021 242.307C205.157 219.011 229 208.915 258.32 211.356C275.641 212.797 290.973 219.019 304.07 230.448C320.78 245.03 328.838 263.86 330.656 285.652C330.85 287.974 331.115 290.303 331.091 292.626C331.057 295.95 332.32 298.223 335.323 299.86C342.329 303.679 343.431 310.569 343.441 317.513C343.462 331.421 341.602 345.078 336.045 357.991C334.884 360.688 334.425 363.403 334.694 366.262C336.208 382.359 336.749 398.494 336.488 414.652C336.44 417.612 337.618 419.162 340.284 420.277C362.23 429.451 382.85 440.889 401.057 456.362C402.912 457.939 405.04 458.711 407.34 459.207C451.766 468.783 478.36 496.23 488.124 540.259C490.443 550.717 490.378 561.415 488.909 572.05C488.441 575.436 488.538 578.588 490.442 581.654C492.548 585.044 493.839 589.015 496.275 592.111C504.444 602.493 499.455 612.748 496.882 623.753C492.726 621.028 494.195 615.756 490.274 613.073C483.114 617.932 475.87 622.895 468.575 627.782C463.109 631.444 462.811 631.287 459.306 625.987C450.325 612.406 449.095 598.5 457.567 584.367C456.346 582.572 454.674 583.048 453.286 582.905C438.639 581.392 427.774 573.862 419.855 561.793C409.75 546.392 405.278 529.064 403.1 511.047C401.737 499.78 401.469 488.467 402.913 477.164C403.27 474.366 402.5 472.884 399.389 471.736C395.805 470.414 392.787 467.56 389.182 465.142C385.884 472.851 382.866 480.201 379.614 487.446C372.979 502.233 364.78 516.158 355.568 529.459C352.943 533.248 352.671 536.178 355.045 540.263C360.408 549.488 364.521 559.357 368.033 569.436C369.064 572.396 370.765 574.079 373.71 575.111C380.937 577.641 388.037 580.531 395.25 583.102C397.113 583.766 399.292 585.316 401.321 582.521ZM263.647 355.598C258.011 347.873 258.258 338.278 254.996 329.47C258.543 332.623 262.025 333.381 266.365 331.541C263.53 327.945 260.889 324.747 258.42 321.42C255.877 317.994 254.271 314.553 255.916 309.888C262.137 292.251 266.419 274.121 267.732 255.431C268.28 247.642 267.99 239.784 267.856 231.961C267.796 228.471 266.248 226.524 262.179 225.866C226.035 220.023 195.159 240.478 186.616 275.94C183.322 289.612 184.985 303.453 184.318 317.214C184.238 318.867 185.195 320.891 182.941 322.191C179.604 320.379 178.24 315.619 173.089 315.497C171.942 324.047 173.999 331.875 176.04 340.109C179.228 337.928 179.177 333.976 182.561 332.377C184.169 335.262 183.418 338.307 183.661 341.185C184.408 350.007 185.739 358.573 194.491 363.444C200.402 366.734 203.769 371.41 205.051 378.252C206.153 384.132 207.539 390.19 211.529 396.137C218.823 388.219 225.706 380.749 233.359 372.442C234.92 383.404 238.185 391.846 250.353 391.856C263.037 391.866 267.33 383.643 268.585 371.805C272.943 376.527 276.553 380.38 280.094 384.294C283.609 388.178 287.055 392.124 290.987 396.558C292.777 391.662 290.44 388.323 289.407 384.844C285.75 372.525 280.073 360.984 275.462 349.03C274.448 346.401 272.646 344.984 269.737 345.178C266.841 345.372 265.851 347.253 265.429 349.809C265.133 351.606 264.577 353.359 263.647 355.598ZM314.853 448.583C313.602 450.094 314.587 451.796 314.436 453.401C313.861 459.506 312.906 465.455 308.294 469.49C305.485 469.33 305.616 466.338 303.288 466.313C302.565 468.019 301.974 469.753 301.127 471.352C298.363 476.572 296.433 482.798 288.584 482.196C287.462 482.11 286.689 482.961 286.399 483.952C283.654 493.318 275.737 498.128 268.874 503.826C261.814 509.688 242.194 511.427 234.809 506.027C227.474 500.662 220.445 494.623 216.611 485.896C215.965 484.426 215.559 482.83 213.262 482.823C208.198 482.807 205.053 479.632 202.599 475.637C200.79 472.693 199.105 469.673 197.305 466.584C195.653 467.074 194.261 467.488 192.801 467.921C188.419 463.186 187.477 457.618 187.829 451.615C187.942 449.681 188.837 447.329 186.985 445.948C179.672 440.493 175.367 432.777 170.903 425.163C169.463 422.706 167.56 423.019 165.308 423.827C162.407 424.868 163.332 426.805 163.932 428.709C164.231 429.66 164.583 430.602 165.001 431.507C172.361 447.443 181.179 462.489 192.307 476.119C193.889 478.057 195.86 479.922 195.861 482.552C195.866 490.918 201.024 497.061 204.657 503.887C206.492 507.335 209.15 509.365 212.904 510.527C223.554 513.824 234.092 517.482 244.731 520.815C249.141 522.197 252.857 524.426 256.129 527.682C259.287 530.826 262.312 534.097 266.777 535.723C281.633 541.13 296.388 546.811 311.219 552.286C312.772 552.86 314.455 554.283 316.624 552.513C314.71 545.044 310.221 538.791 306.006 532.503C303.716 529.087 303.51 526.655 305.908 523.157C321.14 500.941 333.483 477.156 342.52 451.795C348.295 435.589 350.343 439.804 333.8 432.661C330.456 431.218 328.692 431.902 327.223 435.222C324.757 440.795 321.371 445.707 314.853 448.583ZM264.793 564.617C276.223 559.897 285.57 565.924 295.341 570.053C288.623 572.154 281.648 572.461 275.586 575.812C269.564 579.141 263.733 582.814 257.43 586.568C260.927 589.679 264.773 589.806 268.015 591.298C272.367 593.302 275.621 591.919 278.418 588.321C281.788 583.985 285.263 579.725 288.821 575.542C290.816 573.198 293.342 571.495 296.585 571.584C303.879 571.784 311.704 573.188 316.873 577.467C322.005 581.714 327.817 582.109 333.092 584.691C334.874 585.564 337.415 585.359 338.176 587.788C336.634 589.989 333.134 588.106 332.235 591.472C338.335 594.02 345.384 593.991 351.301 597.705C347.391 602.709 341.593 605.232 338.622 611.241C345.846 611.781 352.243 613.022 356.453 606.222C357.446 604.618 359.286 603.739 361.151 603.67C368.424 603.401 374.827 606.438 381.587 609.103C371.947 610.781 365.518 616.458 360.207 623.846C357.929 627.015 358.36 628.57 362.101 629.337C366.538 630.247 370.605 628.082 371.851 622.967C373.9 614.559 379.739 612.056 387.333 611.608C389.162 611.5 390.997 611.512 392.829 611.441C394.261 611.386 395.299 610.862 395.902 609.385C398.675 602.589 397.154 598.866 390.403 596.228C389.317 595.804 388.206 595.447 387.113 595.043C345.894 579.776 304.674 564.509 263.457 549.235C260.171 548.017 256.866 546.783 254.282 544.294C247.29 537.562 239.205 533.036 229.654 530.812C223.517 529.383 217.57 527.078 211.609 524.966C204.526 522.456 196.565 521.621 191.794 514.181C189.425 517.314 186.949 519.524 185.679 523.33C195.032 527.562 205.36 529.048 213.986 534.555C212.61 536.91 209.461 536.075 208.762 538.921C213.865 540.355 219.068 541.1 224.081 540.36C234.187 538.867 237.744 546.432 243.591 552.851C230.511 556.343 217.468 557.743 208.086 567.688C215.074 572.762 224.443 570.85 228.323 563.836C229.431 561.831 229.834 558.822 232.238 558.28C240.478 556.424 248.419 558.169 256.861 560.262C255.554 562.69 254.798 564.095 253.824 565.904C257.648 566.405 260.79 565.406 264.793 564.617ZM233.928 618.057C234.08 616.707 232.981 616.422 232.113 616.066C213.478 608.432 194.931 600.578 175.958 593.794C174.335 593.214 172.728 593.028 171.055 593.312C162.662 594.739 154.172 594.773 145.71 595.319C139.547 595.716 135.671 593.396 132.446 588.538C126.604 579.738 122.205 570.251 118.395 560.454C117.617 558.451 116.619 556.532 114.112 557.444C111.86 558.263 113.002 560.179 113.355 561.738C117.234 578.829 122.812 595.351 129.759 611.436C131.18 614.726 133.384 616.756 136.512 618.334C156.656 628.491 177.736 631.874 199.994 627.671C211.434 625.51 222.925 623.607 233.928 618.057ZM111.128 542.496C117.124 542.562 123.142 542.33 129.111 542.769C136.811 543.337 141.932 540.354 144.608 533.118C146.336 528.447 149.742 525.707 154.302 523.73C160.396 521.089 166.49 518.287 171.852 514.258C181.081 507.323 184.705 491.598 178.799 482.766C163.839 460.397 149.991 437.524 143.573 410.975C143.226 409.539 142.69 408.139 140.643 408.179C136.229 408.267 133.217 412.245 134.429 416.615C135.006 418.698 135.641 420.767 136.317 422.821C143.439 444.446 155.134 463.568 168.826 481.535C172.109 485.843 173.029 490.09 172.28 495.451C171.199 503.199 167.226 507.688 159.906 509.836C156.89 510.721 154.001 512.108 151.145 513.461C145.242 516.256 138.274 518.959 135.869 524.957C131.361 536.202 123.575 537.349 113.573 535.152C112.127 534.835 110.587 534.877 109.09 534.879C101.238 534.892 95.2178 531.29 89.7761 525.884C83.3765 519.528 77.2247 512.98 71.9479 505.678C64.1062 494.825 57.1869 483.459 54.4384 470.101C53.7427 466.72 51.9282 462.642 58.0802 462.019C60.1348 461.811 60.2845 459.79 59.9177 458.014C59.5287 456.131 58.3983 455.02 56.4 455.261C54.2568 455.52 52.1386 455.979 50.0024 456.304C46.5651 456.828 45.3856 458.22 46.2746 462.07C52.4416 488.78 65.5624 511.42 84.9165 530.746C92.0698 537.889 99.7328 542.932 111.128 542.496ZM323.819 315.785C321.856 317.448 320.654 319.955 317.222 321.724C317.429 293.837 319.734 265.955 297.853 243.148C297.322 250.979 297.811 257.751 296.774 264.467C294.649 278.22 293.811 292.261 286.665 304.751C286.375 305.257 286.174 306.235 286.449 306.58C289.762 310.738 290.62 316.767 296.673 318.888C301.159 320.46 305.327 322.938 309.638 325.012C305.52 333.856 296.43 327.575 290.666 332.003C295.082 334.228 300.757 333.976 303.328 339.044C301.432 342.528 296.865 342.694 294.924 346.337C298.453 352.389 302.004 358.477 305.616 364.67C322.117 356.169 316.354 340.535 318.642 327.031C323.061 330.566 323.947 335.468 327.023 339.435C329.423 332.261 329.983 325.205 330.253 318.114C330.316 316.479 330.425 314.558 328.685 313.655C326.821 312.689 325.653 314.369 323.819 315.785ZM199.056 587.487C253.073 608.837 306.728 631.1 360.971 651.885C367.069 654.221 368.259 653.8 371.323 647.658C369.099 645.861 366.375 645.055 363.775 644.019C305.5 620.778 246.73 598.829 188.034 576.685C184.921 575.51 181.85 574.579 178.381 574.611C170.897 574.681 163.41 574.182 155.923 574.102C152.304 574.063 149.547 572.835 147.369 569.898C144.693 566.289 141.796 562.843 138.994 559.328C137.403 557.331 135.627 556.094 132.736 558.081C133.51 562.499 135.837 566.316 138.016 570.186C145.248 583.03 145.216 582.685 159.903 581.086C167.045 580.308 174.304 577.748 181.591 580.674C187.15 582.907 192.748 585.044 199.056 587.487ZM456.807 540.226C458.791 540.407 460.782 540.792 462.76 540.732C469.988 540.513 473.548 535.157 470.75 528.527C468.876 524.087 466.848 519.672 464.442 515.504C458.852 505.814 452.21 496.96 442.306 489.739C441.602 501.269 440.667 512.004 442.514 522.717C443.909 530.807 448.243 536.792 456.807 540.226ZM85.9784 463.512C83.9654 457.35 81.9163 451.198 79.9582 445.018C79.2337 442.731 77.9906 441.644 75.5215 442.372C73.2276 443.049 72.1724 444.481 72.7604 446.854C73.1592 448.464 73.6976 450.043 74.2263 451.617C80.97 471.703 91.7797 489.603 103.767 506.898C107.242 511.912 111.453 514.631 117.792 514.771C122.891 514.884 127.999 516.1 133.029 517.176C136.089 517.831 138.493 517.354 140.819 515.261C144.404 512.033 148.132 508.966 152.4 506.628C162.046 501.342 162.369 492.089 152.914 486.026C151.785 489.481 151.623 493.236 148.894 496.043C145.068 499.978 141.42 504.091 137.799 508.218C135.873 510.413 133.596 511.356 130.724 511.029C126.598 510.559 122.477 509.869 118.338 509.731C113.119 509.558 109.865 506.71 106.913 502.834C97.9488 491.066 91.5745 477.94 85.9784 463.512ZM248.306 411.45C243.837 413.655 239.167 415.533 234.947 418.14C228.286 422.256 226.395 430.126 229.981 437.385C233.359 435.891 235.062 432.705 237.225 430.088C239.561 427.263 235.242 425.055 236.259 421.661C246.21 421.433 256.242 421.499 266.775 422.109C263.656 429.36 265.903 434.358 272.539 437.541C275.149 428.678 274.963 424.105 270.229 419.977C264.253 414.766 257.627 410.332 248.306 411.45ZM167.53 533.596C165.598 534.79 163.105 535.14 161.808 537.294C164.315 544.635 173.081 548.61 172.249 557.589C177.939 560.446 180.846 556.88 183.327 552.725C188.407 553.787 190.021 560.377 195.948 560.137C195.746 557.671 194.338 556.398 193.252 555.001C188.145 548.425 182.692 542.092 177.964 535.256C175.011 530.985 172.192 530.315 167.53 533.596ZM69.4266 555.047C73.8148 557.682 79.2994 555.699 84.4331 549.559C82.5373 547.396 80.5123 544.84 77.3931 547.039C73.8411 549.543 70.9175 548.52 67.7741 546.56C64.0993 544.268 60.1544 542.357 56.6879 539.792C42.3286 529.169 26.0705 520.266 20.5691 501.302C20.5124 501.107 20.0211 501.038 19.7178 500.903C15.4485 502.653 14.6543 505.29 17.5651 508.981C19.0074 510.81 20.1893 512.861 21.7411 514.585C35.6551 530.039 52.1871 542.428 69.4266 555.047ZM111.863 431.893C107.899 433.986 104.032 436.3 99.9433 438.111C95.8181 439.938 96.6203 442.602 97.6851 445.876C98.9213 449.676 101.296 448.963 103.96 448.038C107.505 446.807 110.564 446.402 112.701 450.712C114.202 453.739 116.554 452.568 118.275 450.511C120.721 447.588 122.725 444.29 125.762 441.876C126.976 440.911 126.896 439.714 126.602 438.285C124.367 427.422 122.964 426.682 112.968 431.315C112.817 431.385 112.671 431.464 111.863 431.893ZM482.454 596.235C480.918 593.074 478.826 590.286 476.508 587.681C474.833 585.798 472.418 585.1 470.154 585.662C467.677 586.278 467.767 588.845 467.335 590.979C465.779 598.657 470.649 602.97 475.627 607.258C477.395 608.782 479.249 610.617 481.779 609.191C484.544 607.632 485.314 604.8 484.903 601.892C484.658 600.157 483.556 598.542 482.454 596.235ZM287.622 595.502C286.514 596.834 284.429 597.899 285.559 600.023C286.433 601.667 288.379 601.504 290.025 601.584C297.659 601.954 301.732 597.409 302.417 587.374C296.14 587.269 292.182 591.253 287.622 595.502ZM391.404 622.182C383.819 621.564 380.831 624.439 378.444 634.686C381.227 637.045 383.444 636.522 385.352 633.474C387.552 629.962 390.267 626.756 391.404 622.182ZM132.344 457.578C131.648 458.627 130.243 459.286 130.538 461.135C132.696 461.799 134.859 461.869 137.417 460.515C135.282 459.985 137.671 454.385 132.344 457.578Z" fill="currentColor"/>
<path d="M704.73 356.525C705.651 357.969 706.412 358.703 706.606 359.635C711.454 382.852 710.974 406.402 707.178 429.512C705.493 439.773 696.792 441.331 688.752 442.703C695.582 460.273 706.007 473.742 713 490.022C709.457 495.665 705.075 492.926 701.34 493.808C681.946 498.391 668.211 489.902 660.231 465.876C657.615 458.002 653.085 451.108 649.079 444.1C644.882 436.757 644.839 430.904 650.401 424.261C656.925 416.471 662.628 407.531 668.619 399.011C670.365 396.528 672.447 394.192 672.966 388.975C662.608 388.975 652.714 388.847 642.824 389.026C637.518 389.123 638.118 394.477 638.117 398.946C638.115 426.145 637.823 453.355 638.369 480.536C638.578 490.95 635.561 494.284 628.041 493.658C622.386 493.188 616.69 493.527 611.012 493.557C605.728 493.586 603.011 490.481 603.018 483.428C603.06 441.933 603.088 400.437 603 358.942C602.983 350.86 605.826 347.954 611.945 348.001C637.9 348.2 663.857 348.085 689.813 348.001C695.57 347.982 700.331 350.66 704.73 356.525Z" fill="currentColor"/>
<path d="M1032.7 440.534C1032.7 425.935 1032.51 412.306 1032.77 398.691C1032.89 391.748 1031.21 388.229 1025.38 388.476C1016.41 388.856 1007.43 388.892 998.456 388.79C994.606 388.747 991.855 391.052 988.974 393.898C979.338 403.418 969.546 412.678 960.445 421.43C957.192 419.952 957.13 417.773 957.145 415.687C957.253 401.02 957.314 386.35 957.569 371.686C957.802 358.321 965.065 348.4 975.48 348.256C999.69 347.922 1023.91 347.915 1048.12 348.232C1059.32 348.378 1067.54 358.239 1067.72 372.47C1068.11 404.249 1068.09 436.046 1067.7 467.824C1067.52 482.575 1059.98 492.739 1047.93 493.217C1024.01 494.166 1000.05 494.191 976.123 493.619C964.917 493.351 958.685 482.41 957.359 468.223C955.632 449.74 960.01 436.455 973.129 427.99C979.075 424.153 983.289 416.529 990.758 414.059C994.064 426.978 991.046 440.153 993.461 454.576C1005.16 454.576 1017.01 455.236 1028.8 454.304C1034.91 453.82 1031.9 446.106 1032.7 440.534Z" fill="currentColor"/>
<path d="M1182.3 480.472C1177.82 490.316 1171.06 493.752 1163.46 493.84C1138.54 494.128 1113.62 493.943 1088.7 493.924C1086.23 493.922 1083.81 493.644 1081 489.891C1085.57 478.761 1091.1 467.679 1097.77 458.002C1102.17 451.62 1109.47 454.05 1115.58 453.833C1124.51 453.517 1133.46 453.854 1142.4 453.662C1145.69 453.592 1150.13 454.998 1150.31 447.975C1150.5 440.726 1146.04 442.092 1142.73 442.063C1128.64 441.941 1114.55 442.081 1100.47 441.955C1089.22 441.854 1083.2 434.681 1082.89 420.497C1082.57 405.859 1082.52 391.197 1082.76 376.558C1083.1 356.215 1089.63 348.195 1105.28 348.172C1129.12 348.137 1152.96 348.089 1176.8 348.186C1179.62 348.197 1182.77 346.889 1186 351.061C1180.13 363.56 1173.81 375.84 1165.3 385.931C1163.84 387.66 1160.68 387.268 1158.29 387.368C1146.92 387.844 1135.55 388.096 1124.19 388.552C1120.92 388.684 1117.38 388.696 1117.38 394.894C1117.37 401.331 1121.02 400.813 1124.24 400.834C1141.04 400.94 1157.84 401.276 1174.63 400.867C1181.61 400.698 1184.3 403.656 1184.1 412.918C1183.7 431.421 1184.04 449.949 1184.03 468.466C1184.03 472.292 1184.21 476.192 1182.3 480.472Z" fill="currentColor"/>
<path d="M550.747 348.554C562.419 348.345 573.406 348.345 584.032 348.345C585.432 354.509 582.891 357.238 581.406 360.369C573.215 377.641 565.092 394.973 556.634 412.029C553.792 417.761 553.441 422.159 556.809 427.952C567.041 445.552 576.821 463.586 586.754 481.472C588.297 484.252 590.897 487.05 589.69 490.666C588.227 495.046 584.561 493.715 581.697 493.792C550.866 494.622 550.887 494.58 534.283 460.913C529.968 452.165 525.468 443.567 519.112 435.522C519.112 450.307 519.151 465.093 519.101 479.878C519.057 492.79 518.422 493.618 508.567 493.756C503.135 493.832 497.698 493.53 492.27 493.714C486.166 493.921 483.39 490.794 483.579 482.532C483.81 472.446 483.384 462.323 483.016 452.23C482.819 446.839 484.45 443.003 487.562 439.552C492.445 434.138 498.06 429.681 502.214 421.993C497.981 419.745 493.906 420.786 490.014 420.829C485.062 420.884 483.46 418.241 483.509 411.966C483.648 394.188 483.39 376.404 483.192 358.623C483.119 352.067 484.568 347.875 490.538 348.127C497.321 348.414 504.127 348.405 510.906 348.024C516.815 347.693 519.272 350.722 519.16 358.403C518.932 374.055 519.092 389.716 519.092 407.263C526.733 396.464 530.891 384.838 536.19 374.201C540.534 365.482 543.215 355.236 550.747 348.554Z" fill="currentColor"/>
<path d="M751.001 400.484C755.337 385.676 759.587 371.694 763.556 357.58C765.481 350.736 768.665 347.659 774.465 348.03C782.265 348.529 790.107 348.366 797.919 348.018C802.873 347.798 805.938 349.986 807.86 356.164C821.174 398.952 834.637 441.663 848.111 484.367C849.591 489.057 849.623 493.504 845.063 493.61C827.417 494.022 809.762 493.778 791.524 493.778C792.358 483.025 797.555 477.391 801.209 470.895C803.954 466.016 804.287 461.946 802.54 456.539C797.36 440.518 792.499 424.325 786.577 405.171C782.578 418.562 779.497 428.852 776.433 439.149C773.813 447.954 771.2 456.764 768.602 465.58C759.426 496.717 756.601 498.727 730.579 494.158C722.872 492.805 724.852 487.058 726.584 481.305C734.619 454.604 742.721 427.936 751.001 400.484Z" fill="currentColor"/>
<path d="M928.031 546.709C928.378 545.665 928.455 545.327 928.569 545.011C938.714 516.96 932.817 522.729 957.932 521.893C962.779 521.731 964.998 524.924 965 530.73C965.007 557.978 964.92 585.226 964.826 612.474C964.803 618.862 962.379 622.166 957.234 621.848C954.798 621.698 952.336 621.575 949.914 621.855C943.214 622.628 940.457 618.319 940.459 610.192C940.46 603.569 940.459 596.946 940.459 587.734C935.345 596.678 933.778 604.985 931.432 612.688C929.463 619.152 926.427 621.859 921.058 621.984C915.488 622.115 912.658 618.894 910.904 612.481C908.748 604.603 906.121 596.94 902.758 586.174C902.391 596.877 901.853 604.535 901.945 612.181C902.032 619.441 899.607 622.472 894.121 621.941C892.772 621.81 891.409 621.946 890.053 621.948C878.325 621.966 878.126 621.701 878.126 606.917C878.126 582.462 878.283 558.004 878.003 533.554C877.907 525.159 880.103 521.999 886.846 521.517C905.725 520.17 905.671 519.799 912.934 542.273C915.181 549.224 917.688 556.036 920.437 563.954C924.524 558.354 925.811 552.632 928.031 546.709Z" fill="currentColor"/>
<path d="M876.898 453.486C876.907 434.976 876.526 417.493 877.082 400.059C877.382 390.645 874.252 387.47 867.655 387.465C860.575 387.46 853.493 387.456 846.416 387.215C843.543 387.117 840.41 388.272 837 384.318C841.414 372.456 846.662 360.893 852.991 350.121C854.241 347.993 856.347 348.032 858.272 348.031C886.868 348.009 915.464 347.983 944.059 348.015C945.631 348.017 947.382 347.905 949 351.4C943.569 363.295 937.488 375.417 929.524 385.831C927.553 388.407 924.528 388.852 921.812 388.397C913.521 387.01 911.828 392.24 911.971 401.799C912.37 428.332 911.829 454.888 912.215 481.423C912.358 491.243 909.438 494.592 902.134 493.916C896.171 493.364 890.157 493.725 884.166 493.658C879.131 493.603 876.738 490.409 876.818 483.87C876.938 474.093 876.879 464.313 876.898 453.486Z" fill="currentColor"/>
<path d="M753.106 621.933C738.534 621.934 724.745 622.121 710.961 621.865C700.561 621.672 696.212 615.88 696.129 602.454C695.998 581.445 695.945 560.433 696.073 539.425C696.138 528.754 700.229 522.407 708.162 522.22C727.075 521.774 745.999 522.127 764.918 522.228C765.62 522.232 766.32 522.984 767 523.375C762.805 542.376 753.267 551.992 738.924 551.941C717.756 551.865 721.668 550.344 721.316 574.961C721.301 576.011 721.31 577.062 721.31 578.113C721.318 591.943 729.227 598.585 739.001 592.956C742.742 590.802 741.523 587.177 740.108 584.232C737.146 578.064 733.824 572.185 729.878 564.729C741.678 561.097 752.711 561.337 763.695 563.623C766.785 564.266 766.646 569.036 766.648 572.529C766.656 583.734 766.601 594.939 766.509 606.143C766.384 621.192 765.965 621.685 753.106 621.933Z" fill="currentColor"/>
<path d="M810.681 616.025C812.985 591.748 804.698 572.747 796.11 553.646C791.974 544.447 787.615 535.191 785 523.463C793.826 520.672 803.272 516.913 809.851 524.353C815.736 531.009 818.318 542.568 823.138 553.78C825.823 546.943 828.579 541.551 830.13 535.631C833.23 523.804 839.128 519.202 848.539 521.148C852.196 521.904 856.058 521.117 859.367 523.629C860.991 527.268 859.104 529.767 858.015 532.418C853.344 543.789 848.944 555.373 843.846 566.416C837.509 580.14 832.816 594.117 834.556 610.668C835.466 619.328 831.853 622.969 825.436 621.781C820.466 620.862 814.418 625.065 810.681 616.025Z" fill="currentColor"/>
<path d="M202.494 335.897C204.781 334.58 206.771 333.461 209.08 332.163C205.041 329.797 201.255 331.588 197.618 331.658C196.124 322.013 201 317.036 210.206 318.327C217.746 319.385 224.818 321.574 231.095 326.001C235.049 328.79 239.388 330.141 244.271 329.708C245.704 329.581 247.265 329.224 249.134 330.866C246.4 336.391 243.585 342.081 240.513 348.291C236.26 344.518 231.922 345.61 227.497 346.482C220.708 347.82 214.252 346.486 208.127 343.397C205.344 341.993 202.585 340.54 199.837 339.121C199.755 337.337 201.223 336.914 202.494 335.897Z" fill="currentColor"/>
</svg>
