<?xml version="1.0" standalone="no"?>
<!DOCTYPE svg PUBLIC "-//W3C//DTD SVG 20010904//EN"
 "http://www.w3.org/TR/2001/REC-SVG-20010904/DTD/svg10.dtd">
<svg version="1.0" xmlns="http://www.w3.org/2000/svg"
 width="1186.000000pt" height="356.000000pt" viewBox="0 0 1186.000000 356.000000"
 preserveAspectRatio="xMidYMid meet">

<g transform="translate(0.000000,356.000000) scale(0.100000,-0.100000)"
fill="#fff" stroke="none">
<path d="M1350 3546 c0 -2 5 -28 10 -57 34 -176 31 -453 -6 -679 -53 -319
-189 -696 -356 -983 -22 -38 -38 -74 -35 -81 3 -6 58 -86 124 -177 137 -189
253 -355 253 -362 0 -2 -29 1 -65 8 -36 6 -65 9 -65 5 0 -26 40 -50 99 -59 36
-6 70 -16 77 -23 7 -7 56 -85 110 -173 155 -256 223 -405 316 -692 l82 -253
22 121 c43 235 140 518 199 578 l25 27 -100 174 c-55 96 -101 178 -103 183 -1
5 -37 -3 -79 -17 -62 -21 -96 -26 -175 -26 -89 0 -205 12 -243 26 -15 5 93 74
224 140 67 35 71 35 133 27 34 -5 63 -8 63 -6 0 2 -7 17 -15 34 -9 16 -13 34
-10 38 10 17 156 72 204 78 51 6 91 -9 124 -45 l19 -20 34 20 c19 11 34 23 34
27 0 4 -33 30 -72 57 -110 77 -134 77 -267 9 -59 -30 -111 -55 -115 -55 -14 0
-216 446 -216 477 0 5 29 59 64 121 214 374 326 764 326 1131 l0 110 -106 79
c-120 91 -282 179 -398 216 -71 24 -116 32 -116 22z"/>
<path d="M184 1491 c-31 -6 -174 -98 -174 -112 0 -4 15 -16 33 -27 l33 -19 32
28 c42 38 75 45 141 31 58 -12 232 -93 396 -184 55 -30 115 -58 133 -61 19 -4
79 0 135 8 80 12 106 20 120 36 9 12 17 25 17 29 0 4 -45 -2 -101 -12 l-100
-19 -305 156 c-167 85 -310 154 -317 154 -6 -1 -26 -4 -43 -8z"/>
</g>
</svg>
