<svg id="svg" version="1.1" xmlns="http://www.w3.org/2000/svg" xmlns:xlink="http://www.w3.org/1999/xlink" width="400" height="120.06745362563238" viewBox="0, 0, 400,120.06745362563238"><g id="svgg"><path id="path0" d="M45.000 0.725 C 45.000 1.151,45.075 1.500,45.167 1.500 C 45.258 1.500,45.333 1.908,45.333 2.407 C 45.333 2.906,45.408 3.360,45.500 3.417 C 45.592 3.473,45.667 3.998,45.667 4.583 C 45.667 5.168,45.742 5.693,45.833 5.750 C 45.929 5.809,46.000 6.693,46.000 7.833 C 46.000 8.974,46.071 9.857,46.167 9.917 C 46.266 9.978,46.333 11.082,46.333 12.667 C 46.333 14.252,46.266 15.355,46.167 15.417 C 46.069 15.477,46.000 16.443,46.000 17.750 C 46.000 19.057,45.931 20.023,45.833 20.083 C 45.742 20.140,45.667 20.782,45.667 21.510 C 45.667 22.281,45.597 22.833,45.500 22.833 C 45.405 22.833,45.333 23.333,45.333 24.000 C 45.333 24.667,45.262 25.167,45.167 25.167 C 45.075 25.167,45.000 25.575,45.000 26.073 C 45.000 26.572,44.925 27.027,44.833 27.083 C 44.742 27.140,44.667 27.557,44.667 28.010 C 44.667 28.463,44.592 28.833,44.500 28.833 C 44.408 28.833,44.333 29.129,44.333 29.490 C 44.333 29.851,44.258 30.193,44.167 30.250 C 44.075 30.307,44.000 30.607,44.000 30.917 C 44.000 31.227,43.925 31.527,43.833 31.583 C 43.742 31.640,43.667 31.940,43.667 32.250 C 43.667 32.560,43.592 32.860,43.500 32.917 C 43.408 32.973,43.333 33.273,43.333 33.583 C 43.333 33.893,43.258 34.193,43.167 34.250 C 43.075 34.307,43.000 34.611,43.000 34.927 C 43.000 35.242,42.925 35.500,42.833 35.500 C 42.742 35.500,42.667 35.721,42.667 35.990 C 42.667 36.260,42.592 36.527,42.500 36.583 C 42.408 36.640,42.333 36.907,42.333 37.177 C 42.333 37.446,42.258 37.667,42.167 37.667 C 42.075 37.667,42.000 37.892,42.000 38.167 C 42.000 38.442,41.925 38.667,41.833 38.667 C 41.742 38.667,41.667 38.892,41.667 39.167 C 41.667 39.442,41.592 39.667,41.500 39.667 C 41.408 39.667,41.333 39.892,41.333 40.167 C 41.333 40.442,41.258 40.667,41.167 40.667 C 41.075 40.667,41.000 40.892,41.000 41.167 C 41.000 41.442,40.925 41.667,40.833 41.667 C 40.742 41.667,40.667 41.892,40.667 42.167 C 40.667 42.442,40.592 42.667,40.500 42.667 C 40.408 42.667,40.333 42.817,40.333 43.000 C 40.333 43.183,40.258 43.333,40.167 43.333 C 40.075 43.333,40.000 43.558,40.000 43.833 C 40.000 44.108,39.925 44.333,39.833 44.333 C 39.742 44.333,39.667 44.483,39.667 44.667 C 39.667 44.850,39.592 45.000,39.500 45.000 C 39.408 45.000,39.333 45.225,39.333 45.500 C 39.333 45.775,39.258 46.000,39.167 46.000 C 39.075 46.000,39.000 46.150,39.000 46.333 C 39.000 46.517,38.925 46.667,38.833 46.667 C 38.742 46.667,38.667 46.850,38.667 47.073 C 38.667 47.297,38.592 47.527,38.500 47.583 C 38.408 47.640,38.333 47.832,38.333 48.010 C 38.333 48.188,38.258 48.333,38.167 48.333 C 38.075 48.333,38.000 48.483,38.000 48.667 C 38.000 48.850,37.925 49.000,37.833 49.000 C 37.742 49.000,37.667 49.146,37.667 49.323 C 37.667 49.501,37.592 49.693,37.500 49.750 C 37.408 49.807,37.333 49.999,37.333 50.177 C 37.333 50.354,37.258 50.500,37.167 50.500 C 37.075 50.500,37.000 50.614,37.000 50.752 C 37.000 50.891,36.913 51.172,36.807 51.377 C 36.403 52.159,36.333 52.336,36.333 52.581 C 36.333 52.720,36.258 52.833,36.167 52.833 C 36.075 52.833,36.000 52.983,36.000 53.167 C 36.000 53.350,35.943 53.500,35.873 53.500 C 35.746 53.500,35.444 53.994,35.238 54.542 C 35.177 54.702,35.062 54.833,34.981 54.833 C 34.900 54.833,34.833 54.983,34.833 55.167 C 34.833 55.350,34.773 55.500,34.699 55.500 C 34.626 55.500,34.382 55.874,34.158 56.331 C 33.934 56.788,33.694 57.163,33.625 57.164 C 33.556 57.166,33.500 57.317,33.500 57.500 C 33.500 57.683,33.425 57.833,33.333 57.833 C 33.242 57.833,33.167 57.983,33.167 58.167 C 33.167 58.350,33.101 58.500,33.020 58.500 C 32.940 58.500,32.781 58.725,32.667 59.000 C 32.553 59.275,32.394 59.500,32.313 59.500 C 32.233 59.500,32.167 59.650,32.167 59.833 C 32.167 60.017,32.092 60.167,32.000 60.167 C 31.585 60.167,31.829 61.613,32.333 62.140 C 32.608 62.428,32.833 62.728,32.833 62.807 C 32.833 62.886,33.058 63.186,33.333 63.474 C 33.608 63.762,33.834 64.054,33.836 64.123 C 33.838 64.289,34.445 65.075,35.125 65.794 C 35.423 66.109,35.667 66.442,35.667 66.533 C 35.667 66.625,35.892 66.910,36.167 67.167 C 36.442 67.424,36.667 67.754,36.667 67.900 C 36.667 68.047,36.742 68.167,36.833 68.167 C 36.925 68.167,37.000 68.279,37.000 68.417 C 37.000 68.554,37.075 68.667,37.167 68.667 C 37.258 68.667,37.333 68.779,37.333 68.917 C 37.333 69.054,37.408 69.167,37.500 69.167 C 37.592 69.167,37.667 69.252,37.667 69.355 C 37.667 69.459,37.798 69.666,37.959 69.814 C 38.121 69.962,38.358 70.290,38.488 70.542 C 38.617 70.794,38.785 71.000,38.861 71.000 C 38.938 71.000,39.000 71.112,39.000 71.250 C 39.000 71.387,39.075 71.500,39.167 71.500 C 39.258 71.500,39.333 71.596,39.333 71.713 C 39.333 71.830,39.483 72.035,39.667 72.167 C 39.850 72.299,40.000 72.524,40.000 72.667 C 40.000 72.810,40.150 73.035,40.333 73.167 C 40.517 73.299,40.667 73.524,40.667 73.667 C 40.667 73.810,40.817 74.035,41.000 74.167 C 41.183 74.299,41.334 74.484,41.334 74.578 C 41.334 74.673,41.559 75.012,41.833 75.333 C 42.108 75.654,42.333 75.994,42.333 76.088 C 42.333 76.183,42.483 76.368,42.667 76.500 C 42.850 76.632,43.000 76.857,43.000 77.000 C 43.000 77.143,43.150 77.368,43.333 77.500 C 43.517 77.632,43.667 77.840,43.667 77.961 C 43.667 78.579,44.958 79.392,46.388 79.675 L 47.525 79.899 53.888 76.681 C 57.387 74.911,60.342 73.347,60.455 73.205 C 60.666 72.938,60.564 72.129,60.308 72.028 C 60.230 71.997,60.167 71.828,60.167 71.653 C 60.167 71.477,60.092 71.333,60.000 71.333 C 59.908 71.333,59.833 71.183,59.833 71.000 C 59.833 70.817,59.758 70.667,59.667 70.667 C 59.575 70.667,59.500 70.517,59.500 70.333 C 59.500 70.150,59.425 70.000,59.333 70.000 C 59.242 70.000,59.167 69.886,59.167 69.748 C 59.167 69.609,59.092 69.346,59.000 69.164 C 58.908 68.982,58.758 68.684,58.667 68.502 C 58.575 68.320,58.500 68.058,58.500 67.919 C 58.500 67.780,58.425 67.667,58.333 67.667 C 58.242 67.667,58.167 67.517,58.167 67.333 C 58.167 67.150,58.092 67.000,58.000 67.000 C 57.908 67.000,57.833 66.854,57.833 66.677 C 57.833 66.499,57.758 66.307,57.667 66.250 C 57.575 66.193,57.500 66.001,57.500 65.823 C 57.500 65.646,57.425 65.500,57.333 65.500 C 57.242 65.500,57.167 65.386,57.167 65.248 C 57.167 65.109,57.092 64.846,57.000 64.664 C 56.908 64.482,56.758 64.184,56.667 64.002 C 56.575 63.820,56.500 63.558,56.500 63.419 C 56.500 63.280,56.425 63.167,56.333 63.167 C 56.242 63.167,56.167 63.017,56.167 62.833 C 56.167 62.650,56.092 62.500,56.000 62.500 C 55.908 62.500,55.833 62.317,55.833 62.093 C 55.833 61.869,55.758 61.640,55.667 61.583 C 55.575 61.527,55.500 61.335,55.500 61.157 C 55.500 60.979,55.425 60.833,55.333 60.833 C 55.242 60.833,55.167 60.683,55.167 60.500 C 55.167 60.317,55.092 60.167,55.000 60.167 C 54.908 60.167,54.833 59.942,54.833 59.667 C 54.833 59.392,54.758 59.167,54.667 59.167 C 54.575 59.167,54.500 59.017,54.500 58.833 C 54.500 58.650,54.425 58.500,54.333 58.500 C 54.242 58.500,54.167 58.275,54.167 58.000 C 54.167 57.725,54.092 57.500,54.000 57.500 C 53.908 57.500,53.833 57.402,53.833 57.283 C 53.833 56.977,54.225 56.170,54.375 56.168 C 54.444 56.167,54.500 56.017,54.500 55.833 C 54.500 55.650,54.575 55.500,54.667 55.500 C 54.758 55.500,54.833 55.387,54.833 55.250 C 54.833 55.112,54.890 55.000,54.958 54.999 C 55.027 54.999,55.271 54.587,55.500 54.083 C 55.729 53.580,55.973 53.168,56.042 53.167 C 56.110 53.167,56.167 53.054,56.167 52.917 C 56.167 52.779,56.242 52.667,56.333 52.667 C 56.425 52.667,56.500 52.517,56.500 52.333 C 56.500 52.150,56.575 52.000,56.667 52.000 C 56.758 52.000,56.833 51.850,56.833 51.667 C 56.833 51.483,56.908 51.333,57.000 51.333 C 57.092 51.333,57.167 51.183,57.167 51.000 C 57.167 50.817,57.242 50.667,57.333 50.667 C 57.425 50.667,57.500 50.517,57.500 50.333 C 57.500 50.150,57.575 50.000,57.667 50.000 C 57.758 50.000,57.833 49.850,57.833 49.667 C 57.833 49.483,57.908 49.333,58.000 49.333 C 58.092 49.333,58.167 49.183,58.167 49.000 C 58.167 48.817,58.242 48.667,58.333 48.667 C 58.425 48.667,58.500 48.517,58.500 48.333 C 58.500 48.150,58.575 48.000,58.667 48.000 C 58.758 48.000,58.833 47.850,58.833 47.667 C 58.833 47.483,58.908 47.333,59.000 47.333 C 59.092 47.333,59.167 47.183,59.167 47.000 C 59.167 46.817,59.242 46.667,59.333 46.667 C 59.425 46.667,59.500 46.517,59.500 46.333 C 59.500 46.150,59.575 46.000,59.667 46.000 C 59.758 46.000,59.833 45.850,59.833 45.667 C 59.833 45.483,59.908 45.333,60.000 45.333 C 60.092 45.333,60.167 45.150,60.167 44.927 C 60.167 44.703,60.242 44.473,60.333 44.417 C 60.425 44.360,60.500 44.168,60.500 43.990 C 60.500 43.812,60.575 43.667,60.667 43.667 C 60.758 43.667,60.833 43.517,60.833 43.333 C 60.833 43.150,60.908 43.000,61.000 43.000 C 61.092 43.000,61.167 42.775,61.167 42.500 C 61.167 42.225,61.242 42.000,61.333 42.000 C 61.425 42.000,61.500 41.850,61.500 41.667 C 61.500 41.483,61.575 41.333,61.667 41.333 C 61.758 41.333,61.833 41.108,61.833 40.833 C 61.833 40.558,61.908 40.333,62.000 40.333 C 62.092 40.333,62.167 40.146,62.167 39.917 C 62.167 39.688,62.242 39.500,62.333 39.500 C 62.425 39.500,62.500 39.317,62.500 39.093 C 62.500 38.869,62.575 38.640,62.667 38.583 C 62.758 38.527,62.833 38.260,62.833 37.990 C 62.833 37.721,62.908 37.500,63.000 37.500 C 63.092 37.500,63.167 37.275,63.167 37.000 C 63.167 36.725,63.242 36.500,63.333 36.500 C 63.425 36.500,63.500 36.275,63.500 36.000 C 63.500 35.725,63.575 35.500,63.667 35.500 C 63.758 35.500,63.833 35.275,63.833 35.000 C 63.833 34.725,63.908 34.500,64.000 34.500 C 64.092 34.500,64.167 34.206,64.167 33.847 C 64.167 33.488,64.246 33.168,64.342 33.136 C 64.439 33.104,64.594 32.779,64.687 32.414 C 64.779 32.049,64.932 31.450,65.025 31.083 C 65.118 30.717,65.233 30.135,65.281 29.791 C 65.329 29.446,65.436 29.123,65.518 29.072 C 65.600 29.022,65.667 28.652,65.667 28.250 C 65.667 27.848,65.742 27.473,65.833 27.417 C 65.925 27.360,66.000 26.948,66.000 26.500 C 66.000 26.052,66.075 25.640,66.167 25.583 C 66.258 25.527,66.333 25.002,66.333 24.417 C 66.333 23.832,66.408 23.307,66.500 23.250 C 66.593 23.193,66.667 22.418,66.667 21.500 C 66.667 20.582,66.740 19.807,66.833 19.750 C 66.936 19.686,67.000 18.224,67.000 15.917 C 67.000 13.610,66.936 12.147,66.833 12.083 C 66.742 12.027,66.667 11.715,66.667 11.390 C 66.667 10.952,66.542 10.687,66.183 10.359 C 65.376 9.620,65.003 9.333,64.852 9.333 C 64.772 9.333,64.398 9.033,64.020 8.667 C 63.642 8.300,63.255 8.000,63.161 8.000 C 63.066 8.000,62.822 7.847,62.619 7.661 C 61.758 6.869,61.064 6.330,60.792 6.240 C 60.631 6.187,60.500 6.074,60.500 5.989 C 60.500 5.903,60.402 5.833,60.281 5.833 C 60.161 5.833,59.902 5.683,59.705 5.500 C 59.508 5.317,59.266 5.167,59.167 5.167 C 59.067 5.167,58.825 5.017,58.628 4.833 C 58.431 4.650,58.172 4.500,58.052 4.500 C 57.932 4.500,57.833 4.425,57.833 4.333 C 57.833 4.242,57.683 4.167,57.500 4.167 C 57.317 4.167,57.166 4.110,57.165 4.042 C 57.165 3.973,56.996 3.833,56.790 3.731 C 56.064 3.370,54.246 2.460,53.961 2.314 C 53.801 2.233,53.558 2.167,53.419 2.167 C 53.280 2.167,53.167 2.092,53.167 2.000 C 53.167 1.908,53.053 1.833,52.914 1.833 C 52.776 1.833,52.513 1.758,52.331 1.667 C 52.149 1.575,51.851 1.425,51.669 1.333 C 51.487 1.242,51.187 1.167,51.002 1.167 C 50.818 1.167,50.667 1.092,50.667 1.000 C 50.667 0.908,50.442 0.833,50.167 0.833 C 49.892 0.833,49.667 0.758,49.667 0.667 C 49.667 0.575,49.457 0.500,49.200 0.500 C 48.943 0.500,48.656 0.423,48.561 0.328 C 48.467 0.234,47.627 0.110,46.695 0.053 L 45.000 -0.050 45.000 0.725 M59.750 76.477 C 58.742 77.006,57.317 77.767,56.583 78.168 C 50.165 81.681,50.437 81.592,46.952 81.347 C 46.192 81.293,45.682 81.462,46.125 81.620 C 46.240 81.661,46.333 81.822,46.333 81.977 C 46.333 82.133,46.483 82.368,46.667 82.500 C 46.850 82.632,47.000 82.874,47.000 83.037 C 47.000 83.200,47.062 83.333,47.139 83.333 C 47.215 83.333,47.383 83.540,47.512 83.792 C 47.914 84.574,50.209 88.080,50.359 88.139 C 50.436 88.169,50.500 88.338,50.500 88.514 C 50.500 88.690,50.575 88.833,50.667 88.833 C 50.758 88.833,50.833 88.932,50.833 89.052 C 50.833 89.172,50.983 89.431,51.167 89.628 C 51.350 89.825,51.500 90.102,51.500 90.243 C 51.500 90.384,51.575 90.500,51.667 90.500 C 51.758 90.500,51.833 90.633,51.833 90.797 C 51.833 90.960,51.983 91.201,52.167 91.333 C 52.350 91.465,52.500 91.707,52.500 91.870 C 52.500 92.033,52.575 92.167,52.667 92.167 C 52.758 92.167,52.833 92.317,52.833 92.500 C 52.833 92.683,52.908 92.833,53.000 92.833 C 53.092 92.833,53.167 92.983,53.167 93.167 C 53.167 93.350,53.242 93.500,53.333 93.500 C 53.425 93.500,53.500 93.598,53.500 93.719 C 53.500 93.839,53.650 94.098,53.833 94.295 C 54.017 94.492,54.167 94.768,54.167 94.910 C 54.167 95.051,54.242 95.167,54.333 95.167 C 54.425 95.167,54.500 95.317,54.500 95.500 C 54.500 95.683,54.575 95.833,54.667 95.833 C 54.758 95.833,54.833 95.983,54.833 96.167 C 54.833 96.350,54.908 96.500,55.000 96.500 C 55.092 96.500,55.167 96.650,55.167 96.833 C 55.167 97.017,55.242 97.167,55.333 97.167 C 55.425 97.167,55.500 97.317,55.500 97.500 C 55.500 97.683,55.575 97.833,55.667 97.833 C 55.758 97.833,55.833 97.979,55.833 98.157 C 55.833 98.335,55.908 98.527,56.000 98.583 C 56.092 98.640,56.167 98.832,56.167 99.010 C 56.167 99.188,56.242 99.333,56.333 99.333 C 56.425 99.333,56.500 99.483,56.500 99.667 C 56.500 99.850,56.575 100.000,56.667 100.000 C 56.758 100.000,56.833 100.183,56.833 100.407 C 56.833 100.631,56.908 100.860,57.000 100.917 C 57.092 100.973,57.167 101.165,57.167 101.343 C 57.167 101.521,57.242 101.667,57.333 101.667 C 57.425 101.667,57.500 101.817,57.500 102.000 C 57.500 102.183,57.575 102.333,57.667 102.333 C 57.758 102.333,57.833 102.558,57.833 102.833 C 57.833 103.108,57.908 103.333,58.000 103.333 C 58.092 103.333,58.167 103.483,58.167 103.667 C 58.167 103.850,58.242 104.000,58.333 104.000 C 58.425 104.000,58.500 104.225,58.500 104.500 C 58.500 104.775,58.575 105.000,58.667 105.000 C 58.758 105.000,58.833 105.225,58.833 105.500 C 58.833 105.775,58.908 106.000,59.000 106.000 C 59.092 106.000,59.167 106.183,59.167 106.407 C 59.167 106.631,59.242 106.860,59.333 106.917 C 59.425 106.973,59.500 107.198,59.500 107.417 C 59.500 107.635,59.575 107.860,59.667 107.917 C 59.758 107.973,59.833 108.240,59.833 108.510 C 59.833 108.779,59.908 109.000,60.000 109.000 C 60.092 109.000,60.167 109.225,60.167 109.500 C 60.167 109.775,60.233 110.000,60.315 110.000 C 60.397 110.000,60.509 110.263,60.565 110.583 C 60.621 110.904,60.712 111.429,60.768 111.750 C 60.824 112.071,60.937 112.333,61.018 112.333 C 61.100 112.333,61.167 112.558,61.167 112.833 C 61.167 113.108,61.242 113.333,61.333 113.333 C 61.425 113.333,61.500 113.554,61.500 113.823 C 61.500 114.093,61.575 114.360,61.667 114.417 C 61.758 114.473,61.833 114.736,61.833 115.000 C 61.833 115.264,61.908 115.527,62.000 115.583 C 62.092 115.640,62.167 115.865,62.167 116.083 C 62.167 116.302,62.242 116.527,62.333 116.583 C 62.425 116.640,62.500 116.869,62.500 117.093 C 62.500 117.317,62.575 117.500,62.667 117.500 C 62.758 117.500,62.833 117.673,62.833 117.883 C 62.833 118.094,62.895 118.338,62.971 118.425 C 63.047 118.512,63.209 118.902,63.331 119.292 C 63.535 119.941,64.471 120.405,64.509 119.875 C 64.538 119.476,64.860 117.100,65.001 116.250 C 65.092 115.700,65.214 114.892,65.272 114.455 C 65.329 114.018,65.442 113.619,65.522 113.570 C 65.601 113.521,65.667 113.147,65.667 112.740 C 65.667 112.333,65.742 112.000,65.833 112.000 C 65.925 112.000,66.000 111.700,66.000 111.333 C 66.000 110.967,66.075 110.667,66.167 110.667 C 66.258 110.667,66.333 110.367,66.333 110.000 C 66.333 109.633,66.408 109.333,66.500 109.333 C 66.592 109.333,66.667 109.075,66.667 108.760 C 66.667 108.444,66.742 108.140,66.833 108.083 C 66.925 108.027,67.000 107.760,67.000 107.490 C 67.000 107.221,67.075 107.000,67.167 107.000 C 67.258 107.000,67.333 106.779,67.333 106.510 C 67.333 106.240,67.408 105.973,67.500 105.917 C 67.592 105.860,67.667 105.598,67.667 105.333 C 67.667 105.069,67.742 104.807,67.833 104.750 C 67.925 104.693,68.000 104.468,68.000 104.250 C 68.000 104.032,68.060 103.816,68.134 103.770 C 68.207 103.725,68.372 103.303,68.500 102.833 C 68.628 102.363,68.793 101.942,68.866 101.896 C 68.940 101.851,69.000 101.631,69.000 101.407 C 69.000 101.183,69.075 101.000,69.167 101.000 C 69.258 101.000,69.333 100.886,69.333 100.748 C 69.333 100.609,69.400 100.365,69.481 100.206 C 69.562 100.047,69.702 99.729,69.793 99.500 C 70.199 98.481,71.063 96.833,71.192 96.833 C 71.270 96.833,71.333 96.717,71.333 96.576 C 71.333 96.242,72.076 95.500,72.409 95.500 C 72.598 95.500,72.667 95.324,72.667 94.833 C 72.667 94.467,72.592 94.167,72.500 94.167 C 72.408 94.167,72.333 94.068,72.333 93.948 C 72.333 93.828,72.183 93.569,72.000 93.372 C 71.817 93.175,71.667 92.898,71.667 92.757 C 71.667 92.616,71.592 92.500,71.500 92.500 C 71.408 92.500,71.333 92.384,71.333 92.243 C 71.333 92.102,71.183 91.825,71.000 91.628 C 70.817 91.431,70.667 91.172,70.667 91.052 C 70.667 90.932,70.592 90.833,70.500 90.833 C 70.408 90.833,70.333 90.690,70.333 90.514 C 70.333 90.338,70.277 90.169,70.208 90.139 C 70.052 90.069,69.511 89.182,69.387 88.792 C 69.336 88.631,69.228 88.500,69.147 88.500 C 69.066 88.500,69.000 88.356,69.000 88.181 C 69.000 88.005,68.944 87.836,68.875 87.806 C 68.719 87.736,68.177 86.848,68.054 86.458 C 68.003 86.298,67.895 86.167,67.814 86.167 C 67.733 86.167,67.667 86.017,67.667 85.833 C 67.667 85.650,67.592 85.500,67.500 85.500 C 67.408 85.500,67.333 85.356,67.333 85.181 C 67.333 85.005,67.277 84.836,67.208 84.806 C 67.052 84.736,66.511 83.848,66.387 83.458 C 66.336 83.298,66.228 83.167,66.147 83.167 C 66.066 83.167,66.000 83.035,66.000 82.873 C 66.000 82.157,65.428 82.144,63.970 82.825 C 60.652 84.375,56.174 84.679,50.595 83.732 C 47.965 83.286,47.933 83.376,51.457 81.334 C 57.076 78.078,58.484 77.430,59.469 77.646 C 62.278 78.261,63.167 78.286,63.167 77.750 C 63.167 77.521,63.092 77.333,63.000 77.333 C 62.908 77.333,62.833 77.183,62.833 77.000 C 62.833 76.817,62.758 76.667,62.667 76.667 C 62.575 76.667,62.500 76.544,62.500 76.395 C 62.500 76.140,61.902 75.491,61.683 75.507 C 61.628 75.512,60.758 75.948,59.750 76.477 " stroke="none" fill="#d35c44" fill-rule="evenodd"></path><path id="path1" d="M15.583 77.500 C 15.527 77.592,14.997 77.667,14.407 77.667 C 13.802 77.667,13.333 77.739,13.333 77.833 C 13.333 77.925,13.033 78.000,12.667 78.000 C 12.300 78.000,12.000 78.075,12.000 78.167 C 12.000 78.258,11.886 78.333,11.748 78.333 C 11.492 78.333,10.925 78.613,10.566 78.917 C 10.457 79.008,10.135 79.270,9.851 79.498 C 8.960 80.212,9.572 82.333,10.669 82.333 C 10.768 82.333,11.023 82.508,11.236 82.721 C 11.449 82.934,11.877 83.203,12.187 83.318 C 12.497 83.433,12.880 83.597,13.039 83.681 C 13.199 83.765,13.475 83.833,13.655 83.833 C 13.834 83.833,14.022 83.900,14.072 83.982 C 14.416 84.538,25.219 84.550,26.417 83.996 C 26.600 83.912,27.050 83.822,27.417 83.796 C 28.389 83.729,28.400 82.500,27.429 82.500 C 27.285 82.500,27.166 82.444,27.166 82.375 C 27.164 82.224,26.214 81.667,25.958 81.667 C 25.858 81.667,24.421 80.925,22.763 80.018 C 18.016 77.420,17.820 77.333,16.681 77.333 C 16.134 77.333,15.640 77.408,15.583 77.500 M56.667 78.467 C 54.247 79.697,53.752 79.975,49.263 82.638 C 48.249 83.239,48.394 83.358,50.595 83.732 C 56.179 84.680,60.651 84.375,63.977 82.822 C 64.744 82.464,65.437 82.211,65.517 82.260 C 65.833 82.456,67.000 81.135,67.000 80.583 C 67.000 79.847,65.259 78.333,64.412 78.333 C 64.277 78.333,64.167 78.261,64.167 78.172 C 64.167 78.079,63.682 78.025,63.042 78.044 C 62.066 78.074,60.391 77.883,59.000 77.583 C 58.702 77.519,58.036 77.771,56.667 78.467 " stroke="none" fill="#07d9f9" fill-rule="evenodd"></path><path id="path2" d="M310.833 23.333 C 310.833 23.429,310.333 23.500,309.667 23.500 C 309.000 23.500,308.500 23.571,308.500 23.667 C 308.500 23.758,308.125 23.833,307.667 23.833 C 307.208 23.833,306.833 23.908,306.833 24.000 C 306.833 24.092,306.529 24.167,306.157 24.167 C 305.748 24.167,305.521 24.233,305.583 24.333 C 305.646 24.434,305.418 24.500,305.010 24.500 C 304.638 24.500,304.333 24.575,304.333 24.667 C 304.333 24.758,304.108 24.833,303.833 24.833 C 303.558 24.833,303.333 24.908,303.333 25.000 C 303.333 25.092,303.108 25.167,302.833 25.167 C 302.558 25.167,302.333 25.242,302.333 25.333 C 302.333 25.425,302.183 25.500,302.000 25.500 C 301.817 25.500,301.667 25.575,301.667 25.667 C 301.667 25.758,301.475 25.833,301.240 25.833 C 300.998 25.833,300.858 25.905,300.917 26.000 C 300.973 26.092,300.872 26.167,300.692 26.167 C 300.307 26.167,299.000 26.834,299.000 27.031 C 299.000 27.106,298.850 27.167,298.667 27.167 C 298.483 27.167,298.333 27.242,298.333 27.333 C 298.333 27.425,298.200 27.500,298.037 27.500 C 297.874 27.500,297.632 27.650,297.500 27.833 C 297.368 28.017,297.143 28.167,297.000 28.167 C 296.857 28.167,296.632 28.317,296.500 28.500 C 296.368 28.683,296.156 28.833,296.030 28.833 C 295.904 28.833,295.590 29.058,295.333 29.333 C 295.076 29.608,294.788 29.833,294.693 29.833 C 294.485 29.833,290.833 33.343,290.833 33.543 C 290.833 33.619,290.665 33.856,290.458 34.070 C 289.844 34.706,289.500 35.160,289.500 35.335 C 289.500 35.426,289.437 35.500,289.360 35.500 C 289.282 35.500,289.045 35.837,288.833 36.250 C 288.621 36.662,288.384 37.000,288.307 37.000 C 288.230 37.000,288.167 37.150,288.167 37.333 C 288.167 37.517,288.092 37.667,288.000 37.667 C 287.908 37.667,287.833 37.817,287.833 38.000 C 287.833 38.183,287.758 38.333,287.667 38.333 C 287.575 38.333,287.500 38.483,287.500 38.667 C 287.500 38.850,287.425 39.000,287.333 39.000 C 287.242 39.000,287.167 39.150,287.167 39.333 C 287.167 39.517,287.092 39.667,287.000 39.667 C 286.908 39.667,286.833 39.817,286.833 40.000 C 286.833 40.183,286.758 40.333,286.667 40.333 C 286.575 40.333,286.500 40.483,286.500 40.667 C 286.500 40.850,286.425 41.000,286.333 41.000 C 286.242 41.000,286.167 41.146,286.167 41.323 C 286.167 41.501,286.092 41.693,286.000 41.750 C 285.908 41.807,285.833 42.036,285.833 42.260 C 285.833 42.484,285.758 42.667,285.667 42.667 C 285.575 42.667,285.500 42.892,285.500 43.167 C 285.500 43.442,285.425 43.667,285.333 43.667 C 285.242 43.667,285.167 43.892,285.167 44.167 C 285.167 44.442,285.092 44.667,285.000 44.667 C 284.908 44.667,284.833 44.967,284.833 45.333 C 284.833 45.700,284.758 46.000,284.667 46.000 C 284.575 46.000,284.500 46.296,284.500 46.657 C 284.500 47.018,284.425 47.360,284.333 47.417 C 284.242 47.473,284.167 47.928,284.167 48.427 C 284.167 48.925,284.092 49.333,284.000 49.333 C 283.904 49.333,283.833 49.861,283.833 50.583 C 283.833 51.306,283.763 51.833,283.667 51.833 C 283.559 51.833,283.500 53.747,283.500 57.240 C 283.500 60.665,283.561 62.685,283.667 62.750 C 283.758 62.807,283.833 63.374,283.833 64.010 C 283.833 64.670,283.905 65.167,284.000 65.167 C 284.093 65.167,284.167 65.611,284.167 66.167 C 284.167 66.722,284.241 67.167,284.333 67.167 C 284.425 67.167,284.500 67.462,284.500 67.823 C 284.500 68.185,284.575 68.527,284.667 68.583 C 284.758 68.640,284.833 68.940,284.833 69.250 C 284.833 69.560,284.908 69.860,285.000 69.917 C 285.092 69.973,285.167 70.240,285.167 70.510 C 285.167 70.779,285.242 71.000,285.333 71.000 C 285.425 71.000,285.500 71.225,285.500 71.500 C 285.500 71.775,285.575 72.000,285.667 72.000 C 285.758 72.000,285.833 72.146,285.833 72.323 C 285.833 72.501,285.908 72.693,286.000 72.750 C 286.092 72.807,286.167 73.036,286.167 73.260 C 286.167 73.484,286.242 73.667,286.333 73.667 C 286.425 73.667,286.500 73.817,286.500 74.000 C 286.500 74.183,286.575 74.333,286.667 74.333 C 286.758 74.333,286.833 74.483,286.833 74.667 C 286.833 74.850,286.908 75.000,287.000 75.000 C 287.092 75.000,287.167 75.150,287.167 75.333 C 287.167 75.517,287.242 75.667,287.333 75.667 C 287.425 75.667,287.500 75.817,287.500 76.000 C 287.500 76.183,287.575 76.333,287.667 76.333 C 287.758 76.333,287.833 76.483,287.833 76.667 C 287.833 76.850,287.908 77.000,288.000 77.000 C 288.092 77.000,288.167 77.098,288.167 77.219 C 288.167 77.339,288.317 77.598,288.500 77.795 C 288.683 77.992,288.833 78.238,288.833 78.343 C 288.833 78.447,289.040 78.732,289.292 78.976 C 289.544 79.220,289.772 79.524,289.800 79.650 C 289.827 79.777,290.071 80.088,290.341 80.341 C 290.612 80.594,290.833 80.844,290.833 80.898 C 290.833 81.160,294.332 84.724,294.462 84.594 C 294.505 84.551,294.826 84.812,295.174 85.174 C 295.522 85.537,295.909 85.833,296.033 85.833 C 296.158 85.833,296.368 85.983,296.500 86.167 C 296.632 86.350,296.857 86.500,297.000 86.500 C 297.143 86.500,297.368 86.650,297.500 86.833 C 297.632 87.017,297.874 87.167,298.037 87.167 C 298.200 87.167,298.333 87.242,298.333 87.333 C 298.333 87.425,298.483 87.500,298.667 87.500 C 298.850 87.500,299.000 87.561,299.000 87.636 C 299.000 87.830,300.304 88.500,300.682 88.500 C 300.857 88.500,301.000 88.575,301.000 88.667 C 301.000 88.758,301.150 88.833,301.333 88.833 C 301.517 88.833,301.667 88.908,301.667 89.000 C 301.667 89.092,301.812 89.167,301.990 89.167 C 302.168 89.167,302.360 89.242,302.417 89.333 C 302.473 89.425,302.703 89.500,302.927 89.500 C 303.150 89.500,303.333 89.575,303.333 89.667 C 303.333 89.758,303.554 89.833,303.823 89.833 C 304.093 89.833,304.360 89.908,304.417 90.000 C 304.473 90.092,304.736 90.167,305.000 90.167 C 305.264 90.167,305.527 90.242,305.583 90.333 C 305.640 90.425,305.940 90.500,306.250 90.500 C 306.560 90.500,306.860 90.575,306.917 90.667 C 306.973 90.758,307.353 90.833,307.760 90.833 C 308.167 90.833,308.500 90.908,308.500 91.000 C 308.500 91.095,309.000 91.167,309.667 91.167 C 310.333 91.167,310.833 91.238,310.833 91.333 C 310.833 91.441,312.889 91.500,316.667 91.500 C 320.444 91.500,322.500 91.441,322.500 91.333 C 322.500 91.239,322.972 91.167,323.583 91.167 C 324.194 91.167,324.667 91.094,324.667 91.000 C 324.667 90.908,325.042 90.833,325.500 90.833 C 325.958 90.833,326.333 90.758,326.333 90.667 C 326.333 90.575,326.633 90.500,327.000 90.500 C 327.367 90.500,327.667 90.425,327.667 90.333 C 327.667 90.242,327.892 90.167,328.167 90.167 C 328.442 90.167,328.667 90.092,328.667 90.000 C 328.667 89.908,328.892 89.833,329.167 89.833 C 329.442 89.833,329.667 89.758,329.667 89.667 C 329.667 89.575,329.892 89.500,330.167 89.500 C 330.442 89.500,330.667 89.425,330.667 89.333 C 330.667 89.242,330.850 89.167,331.073 89.167 C 331.297 89.167,331.527 89.092,331.583 89.000 C 331.640 88.908,331.832 88.833,332.010 88.833 C 332.188 88.833,332.333 88.758,332.333 88.667 C 332.333 88.575,332.483 88.500,332.667 88.500 C 332.850 88.500,333.000 88.425,333.000 88.333 C 333.000 88.242,333.150 88.167,333.333 88.167 C 333.517 88.167,333.667 88.092,333.667 88.000 C 333.667 87.908,333.817 87.833,334.000 87.833 C 334.183 87.833,334.333 87.758,334.333 87.667 C 334.333 87.575,334.488 87.500,334.677 87.500 C 334.865 87.500,334.973 87.425,334.917 87.333 C 334.860 87.242,334.931 87.167,335.073 87.167 C 335.216 87.167,335.333 87.092,335.333 87.000 C 335.333 86.908,335.483 86.833,335.667 86.833 C 335.850 86.833,336.000 86.771,336.000 86.695 C 336.000 86.619,336.206 86.450,336.458 86.321 C 337.278 85.899,339.064 84.461,339.917 83.535 C 340.375 83.037,341.294 82.068,341.958 81.381 C 342.623 80.694,343.167 80.044,343.167 79.936 C 343.167 79.829,343.317 79.632,343.500 79.500 C 343.683 79.368,343.833 79.143,343.833 79.000 C 343.833 78.857,343.983 78.632,344.167 78.500 C 344.350 78.368,344.500 78.143,344.500 78.000 C 344.500 77.857,344.650 77.632,344.833 77.500 C 345.017 77.368,345.167 77.126,345.167 76.963 C 345.167 76.800,345.242 76.667,345.333 76.667 C 345.425 76.667,345.500 76.517,345.500 76.333 C 345.500 76.150,345.575 76.000,345.667 76.000 C 345.758 76.000,345.833 75.850,345.833 75.667 C 345.833 75.483,345.908 75.333,346.000 75.333 C 346.092 75.333,346.167 75.183,346.167 75.000 C 346.167 74.817,346.242 74.667,346.333 74.667 C 346.425 74.667,346.500 74.517,346.500 74.333 C 346.500 74.150,346.575 74.000,346.667 74.000 C 346.758 74.000,346.833 73.850,346.833 73.667 C 346.833 73.483,346.892 73.333,346.964 73.333 C 347.035 73.333,347.111 73.127,347.132 72.875 C 347.153 72.623,347.244 72.392,347.335 72.361 C 347.426 72.331,347.500 72.087,347.500 71.819 C 347.500 71.552,347.575 71.333,347.667 71.333 C 347.758 71.333,347.833 71.108,347.833 70.833 C 347.833 70.558,347.908 70.333,348.000 70.333 C 348.092 70.333,348.167 70.071,348.167 69.750 C 348.167 69.429,348.242 69.167,348.333 69.167 C 348.425 69.167,348.500 68.867,348.500 68.500 C 348.500 68.133,348.575 67.833,348.667 67.833 C 348.758 67.833,348.833 67.458,348.833 67.000 C 348.833 66.542,348.908 66.167,349.000 66.167 C 349.092 66.167,349.167 65.726,349.167 65.177 C 349.167 64.632,349.242 64.140,349.333 64.083 C 349.429 64.024,349.500 63.165,349.500 62.073 C 349.500 60.913,349.565 60.167,349.667 60.167 C 349.886 60.167,349.893 54.549,349.674 54.472 C 349.587 54.442,349.503 53.536,349.489 52.460 C 349.474 51.371,349.397 50.544,349.315 50.595 C 349.233 50.645,349.167 50.157,349.167 49.510 C 349.167 48.837,349.095 48.333,349.000 48.333 C 348.908 48.333,348.833 47.958,348.833 47.500 C 348.833 47.042,348.758 46.667,348.667 46.667 C 348.575 46.667,348.500 46.367,348.500 46.000 C 348.500 45.633,348.425 45.333,348.333 45.333 C 348.242 45.333,348.167 45.108,348.167 44.833 C 348.167 44.558,348.092 44.333,348.000 44.333 C 347.908 44.333,347.833 44.108,347.833 43.833 C 347.833 43.558,347.758 43.333,347.667 43.333 C 347.575 43.333,347.500 43.108,347.500 42.833 C 347.500 42.558,347.425 42.333,347.333 42.333 C 347.242 42.333,347.167 42.108,347.167 41.833 C 347.167 41.558,347.092 41.333,347.000 41.333 C 346.908 41.333,346.833 41.183,346.833 41.000 C 346.833 40.817,346.758 40.667,346.667 40.667 C 346.575 40.667,346.500 40.517,346.500 40.333 C 346.500 40.150,346.425 40.000,346.333 40.000 C 346.242 40.000,346.167 39.850,346.167 39.667 C 346.167 39.483,346.092 39.333,346.000 39.333 C 345.908 39.333,345.833 39.183,345.833 39.000 C 345.833 38.817,345.758 38.667,345.667 38.667 C 345.575 38.667,345.500 38.517,345.500 38.333 C 345.500 38.150,345.425 38.000,345.333 38.000 C 345.242 38.000,345.167 37.850,345.167 37.667 C 345.167 37.483,345.092 37.333,345.000 37.333 C 344.908 37.333,344.833 37.216,344.833 37.073 C 344.833 36.931,344.758 36.860,344.667 36.917 C 344.575 36.973,344.498 36.884,344.496 36.718 C 344.494 36.552,344.346 36.229,344.167 36.000 C 343.987 35.771,343.839 35.506,343.837 35.412 C 343.835 35.317,343.683 35.132,343.500 35.000 C 343.317 34.868,343.167 34.664,343.167 34.547 C 343.167 34.429,343.092 34.333,343.000 34.333 C 342.908 34.333,342.833 34.256,342.833 34.161 C 342.833 33.964,338.407 29.500,338.212 29.500 C 338.141 29.499,337.821 29.275,337.500 29.000 C 337.179 28.725,336.823 28.501,336.708 28.500 C 336.594 28.500,336.500 28.425,336.500 28.333 C 336.500 28.242,336.387 28.167,336.250 28.167 C 336.112 28.167,336.000 28.092,336.000 28.000 C 336.000 27.908,335.867 27.833,335.703 27.833 C 335.540 27.833,335.299 27.683,335.167 27.500 C 335.035 27.317,334.793 27.167,334.630 27.167 C 334.467 27.167,334.333 27.092,334.333 27.000 C 334.333 26.908,334.183 26.833,334.000 26.833 C 333.817 26.833,333.667 26.758,333.667 26.667 C 333.667 26.575,333.517 26.500,333.333 26.500 C 333.150 26.500,333.000 26.425,333.000 26.333 C 333.000 26.242,332.850 26.167,332.667 26.167 C 332.483 26.167,332.333 26.092,332.333 26.000 C 332.333 25.908,332.183 25.833,332.000 25.833 C 331.817 25.833,331.667 25.758,331.667 25.667 C 331.667 25.575,331.442 25.500,331.167 25.500 C 330.892 25.500,330.667 25.425,330.667 25.333 C 330.667 25.242,330.442 25.167,330.167 25.167 C 329.892 25.167,329.667 25.092,329.667 25.000 C 329.667 24.908,329.437 24.833,329.157 24.833 C 328.859 24.833,328.690 24.764,328.750 24.667 C 328.811 24.567,328.613 24.500,328.260 24.500 C 327.934 24.500,327.667 24.425,327.667 24.333 C 327.667 24.242,327.367 24.167,327.000 24.167 C 326.633 24.167,326.333 24.092,326.333 24.000 C 326.333 23.908,325.958 23.833,325.500 23.833 C 325.042 23.833,324.667 23.758,324.667 23.667 C 324.667 23.573,324.194 23.500,323.583 23.500 C 322.972 23.500,322.500 23.427,322.500 23.333 C 322.500 23.225,320.444 23.167,316.667 23.167 C 312.889 23.167,310.833 23.225,310.833 23.333 M373.917 23.333 C 373.860 23.425,373.443 23.500,372.990 23.500 C 372.537 23.500,372.167 23.575,372.167 23.667 C 372.167 23.758,371.867 23.833,371.500 23.833 C 371.133 23.833,370.833 23.908,370.833 24.000 C 370.833 24.092,370.608 24.167,370.333 24.167 C 370.058 24.167,369.833 24.242,369.833 24.333 C 369.833 24.425,369.608 24.500,369.333 24.500 C 369.058 24.500,368.833 24.575,368.833 24.667 C 368.833 24.758,368.650 24.833,368.427 24.833 C 368.203 24.833,367.973 24.908,367.917 25.000 C 367.860 25.092,367.668 25.167,367.490 25.167 C 367.312 25.167,367.167 25.242,367.167 25.333 C 367.167 25.425,367.033 25.500,366.870 25.500 C 366.707 25.500,366.465 25.650,366.333 25.833 C 366.201 26.017,365.960 26.167,365.797 26.167 C 365.633 26.167,365.500 26.242,365.500 26.333 C 365.500 26.425,365.367 26.500,365.203 26.500 C 365.040 26.500,364.799 26.650,364.667 26.833 C 364.535 27.017,364.326 27.167,364.203 27.167 C 364.081 27.167,364.027 27.242,364.083 27.333 C 364.140 27.425,364.070 27.500,363.928 27.500 C 363.508 27.500,361.426 29.416,360.667 30.500 C 360.443 30.821,360.126 31.229,359.963 31.406 C 359.800 31.584,359.667 31.828,359.667 31.948 C 359.667 32.068,359.592 32.167,359.500 32.167 C 359.408 32.167,359.333 32.317,359.333 32.500 C 359.333 32.683,359.258 32.833,359.167 32.833 C 359.075 32.833,359.000 32.983,359.000 33.167 C 359.000 33.350,358.925 33.500,358.833 33.500 C 358.742 33.500,358.667 33.646,358.667 33.823 C 358.667 34.001,358.592 34.193,358.500 34.250 C 358.408 34.307,358.333 34.532,358.333 34.750 C 358.333 34.968,358.258 35.193,358.167 35.250 C 358.075 35.307,358.000 35.574,358.000 35.843 C 358.000 36.113,357.939 36.333,357.864 36.333 C 357.790 36.333,357.711 36.690,357.689 37.125 C 357.667 37.560,357.578 37.942,357.491 37.972 C 357.273 38.049,357.281 44.333,357.500 44.333 C 357.592 44.333,357.667 44.633,357.667 45.000 C 357.667 45.367,357.742 45.667,357.833 45.667 C 357.925 45.667,358.000 45.892,358.000 46.167 C 358.000 46.442,358.075 46.667,358.167 46.667 C 358.258 46.667,358.333 46.892,358.333 47.167 C 358.333 47.442,358.408 47.667,358.500 47.667 C 358.592 47.667,358.667 47.817,358.667 48.000 C 358.667 48.183,358.742 48.333,358.833 48.333 C 358.925 48.333,359.000 48.467,359.000 48.630 C 359.000 48.793,359.150 49.035,359.333 49.167 C 359.517 49.299,359.667 49.524,359.667 49.667 C 359.667 49.810,359.813 50.032,359.991 50.160 C 360.169 50.289,360.280 50.451,360.237 50.521 C 360.194 50.591,360.423 50.912,360.746 51.235 C 361.069 51.558,361.333 51.905,361.333 52.007 C 361.333 52.243,364.832 55.723,364.951 55.604 C 365.000 55.555,365.323 55.809,365.668 56.168 C 366.013 56.527,366.397 56.842,366.521 56.869 C 366.645 56.895,366.946 57.123,367.190 57.375 C 367.434 57.627,367.737 57.833,367.863 57.833 C 367.990 57.833,368.201 57.983,368.333 58.167 C 368.465 58.350,368.690 58.500,368.833 58.500 C 368.976 58.500,369.201 58.650,369.333 58.833 C 369.465 59.017,369.690 59.167,369.833 59.167 C 369.976 59.167,370.201 59.317,370.333 59.500 C 370.465 59.683,370.707 59.833,370.870 59.833 C 371.033 59.833,371.167 59.908,371.167 60.000 C 371.167 60.092,371.300 60.167,371.463 60.167 C 371.626 60.167,371.868 60.317,372.000 60.500 C 372.132 60.683,372.374 60.833,372.537 60.833 C 372.700 60.833,372.833 60.908,372.833 61.000 C 372.833 61.092,372.983 61.167,373.167 61.167 C 373.350 61.167,373.500 61.242,373.500 61.333 C 373.500 61.425,373.616 61.500,373.757 61.500 C 373.898 61.500,374.175 61.650,374.372 61.833 C 374.569 62.017,374.828 62.167,374.948 62.167 C 375.068 62.167,375.167 62.242,375.167 62.333 C 375.167 62.425,375.317 62.500,375.500 62.500 C 375.683 62.500,375.833 62.575,375.833 62.667 C 375.833 62.758,375.983 62.833,376.167 62.833 C 376.350 62.833,376.500 62.908,376.500 63.000 C 376.500 63.092,376.650 63.167,376.833 63.167 C 377.017 63.167,377.167 63.242,377.167 63.333 C 377.167 63.425,377.317 63.500,377.500 63.500 C 377.683 63.500,377.833 63.575,377.833 63.667 C 377.833 63.758,377.946 63.833,378.083 63.833 C 378.221 63.833,378.333 63.908,378.333 64.000 C 378.333 64.092,378.483 64.167,378.667 64.167 C 378.850 64.167,379.000 64.242,379.000 64.333 C 379.000 64.425,379.133 64.500,379.297 64.500 C 379.460 64.500,379.701 64.650,379.833 64.833 C 379.965 65.017,380.207 65.167,380.370 65.167 C 380.533 65.167,380.667 65.242,380.667 65.333 C 380.667 65.425,380.787 65.500,380.933 65.500 C 381.080 65.500,381.410 65.725,381.667 66.000 C 381.924 66.275,382.219 66.500,382.324 66.500 C 382.705 66.500,385.667 69.676,385.667 70.085 C 385.667 70.222,385.742 70.333,385.833 70.333 C 385.925 70.333,386.000 70.483,386.000 70.667 C 386.000 70.850,386.075 71.000,386.167 71.000 C 386.258 71.000,386.333 71.225,386.333 71.500 C 386.333 71.775,386.408 72.000,386.500 72.000 C 386.592 72.000,386.667 72.375,386.667 72.833 C 386.667 73.292,386.742 73.667,386.833 73.667 C 386.933 73.667,387.000 74.330,387.000 75.323 C 387.000 76.248,386.926 77.026,386.833 77.083 C 386.742 77.140,386.667 77.515,386.667 77.917 C 386.667 78.318,386.592 78.693,386.500 78.750 C 386.408 78.807,386.333 79.032,386.333 79.250 C 386.333 79.468,386.258 79.693,386.167 79.750 C 386.075 79.807,386.000 80.036,386.000 80.260 C 386.000 80.484,385.925 80.667,385.833 80.667 C 385.742 80.667,385.667 80.779,385.667 80.917 C 385.667 81.054,385.610 81.167,385.541 81.167 C 385.390 81.167,384.908 82.192,384.967 82.387 C 384.990 82.463,384.931 82.477,384.837 82.419 C 384.744 82.361,384.667 82.395,384.667 82.494 C 384.667 82.750,382.885 84.500,382.624 84.500 C 382.504 84.500,382.299 84.650,382.167 84.833 C 382.035 85.017,381.793 85.167,381.630 85.167 C 381.467 85.167,381.333 85.242,381.333 85.333 C 381.333 85.425,381.183 85.500,381.000 85.500 C 380.817 85.500,380.667 85.575,380.667 85.667 C 380.667 85.758,380.442 85.833,380.167 85.833 C 379.892 85.833,379.667 85.908,379.667 86.000 C 379.667 86.092,379.442 86.167,379.167 86.167 C 378.892 86.167,378.667 86.242,378.667 86.333 C 378.667 86.438,377.583 86.500,375.750 86.500 C 373.917 86.500,372.833 86.438,372.833 86.333 C 372.833 86.242,372.533 86.167,372.167 86.167 C 371.800 86.167,371.500 86.092,371.500 86.000 C 371.500 85.908,371.275 85.833,371.000 85.833 C 370.725 85.833,370.500 85.758,370.500 85.667 C 370.500 85.575,370.271 85.500,369.990 85.500 C 369.693 85.500,369.523 85.431,369.583 85.333 C 369.642 85.238,369.498 85.167,369.250 85.167 C 369.002 85.167,368.858 85.095,368.917 85.000 C 368.973 84.908,368.903 84.833,368.760 84.833 C 368.617 84.833,368.500 84.758,368.500 84.667 C 368.500 84.575,368.367 84.500,368.203 84.500 C 368.040 84.500,367.799 84.350,367.667 84.167 C 367.535 83.983,367.328 83.833,367.208 83.833 C 366.904 83.833,365.833 82.734,365.833 82.422 C 365.833 82.282,365.775 82.167,365.703 82.167 C 365.586 82.167,365.465 81.808,364.995 80.083 C 364.684 78.941,364.502 77.834,364.398 76.458 L 364.287 75.000 360.644 75.000 L 357.000 75.000 357.000 81.845 C 357.000 89.417,356.963 89.167,358.071 89.167 C 358.399 89.167,358.667 89.242,358.667 89.333 C 358.667 89.425,358.967 89.500,359.333 89.500 C 359.700 89.500,360.000 89.575,360.000 89.667 C 360.000 89.758,360.296 89.833,360.657 89.833 C 361.018 89.833,361.360 89.908,361.417 90.000 C 361.473 90.092,361.890 90.167,362.343 90.167 C 362.796 90.167,363.167 90.242,363.167 90.333 C 363.167 90.425,363.542 90.500,364.000 90.500 C 364.458 90.500,364.833 90.575,364.833 90.667 C 364.833 90.759,365.274 90.833,365.823 90.833 C 366.368 90.833,366.860 90.908,366.917 91.000 C 366.973 91.092,367.573 91.167,368.250 91.167 C 368.927 91.167,369.527 91.242,369.583 91.333 C 369.649 91.439,371.807 91.500,375.510 91.500 C 379.281 91.500,381.333 91.441,381.333 91.333 C 381.333 91.241,381.778 91.167,382.333 91.167 C 382.889 91.167,383.333 91.093,383.333 91.000 C 383.333 90.908,383.708 90.833,384.167 90.833 C 384.625 90.833,385.000 90.758,385.000 90.667 C 385.000 90.575,385.225 90.500,385.500 90.500 C 385.775 90.500,386.000 90.425,386.000 90.333 C 386.000 90.242,386.258 90.167,386.573 90.167 C 386.889 90.167,387.193 90.092,387.250 90.000 C 387.307 89.908,387.499 89.833,387.677 89.833 C 387.854 89.833,388.000 89.758,388.000 89.667 C 388.000 89.575,388.225 89.500,388.500 89.500 C 388.775 89.500,389.000 89.425,389.000 89.333 C 389.000 89.242,389.150 89.167,389.333 89.167 C 389.517 89.167,389.667 89.092,389.667 89.000 C 389.667 88.908,389.817 88.833,390.000 88.833 C 390.183 88.833,390.333 88.758,390.333 88.667 C 390.333 88.575,390.483 88.500,390.667 88.500 C 390.850 88.500,391.000 88.425,391.000 88.333 C 391.000 88.242,391.098 88.167,391.219 88.167 C 391.339 88.167,391.598 88.017,391.795 87.833 C 391.992 87.650,392.238 87.500,392.343 87.500 C 392.447 87.500,392.743 87.275,393.000 87.000 C 393.257 86.725,393.550 86.500,393.652 86.500 C 394.032 86.500,396.644 83.929,397.030 83.175 C 397.150 82.941,397.379 82.629,397.541 82.480 C 397.702 82.332,397.833 82.123,397.833 82.015 C 397.833 81.907,397.983 81.658,398.167 81.462 C 398.350 81.265,398.500 81.005,398.500 80.885 C 398.500 80.765,398.575 80.667,398.667 80.667 C 398.758 80.667,398.833 80.517,398.833 80.333 C 398.833 80.150,398.908 80.000,399.000 80.000 C 399.092 80.000,399.167 79.775,399.167 79.500 C 399.167 79.225,399.242 79.000,399.333 79.000 C 399.425 79.000,399.500 78.781,399.500 78.514 C 399.500 78.247,399.594 77.997,399.708 77.958 C 399.870 77.905,399.917 76.570,399.917 72.036 C 399.917 67.576,399.867 66.134,399.708 65.975 C 399.594 65.860,399.500 65.599,399.500 65.393 C 399.500 65.188,399.425 64.973,399.333 64.917 C 399.242 64.860,399.167 64.668,399.167 64.490 C 399.167 64.312,399.092 64.167,399.000 64.167 C 398.908 64.167,398.833 64.017,398.833 63.833 C 398.833 63.650,398.758 63.500,398.667 63.500 C 398.575 63.500,398.500 63.350,398.500 63.167 C 398.500 62.983,398.425 62.833,398.333 62.833 C 398.242 62.833,398.167 62.732,398.167 62.608 C 398.167 62.484,397.942 62.147,397.667 61.860 C 397.392 61.572,397.167 61.266,397.167 61.181 C 397.167 60.873,393.925 57.797,393.767 57.955 C 393.716 58.006,393.627 57.924,393.569 57.774 C 393.512 57.623,393.390 57.500,393.299 57.500 C 393.208 57.500,392.924 57.275,392.667 57.000 C 392.410 56.725,392.096 56.500,391.970 56.500 C 391.844 56.500,391.632 56.350,391.500 56.167 C 391.368 55.983,391.163 55.833,391.045 55.833 C 390.927 55.833,390.595 55.608,390.307 55.333 C 390.019 55.058,389.717 54.833,389.635 54.833 C 389.553 54.833,389.325 54.683,389.128 54.500 C 388.931 54.317,388.672 54.167,388.552 54.167 C 388.432 54.167,388.333 54.092,388.333 54.000 C 388.333 53.908,388.200 53.833,388.037 53.833 C 387.874 53.833,387.632 53.683,387.500 53.500 C 387.368 53.317,387.126 53.167,386.963 53.167 C 386.800 53.167,386.667 53.092,386.667 53.000 C 386.667 52.908,386.550 52.833,386.407 52.833 C 386.264 52.833,386.193 52.758,386.250 52.667 C 386.307 52.575,386.205 52.500,386.024 52.500 C 385.843 52.500,385.669 52.444,385.639 52.375 C 385.559 52.195,383.847 51.101,383.208 50.822 C 382.910 50.692,382.667 50.540,382.667 50.486 C 382.667 50.431,382.310 50.206,381.875 49.987 C 381.440 49.767,381.046 49.549,381.000 49.502 C 380.954 49.455,380.692 49.304,380.417 49.167 C 380.142 49.029,379.879 48.880,379.833 48.834 C 379.649 48.648,378.991 48.333,378.789 48.333 C 378.671 48.333,378.465 48.183,378.333 48.000 C 378.201 47.817,377.960 47.667,377.797 47.667 C 377.633 47.667,377.500 47.592,377.500 47.500 C 377.500 47.408,377.367 47.333,377.203 47.333 C 377.040 47.333,376.799 47.183,376.667 47.000 C 376.535 46.817,376.323 46.667,376.197 46.667 C 376.070 46.667,375.757 46.442,375.500 46.167 C 375.243 45.892,374.950 45.667,374.848 45.667 C 374.565 45.667,371.500 42.540,371.500 42.252 C 371.500 42.113,371.425 42.000,371.333 42.000 C 371.242 42.000,371.167 41.850,371.167 41.667 C 371.167 41.483,371.092 41.333,371.000 41.333 C 370.908 41.333,370.833 41.108,370.833 40.833 C 370.833 40.558,370.758 40.333,370.667 40.333 C 370.563 40.333,370.500 39.417,370.500 37.917 C 370.500 36.417,370.563 35.500,370.667 35.500 C 370.758 35.500,370.833 35.275,370.833 35.000 C 370.833 34.725,370.908 34.500,371.000 34.500 C 371.092 34.500,371.167 34.402,371.167 34.283 C 371.167 33.977,371.559 33.170,371.708 33.168 C 371.777 33.167,371.833 33.017,371.833 32.833 C 371.833 32.650,371.896 32.500,371.972 32.500 C 372.048 32.500,372.217 32.295,372.347 32.044 C 372.679 31.404,374.272 29.833,374.590 29.833 C 374.734 29.833,374.807 29.758,374.750 29.667 C 374.693 29.575,374.764 29.500,374.907 29.500 C 375.050 29.500,375.167 29.425,375.167 29.333 C 375.167 29.242,375.317 29.167,375.500 29.167 C 375.683 29.167,375.833 29.092,375.833 29.000 C 375.833 28.908,375.983 28.833,376.167 28.833 C 376.350 28.833,376.500 28.758,376.500 28.667 C 376.500 28.575,376.725 28.500,377.000 28.500 C 377.275 28.500,377.500 28.425,377.500 28.333 C 377.500 28.229,378.472 28.167,380.083 28.167 C 381.694 28.167,382.667 28.229,382.667 28.333 C 382.667 28.425,382.967 28.500,383.333 28.500 C 383.700 28.500,384.000 28.575,384.000 28.667 C 384.000 28.758,384.150 28.833,384.333 28.833 C 384.517 28.833,384.667 28.908,384.667 29.000 C 384.667 29.092,384.817 29.167,385.000 29.167 C 385.183 29.167,385.333 29.242,385.333 29.333 C 385.333 29.425,385.467 29.500,385.630 29.500 C 385.793 29.500,386.035 29.650,386.167 29.833 C 386.299 30.017,386.505 30.167,386.625 30.167 C 386.928 30.167,388.333 31.602,388.333 31.912 C 388.333 32.052,388.392 32.167,388.464 32.167 C 388.535 32.167,388.611 32.369,388.631 32.616 C 388.652 32.863,388.728 33.106,388.801 33.157 C 388.873 33.208,388.955 33.587,388.981 34.000 C 389.007 34.412,389.097 34.775,389.181 34.806 C 389.265 34.836,389.333 35.552,389.333 36.397 C 389.333 37.242,389.403 38.005,389.489 38.092 C 389.574 38.179,389.668 38.550,389.697 38.917 L 389.750 39.583 392.917 39.631 C 394.658 39.657,396.252 39.637,396.458 39.586 L 396.833 39.494 396.833 32.497 L 396.833 25.500 396.167 25.500 C 395.800 25.500,395.500 25.425,395.500 25.333 C 395.500 25.242,395.200 25.167,394.833 25.167 C 394.467 25.167,394.167 25.092,394.167 25.000 C 394.167 24.908,393.829 24.833,393.417 24.833 C 393.004 24.833,392.667 24.758,392.667 24.667 C 392.667 24.575,392.292 24.500,391.833 24.500 C 391.375 24.500,391.000 24.425,391.000 24.333 C 391.000 24.242,390.625 24.167,390.167 24.167 C 389.708 24.167,389.333 24.092,389.333 24.000 C 389.333 23.908,388.963 23.833,388.510 23.833 C 388.057 23.833,387.640 23.758,387.583 23.667 C 387.527 23.575,386.922 23.500,386.240 23.500 C 385.524 23.500,385.000 23.430,385.000 23.333 C 385.000 23.226,383.059 23.167,379.510 23.167 C 376.030 23.167,373.982 23.228,373.917 23.333 M177.708 24.416 C 177.594 24.546,177.500 24.714,177.500 24.789 C 177.500 24.864,177.277 25.373,177.005 25.921 C 176.733 26.469,176.508 27.048,176.505 27.208 C 176.502 27.369,176.425 27.500,176.333 27.500 C 176.242 27.500,176.167 27.650,176.167 27.833 C 176.167 28.017,176.092 28.167,176.000 28.167 C 175.908 28.167,175.833 28.317,175.833 28.500 C 175.833 28.683,175.758 28.833,175.667 28.833 C 175.575 28.833,175.500 28.944,175.500 29.078 C 175.500 29.213,175.350 29.590,175.167 29.917 C 174.983 30.243,174.833 30.658,174.833 30.838 C 174.833 31.019,174.758 31.167,174.667 31.167 C 174.575 31.167,174.500 31.317,174.500 31.500 C 174.500 31.683,174.425 31.833,174.333 31.833 C 174.242 31.833,174.167 31.983,174.167 32.167 C 174.167 32.350,174.092 32.500,174.000 32.500 C 173.908 32.500,173.833 32.605,173.833 32.734 C 173.833 32.936,173.603 33.467,172.979 34.706 C 172.899 34.865,172.833 35.109,172.833 35.248 C 172.833 35.386,172.758 35.500,172.667 35.500 C 172.575 35.500,172.500 35.646,172.500 35.823 C 172.500 36.001,172.425 36.193,172.333 36.250 C 172.242 36.307,172.167 36.499,172.167 36.677 C 172.167 36.854,172.092 37.000,172.000 37.000 C 171.908 37.000,171.833 37.150,171.833 37.333 C 171.833 37.517,171.758 37.667,171.667 37.667 C 171.575 37.667,171.500 37.817,171.500 38.000 C 171.500 38.183,171.425 38.333,171.333 38.333 C 171.242 38.333,171.167 38.558,171.167 38.833 C 171.167 39.108,171.092 39.333,171.000 39.333 C 170.908 39.333,170.833 39.483,170.833 39.667 C 170.833 39.850,170.758 40.000,170.667 40.000 C 170.575 40.000,170.500 40.150,170.500 40.333 C 170.500 40.517,170.425 40.667,170.333 40.667 C 170.242 40.667,170.167 40.817,170.167 41.000 C 170.167 41.183,170.092 41.333,170.000 41.333 C 169.908 41.333,169.833 41.483,169.833 41.667 C 169.833 41.850,169.758 42.000,169.667 42.000 C 169.575 42.000,169.500 42.146,169.500 42.323 C 169.500 42.501,169.425 42.693,169.333 42.750 C 169.242 42.807,169.167 43.036,169.167 43.260 C 169.167 43.484,169.092 43.667,169.000 43.667 C 168.908 43.667,168.833 43.817,168.833 44.000 C 168.833 44.183,168.758 44.333,168.667 44.333 C 168.575 44.333,168.500 44.483,168.500 44.667 C 168.500 44.850,168.425 45.000,168.333 45.000 C 168.242 45.000,168.167 45.150,168.167 45.333 C 168.167 45.517,168.092 45.667,168.000 45.667 C 167.908 45.667,167.833 45.812,167.833 45.990 C 167.833 46.168,167.758 46.360,167.667 46.417 C 167.575 46.473,167.500 46.703,167.500 46.927 C 167.500 47.150,167.425 47.333,167.333 47.333 C 167.242 47.333,167.167 47.483,167.167 47.667 C 167.167 47.850,167.092 48.000,167.000 48.000 C 166.908 48.000,166.833 48.150,166.833 48.333 C 166.833 48.517,166.758 48.667,166.667 48.667 C 166.575 48.667,166.500 48.817,166.500 49.000 C 166.500 49.183,166.425 49.333,166.333 49.333 C 166.242 49.333,166.167 49.521,166.167 49.750 C 166.167 49.979,166.092 50.167,166.000 50.167 C 165.908 50.167,165.833 50.302,165.833 50.467 C 165.833 50.839,165.461 51.664,165.292 51.665 C 165.223 51.666,165.167 51.854,165.167 52.083 C 165.167 52.313,165.092 52.500,165.000 52.500 C 164.908 52.500,164.833 52.650,164.833 52.833 C 164.833 53.017,164.758 53.167,164.667 53.167 C 164.575 53.167,164.500 53.310,164.500 53.486 C 164.500 53.662,164.422 53.832,164.326 53.864 C 164.230 53.895,164.139 54.087,164.124 54.290 C 164.109 54.492,164.000 54.695,163.882 54.740 C 163.763 54.786,163.667 54.975,163.667 55.161 C 163.667 55.348,163.592 55.500,163.500 55.500 C 163.408 55.500,163.333 55.650,163.333 55.833 C 163.333 56.017,163.258 56.167,163.167 56.167 C 163.075 56.167,163.000 56.262,163.000 56.379 C 163.000 56.496,162.777 57.040,162.505 57.588 C 162.233 58.135,162.008 58.715,162.005 58.875 C 162.002 59.035,161.925 59.167,161.833 59.167 C 161.742 59.167,161.667 59.317,161.667 59.500 C 161.667 59.683,161.592 59.833,161.500 59.833 C 161.408 59.833,161.333 59.983,161.333 60.167 C 161.333 60.350,161.258 60.500,161.167 60.500 C 161.075 60.500,161.000 60.610,161.000 60.745 C 161.000 60.880,160.850 61.257,160.667 61.583 C 160.483 61.910,160.333 62.325,160.333 62.505 C 160.333 62.686,160.258 62.833,160.167 62.833 C 160.075 62.833,160.000 62.983,160.000 63.167 C 160.000 63.350,159.925 63.500,159.833 63.500 C 159.742 63.500,159.667 63.650,159.667 63.833 C 159.667 64.017,159.592 64.167,159.500 64.167 C 159.408 64.167,159.333 64.312,159.333 64.490 C 159.333 64.668,159.258 64.860,159.167 64.917 C 159.075 64.973,159.000 65.165,159.000 65.343 C 159.000 65.521,158.925 65.667,158.833 65.667 C 158.742 65.667,158.667 65.812,158.667 65.990 C 158.667 66.168,158.592 66.360,158.500 66.417 C 158.408 66.473,158.333 66.703,158.333 66.927 C 158.333 67.150,158.258 67.333,158.167 67.333 C 158.075 67.333,158.000 67.483,158.000 67.667 C 158.000 67.850,157.925 68.000,157.833 68.000 C 157.742 68.000,157.667 68.150,157.667 68.333 C 157.667 68.517,157.592 68.667,157.500 68.667 C 157.408 68.667,157.333 68.817,157.333 69.000 C 157.333 69.183,157.258 69.333,157.167 69.333 C 157.075 69.333,157.000 69.479,157.000 69.657 C 157.000 69.835,156.925 70.027,156.833 70.083 C 156.742 70.140,156.667 70.369,156.667 70.593 C 156.667 70.817,156.592 71.000,156.500 71.000 C 156.408 71.000,156.333 71.150,156.333 71.333 C 156.333 71.517,156.258 71.667,156.167 71.667 C 156.075 71.667,156.000 71.817,156.000 72.000 C 156.000 72.183,155.925 72.333,155.833 72.333 C 155.742 72.333,155.667 72.483,155.667 72.667 C 155.667 72.850,155.592 73.000,155.500 73.000 C 155.408 73.000,155.333 73.150,155.333 73.333 C 155.333 73.517,155.258 73.667,155.167 73.667 C 155.075 73.667,155.000 73.892,155.000 74.167 C 155.000 74.442,154.925 74.667,154.833 74.667 C 154.742 74.667,154.667 74.817,154.667 75.000 C 154.667 75.183,154.592 75.333,154.500 75.333 C 154.408 75.333,154.333 75.483,154.333 75.667 C 154.333 75.850,154.258 76.000,154.167 76.000 C 154.075 76.000,154.000 76.150,154.000 76.333 C 154.000 76.517,153.925 76.667,153.833 76.667 C 153.742 76.667,153.667 76.817,153.667 77.000 C 153.667 77.183,153.592 77.333,153.500 77.333 C 153.408 77.333,153.333 77.479,153.333 77.657 C 153.333 77.835,153.258 78.027,153.167 78.083 C 153.075 78.140,153.000 78.369,153.000 78.593 C 153.000 78.817,152.925 79.000,152.833 79.000 C 152.742 79.000,152.667 79.150,152.667 79.333 C 152.667 79.517,152.592 79.667,152.500 79.667 C 152.408 79.667,152.333 79.817,152.333 80.000 C 152.333 80.183,152.258 80.333,152.167 80.333 C 152.075 80.333,152.000 80.483,152.000 80.667 C 152.000 80.850,151.925 81.000,151.833 81.000 C 151.742 81.000,151.667 81.150,151.667 81.333 C 151.667 81.517,151.592 81.667,151.500 81.667 C 151.408 81.667,151.333 81.859,151.333 82.093 C 151.333 82.335,151.261 82.475,151.167 82.417 C 151.075 82.360,151.000 82.431,151.000 82.573 C 151.000 82.716,150.925 82.833,150.833 82.833 C 150.742 82.833,150.667 82.948,150.667 83.089 C 150.667 83.374,149.608 84.500,149.339 84.500 C 149.244 84.500,149.167 84.575,149.167 84.667 C 149.167 84.758,148.909 84.833,148.593 84.833 C 148.278 84.833,147.973 84.908,147.917 85.000 C 147.854 85.101,146.637 85.167,144.823 85.167 C 142.941 85.167,141.833 85.105,141.833 85.000 C 141.833 84.908,141.533 84.833,141.167 84.833 C 140.800 84.833,140.500 84.758,140.500 84.667 C 140.500 84.575,140.384 84.500,140.242 84.500 C 139.904 84.500,138.012 82.560,136.750 80.920 C 136.200 80.205,135.581 79.446,135.375 79.234 C 135.169 79.022,135.000 78.781,135.000 78.699 C 135.000 78.617,134.775 78.314,134.500 78.026 C 134.225 77.738,134.000 77.423,134.000 77.325 C 134.000 77.227,133.925 77.193,133.833 77.250 C 133.742 77.307,133.667 77.215,133.667 77.047 C 133.667 76.878,133.517 76.632,133.333 76.500 C 133.150 76.368,133.000 76.156,133.000 76.030 C 133.000 75.904,132.775 75.590,132.500 75.333 C 132.225 75.076,132.000 74.763,132.000 74.637 C 132.000 74.510,131.850 74.299,131.667 74.167 C 131.483 74.035,131.333 73.823,131.333 73.697 C 131.333 73.570,131.108 73.257,130.833 73.000 C 130.558 72.743,130.333 72.430,130.333 72.303 C 130.333 72.177,130.183 71.965,130.000 71.833 C 129.817 71.701,129.667 71.508,129.667 71.405 C 129.667 71.301,129.442 70.981,129.167 70.693 C 128.892 70.405,128.667 70.073,128.667 69.955 C 128.667 69.837,128.517 69.632,128.333 69.500 C 128.150 69.368,128.000 69.175,128.000 69.071 C 128.000 68.968,127.775 68.647,127.500 68.360 C 127.225 68.072,127.000 67.762,127.000 67.670 C 127.000 67.522,126.778 67.207,126.250 66.606 C 126.158 66.502,125.977 66.210,125.847 65.958 C 125.717 65.706,125.548 65.500,125.472 65.500 C 125.396 65.500,125.333 65.387,125.333 65.250 C 125.333 65.112,125.258 65.000,125.167 65.000 C 125.075 65.000,125.000 64.904,125.000 64.787 C 125.000 64.670,124.850 64.465,124.667 64.333 C 124.483 64.201,124.333 64.011,124.333 63.911 C 124.333 63.811,124.200 63.584,124.037 63.406 C 123.874 63.229,123.558 62.821,123.333 62.500 C 122.895 61.873,122.869 61.838,122.284 61.083 C 122.070 60.808,121.738 60.355,121.545 60.077 L 121.194 59.570 121.639 59.534 C 121.883 59.514,122.108 59.423,122.139 59.332 C 122.169 59.241,122.294 59.167,122.415 59.167 C 122.682 59.167,124.061 58.467,124.139 58.292 C 124.169 58.223,124.301 58.167,124.431 58.167 C 124.560 58.167,124.667 58.092,124.667 58.000 C 124.667 57.908,124.800 57.833,124.963 57.833 C 125.126 57.833,125.368 57.683,125.500 57.500 C 125.632 57.317,125.818 57.167,125.913 57.167 C 126.462 57.167,129.756 53.814,130.211 52.792 C 130.323 52.540,130.471 52.333,130.541 52.333 C 130.610 52.333,130.667 52.200,130.667 52.037 C 130.667 51.874,130.817 51.632,131.000 51.500 C 131.183 51.368,131.333 51.126,131.333 50.963 C 131.333 50.800,131.408 50.667,131.500 50.667 C 131.592 50.667,131.667 50.442,131.667 50.167 C 131.667 49.892,131.742 49.667,131.833 49.667 C 131.925 49.667,132.000 49.517,132.000 49.333 C 132.000 49.150,132.075 49.000,132.167 49.000 C 132.258 49.000,132.333 48.775,132.333 48.500 C 132.333 48.225,132.408 48.000,132.500 48.000 C 132.592 48.000,132.667 47.700,132.667 47.333 C 132.667 46.967,132.742 46.667,132.833 46.667 C 132.926 46.667,133.000 46.219,133.000 45.657 C 133.000 45.026,133.063 44.686,133.167 44.750 C 133.276 44.817,133.333 43.613,133.333 41.260 C 133.333 38.976,133.273 37.667,133.167 37.667 C 133.075 37.667,133.000 37.296,133.000 36.843 C 133.000 36.390,132.925 35.973,132.833 35.917 C 132.742 35.860,132.667 35.551,132.667 35.230 C 132.667 34.884,132.599 34.689,132.500 34.750 C 132.403 34.810,132.333 34.641,132.333 34.343 C 132.333 34.063,132.258 33.833,132.167 33.833 C 132.075 33.833,132.000 33.660,132.000 33.448 C 132.000 33.236,131.850 32.902,131.667 32.705 C 131.483 32.508,131.333 32.232,131.333 32.090 C 131.333 31.949,131.258 31.833,131.167 31.833 C 131.075 31.833,131.000 31.713,131.000 31.567 C 131.000 31.420,130.775 31.090,130.500 30.833 C 130.225 30.576,130.000 30.291,130.000 30.200 C 130.000 29.983,128.850 28.833,128.634 28.833 C 128.542 28.833,128.257 28.608,128.000 28.333 C 127.743 28.058,127.413 27.833,127.266 27.833 C 127.120 27.833,127.000 27.771,127.000 27.694 C 127.000 27.502,125.023 26.500,124.643 26.500 C 124.473 26.500,124.333 26.425,124.333 26.333 C 124.333 26.242,124.146 26.167,123.917 26.167 C 123.688 26.167,123.500 26.092,123.500 26.000 C 123.500 25.908,123.196 25.833,122.823 25.833 C 122.415 25.833,122.188 25.767,122.250 25.667 C 122.311 25.568,122.116 25.500,121.770 25.500 C 121.449 25.500,121.140 25.425,121.083 25.333 C 121.027 25.242,120.572 25.167,120.073 25.167 C 119.575 25.167,119.167 25.092,119.167 25.000 C 119.167 24.901,118.524 24.833,117.573 24.833 C 116.554 24.833,116.017 24.773,116.083 24.667 C 116.151 24.557,114.918 24.500,112.510 24.500 C 110.170 24.500,108.833 24.561,108.833 24.667 C 108.833 24.776,104.222 24.833,95.333 24.833 L 81.833 24.833 81.833 27.167 L 81.833 29.500 83.500 29.500 C 84.500 29.500,85.167 29.567,85.167 29.667 C 85.167 29.758,85.467 29.833,85.833 29.833 C 86.200 29.833,86.500 29.908,86.500 30.000 C 86.500 30.092,86.650 30.167,86.833 30.167 C 87.017 30.167,87.167 30.242,87.167 30.333 C 87.167 30.425,87.285 30.500,87.429 30.500 C 87.822 30.500,88.167 30.922,88.167 31.405 C 88.167 31.640,88.242 31.833,88.333 31.833 C 88.429 31.833,88.500 32.333,88.500 33.000 C 88.500 33.667,88.571 34.167,88.667 34.167 C 88.897 34.167,88.897 80.274,88.667 80.417 C 88.575 80.473,88.500 81.040,88.500 81.677 C 88.500 82.337,88.428 82.833,88.333 82.833 C 88.242 82.833,88.167 82.931,88.167 83.050 C 88.167 83.493,87.740 84.164,87.458 84.165 C 87.298 84.166,87.167 84.242,87.167 84.333 C 87.167 84.425,87.017 84.500,86.833 84.500 C 86.650 84.500,86.500 84.575,86.500 84.667 C 86.500 84.758,86.200 84.833,85.833 84.833 C 85.467 84.833,85.167 84.908,85.167 85.000 C 85.167 85.100,84.500 85.167,83.500 85.167 L 81.833 85.167 81.833 87.669 L 81.833 90.170 95.067 90.165 C 106.894 90.160,108.311 90.131,108.400 89.899 C 108.531 89.559,108.530 85.771,108.399 85.430 C 108.317 85.217,108.013 85.167,106.816 85.167 C 105.939 85.167,105.333 85.099,105.333 85.000 C 105.333 84.908,105.108 84.833,104.833 84.833 C 104.558 84.833,104.333 84.758,104.333 84.667 C 104.333 84.575,104.217 84.500,104.076 84.500 C 103.671 84.500,103.000 83.725,103.000 83.258 C 103.000 83.024,102.925 82.833,102.833 82.833 C 102.735 82.833,102.667 82.226,102.667 81.343 C 102.667 80.524,102.592 79.807,102.500 79.750 C 102.392 79.683,102.333 76.496,102.333 70.734 L 102.333 61.820 105.084 61.842 C 106.597 61.853,107.796 61.925,107.749 62.001 C 107.702 62.077,107.777 62.253,107.915 62.391 C 108.053 62.530,108.167 62.744,108.167 62.868 C 108.167 62.992,108.317 63.201,108.500 63.333 C 108.683 63.465,108.833 63.690,108.833 63.833 C 108.833 63.976,108.983 64.201,109.167 64.333 C 109.350 64.465,109.500 64.707,109.500 64.870 C 109.500 65.033,109.575 65.167,109.667 65.167 C 109.758 65.167,109.833 65.300,109.833 65.463 C 109.833 65.626,109.983 65.868,110.167 66.000 C 110.350 66.132,110.500 66.357,110.500 66.500 C 110.500 66.643,110.650 66.868,110.833 67.000 C 111.017 67.132,111.167 67.374,111.167 67.537 C 111.167 67.700,111.242 67.833,111.333 67.833 C 111.425 67.833,111.500 67.946,111.500 68.083 C 111.500 68.221,111.575 68.333,111.667 68.333 C 111.758 68.333,111.833 68.483,111.833 68.667 C 111.833 68.850,111.908 69.000,112.000 69.000 C 112.092 69.000,112.167 69.112,112.167 69.250 C 112.167 69.387,112.242 69.500,112.333 69.500 C 112.425 69.500,112.500 69.612,112.500 69.750 C 112.500 69.887,112.575 70.000,112.667 70.000 C 112.758 70.000,112.833 70.098,112.833 70.219 C 112.833 70.339,112.983 70.598,113.167 70.795 C 113.350 70.992,113.500 71.252,113.500 71.373 C 113.500 71.494,113.650 71.701,113.833 71.833 C 114.017 71.965,114.167 72.207,114.167 72.370 C 114.167 72.533,114.242 72.667,114.333 72.667 C 114.425 72.667,114.500 72.765,114.500 72.885 C 114.500 73.005,114.650 73.265,114.833 73.462 C 115.017 73.658,115.167 73.918,115.167 74.040 C 115.167 74.161,115.317 74.368,115.500 74.500 C 115.683 74.632,115.833 74.857,115.833 75.000 C 115.833 75.143,115.979 75.365,116.158 75.494 C 116.336 75.622,116.448 75.783,116.406 75.850 C 116.364 75.918,116.425 76.073,116.540 76.195 C 116.656 76.317,116.856 76.623,116.986 76.875 C 117.117 77.127,117.285 77.333,117.361 77.333 C 117.438 77.333,117.500 77.467,117.500 77.630 C 117.500 77.793,117.650 78.035,117.833 78.167 C 118.017 78.299,118.167 78.524,118.167 78.667 C 118.167 78.810,118.313 79.032,118.491 79.160 C 118.669 79.289,118.781 79.449,118.740 79.517 C 118.698 79.585,118.758 79.740,118.873 79.862 C 118.989 79.984,119.190 80.290,119.320 80.542 C 119.450 80.794,119.619 81.000,119.695 81.000 C 119.771 81.000,119.833 81.133,119.833 81.297 C 119.833 81.460,119.983 81.701,120.167 81.833 C 120.350 81.965,120.500 82.207,120.500 82.370 C 120.500 82.533,120.558 82.667,120.629 82.667 C 120.700 82.667,120.899 82.929,121.072 83.250 C 121.244 83.571,121.449 83.833,121.526 83.833 C 121.603 83.833,121.667 83.932,121.667 84.052 C 121.667 84.172,121.817 84.431,122.000 84.628 C 122.183 84.825,122.333 85.102,122.333 85.243 C 122.333 85.384,122.408 85.500,122.500 85.500 C 122.592 85.500,122.667 85.617,122.667 85.760 C 122.667 85.903,122.742 85.973,122.833 85.917 C 122.925 85.860,123.000 85.962,123.000 86.143 C 123.000 86.324,123.069 86.497,123.154 86.528 C 123.239 86.558,123.333 86.696,123.363 86.833 C 123.392 86.971,123.548 87.205,123.708 87.353 C 123.869 87.501,124.000 87.728,124.000 87.858 C 124.000 87.987,124.150 88.201,124.333 88.333 C 124.517 88.465,124.667 88.707,124.667 88.870 C 124.667 89.033,124.742 89.167,124.833 89.167 C 124.925 89.167,125.000 89.282,125.000 89.422 C 125.000 89.562,125.112 89.720,125.249 89.773 C 125.386 89.825,125.457 89.935,125.406 90.017 C 125.352 90.105,133.039 90.167,143.990 90.167 L 162.667 90.167 162.667 87.667 L 162.667 85.167 160.667 85.167 C 159.444 85.167,158.667 85.102,158.667 85.000 C 158.667 84.908,158.551 84.833,158.409 84.833 C 158.038 84.833,157.333 84.074,157.333 83.674 C 157.333 83.487,157.408 83.333,157.500 83.333 C 157.592 83.333,157.667 83.033,157.667 82.667 C 157.667 82.300,157.742 82.000,157.833 82.000 C 157.925 82.000,158.000 81.775,158.000 81.500 C 158.000 81.225,158.075 81.000,158.167 81.000 C 158.258 81.000,158.333 80.775,158.333 80.500 C 158.333 80.225,158.408 80.000,158.500 80.000 C 158.592 80.000,158.667 79.850,158.667 79.667 C 158.667 79.483,158.742 79.333,158.833 79.333 C 158.925 79.333,159.000 79.183,159.000 79.000 C 159.000 78.817,159.075 78.667,159.167 78.667 C 159.258 78.667,159.333 78.442,159.333 78.167 C 159.333 77.892,159.408 77.667,159.500 77.667 C 159.592 77.667,159.667 77.517,159.667 77.333 C 159.667 77.150,159.742 77.000,159.833 77.000 C 159.925 77.000,160.000 76.850,160.000 76.667 C 160.000 76.483,160.075 76.333,160.167 76.333 C 160.258 76.333,160.333 76.183,160.333 76.000 C 160.333 75.817,160.408 75.667,160.500 75.667 C 160.592 75.667,160.667 75.517,160.667 75.333 C 160.667 75.150,160.742 75.000,160.833 75.000 C 160.925 75.000,161.000 74.850,161.000 74.667 C 161.000 74.483,161.075 74.333,161.167 74.333 C 161.258 74.333,161.333 74.104,161.333 73.823 C 161.333 73.526,161.403 73.357,161.500 73.417 C 161.595 73.475,161.667 73.335,161.667 73.093 C 161.667 72.859,161.742 72.667,161.833 72.667 C 161.925 72.667,162.000 72.517,162.000 72.333 C 162.000 72.150,162.075 72.000,162.167 72.000 C 162.258 72.000,162.333 71.850,162.333 71.667 C 162.333 71.483,162.408 71.333,162.500 71.333 C 162.592 71.333,162.667 71.183,162.667 71.000 C 162.667 70.669,162.777 70.667,176.292 70.668 L 189.917 70.669 190.125 71.118 C 190.240 71.365,190.333 71.664,190.333 71.783 C 190.333 71.902,190.408 72.000,190.500 72.000 C 190.592 72.000,190.667 72.150,190.667 72.333 C 190.667 72.517,190.742 72.667,190.833 72.667 C 190.925 72.667,191.000 72.775,191.000 72.907 C 191.000 73.210,192.839 76.897,193.027 76.972 C 193.104 77.003,193.167 77.172,193.167 77.347 C 193.167 77.523,193.242 77.667,193.333 77.667 C 193.425 77.667,193.500 77.892,193.500 78.167 C 193.500 78.442,193.575 78.667,193.667 78.667 C 193.758 78.667,193.833 78.817,193.833 79.000 C 193.833 79.183,193.908 79.333,194.000 79.333 C 194.092 79.333,194.167 79.483,194.167 79.667 C 194.167 79.850,194.242 80.000,194.333 80.000 C 194.425 80.000,194.500 80.225,194.500 80.500 C 194.500 80.775,194.575 81.000,194.667 81.000 C 194.758 81.000,194.833 81.225,194.833 81.500 C 194.833 81.775,194.908 82.000,195.000 82.000 C 195.092 82.000,195.167 82.225,195.167 82.500 C 195.167 82.775,195.242 83.000,195.333 83.000 C 195.425 83.000,195.500 83.262,195.500 83.583 C 195.500 84.056,195.437 84.167,195.167 84.167 C 194.983 84.167,194.833 84.242,194.833 84.333 C 194.833 84.425,194.683 84.500,194.500 84.500 C 194.317 84.500,194.167 84.575,194.167 84.667 C 194.167 84.758,193.867 84.833,193.500 84.833 C 193.133 84.833,192.833 84.908,192.833 85.000 C 192.833 85.100,192.151 85.168,191.125 85.169 C 188.849 85.173,188.982 85.008,189.037 87.763 L 189.083 90.083 202.875 90.128 L 216.667 90.172 216.667 87.669 L 216.667 85.167 215.343 85.167 C 214.615 85.167,213.973 85.092,213.917 85.000 C 213.860 84.908,213.556 84.833,213.240 84.833 C 212.925 84.833,212.667 84.758,212.667 84.667 C 212.667 84.575,212.610 84.517,212.542 84.537 C 212.269 84.618,211.333 84.070,211.333 83.829 C 211.333 83.689,211.183 83.465,211.000 83.333 C 210.817 83.201,210.667 82.960,210.667 82.797 C 210.667 82.633,210.592 82.500,210.500 82.500 C 210.408 82.500,210.333 82.356,210.333 82.181 C 210.333 82.005,210.277 81.836,210.208 81.806 C 210.140 81.775,209.897 81.375,209.669 80.917 C 209.441 80.458,209.213 80.046,209.162 80.000 C 209.111 79.954,208.709 79.185,208.269 78.292 C 207.829 77.398,207.417 76.667,207.354 76.667 C 207.291 76.667,207.222 76.460,207.202 76.208 C 207.181 75.956,207.089 75.725,206.999 75.694 C 206.908 75.664,206.833 75.495,206.833 75.319 C 206.833 75.144,206.758 75.000,206.667 75.000 C 206.575 75.000,206.500 74.850,206.500 74.667 C 206.500 74.483,206.425 74.333,206.333 74.333 C 206.242 74.333,206.167 74.183,206.167 74.000 C 206.167 73.817,206.092 73.667,206.000 73.667 C 205.908 73.667,205.833 73.517,205.833 73.333 C 205.833 73.150,205.758 73.000,205.667 73.000 C 205.575 73.000,205.500 72.850,205.500 72.667 C 205.500 72.483,205.425 72.333,205.333 72.333 C 205.242 72.333,205.167 72.108,205.167 71.833 C 205.167 71.558,205.092 71.333,205.000 71.333 C 204.908 71.333,204.833 71.183,204.833 71.000 C 204.833 70.817,204.758 70.667,204.667 70.667 C 204.575 70.667,204.500 70.517,204.500 70.333 C 204.500 70.150,204.425 70.000,204.333 70.000 C 204.242 70.000,204.167 69.850,204.167 69.667 C 204.167 69.483,204.092 69.333,204.000 69.333 C 203.908 69.333,203.833 69.183,203.833 69.000 C 203.833 68.817,203.758 68.667,203.667 68.667 C 203.575 68.667,203.500 68.484,203.500 68.260 C 203.500 68.036,203.425 67.807,203.333 67.750 C 203.242 67.693,203.167 67.501,203.167 67.323 C 203.167 67.146,203.092 67.000,203.000 67.000 C 202.908 67.000,202.833 66.854,202.833 66.677 C 202.833 66.499,202.758 66.307,202.667 66.250 C 202.575 66.193,202.500 66.001,202.500 65.823 C 202.500 65.646,202.425 65.500,202.333 65.500 C 202.242 65.500,202.167 65.350,202.167 65.167 C 202.167 64.983,202.092 64.833,202.000 64.833 C 201.908 64.833,201.833 64.683,201.833 64.500 C 201.833 64.317,201.758 64.167,201.667 64.167 C 201.575 64.167,201.500 64.017,201.500 63.833 C 201.500 63.650,201.425 63.500,201.333 63.500 C 201.242 63.500,201.167 63.317,201.167 63.093 C 201.167 62.869,201.092 62.640,201.000 62.583 C 200.908 62.527,200.833 62.335,200.833 62.157 C 200.833 61.979,200.758 61.833,200.667 61.833 C 200.575 61.833,200.500 61.683,200.500 61.500 C 200.500 61.317,200.425 61.167,200.333 61.167 C 200.242 61.167,200.167 61.017,200.167 60.833 C 200.167 60.650,200.092 60.500,200.000 60.500 C 199.908 60.500,199.833 60.350,199.833 60.167 C 199.833 59.983,199.758 59.833,199.667 59.833 C 199.575 59.833,199.500 59.683,199.500 59.500 C 199.500 59.317,199.425 59.167,199.333 59.167 C 199.242 59.167,199.167 58.984,199.167 58.760 C 199.167 58.536,199.092 58.307,199.000 58.250 C 198.908 58.193,198.833 58.001,198.833 57.823 C 198.833 57.646,198.758 57.500,198.667 57.500 C 198.575 57.500,198.500 57.350,198.500 57.167 C 198.500 56.983,198.425 56.833,198.333 56.833 C 198.242 56.833,198.167 56.683,198.167 56.500 C 198.167 56.317,198.092 56.167,198.000 56.167 C 197.908 56.167,197.833 56.017,197.833 55.833 C 197.833 55.650,197.758 55.500,197.667 55.500 C 197.575 55.500,197.500 55.350,197.500 55.167 C 197.500 54.983,197.425 54.833,197.333 54.833 C 197.242 54.833,197.176 54.777,197.186 54.708 C 197.252 54.295,197.142 53.829,197.000 53.917 C 196.905 53.975,196.833 53.835,196.833 53.593 C 196.833 53.359,196.758 53.167,196.667 53.167 C 196.575 53.167,196.500 53.017,196.500 52.833 C 196.500 52.650,196.425 52.500,196.333 52.500 C 196.242 52.500,196.167 52.395,196.167 52.266 C 196.167 52.137,196.006 51.706,195.810 51.307 C 195.613 50.909,195.393 50.433,195.320 50.250 C 195.247 50.067,194.695 48.888,194.094 47.631 C 193.492 46.374,193.000 45.267,193.000 45.173 C 193.000 45.078,192.925 45.000,192.833 45.000 C 192.742 45.000,192.667 44.850,192.667 44.667 C 192.667 44.483,192.592 44.333,192.500 44.333 C 192.408 44.333,192.333 44.183,192.333 44.000 C 192.333 43.817,192.258 43.667,192.167 43.667 C 192.075 43.667,192.000 43.517,192.000 43.333 C 192.000 43.150,191.925 43.000,191.833 43.000 C 191.742 43.000,191.667 42.850,191.667 42.667 C 191.667 42.483,191.592 42.333,191.500 42.333 C 191.408 42.333,191.333 42.150,191.333 41.927 C 191.333 41.703,191.258 41.473,191.167 41.417 C 191.075 41.360,191.000 41.168,191.000 40.990 C 191.000 40.812,190.925 40.667,190.833 40.667 C 190.742 40.667,190.667 40.517,190.667 40.333 C 190.667 40.150,190.592 40.000,190.500 40.000 C 190.408 40.000,190.333 39.850,190.333 39.667 C 190.333 39.483,190.258 39.333,190.167 39.333 C 190.075 39.333,190.000 39.183,190.000 39.000 C 190.000 38.817,189.925 38.667,189.833 38.667 C 189.742 38.667,189.667 38.517,189.667 38.333 C 189.667 38.150,189.592 38.000,189.500 38.000 C 189.408 38.000,189.333 37.775,189.333 37.500 C 189.333 37.225,189.258 37.000,189.167 37.000 C 189.075 37.000,189.000 36.850,189.000 36.667 C 189.000 36.483,188.925 36.333,188.833 36.333 C 188.742 36.333,188.667 36.188,188.667 36.010 C 188.667 35.832,188.592 35.640,188.500 35.583 C 188.408 35.527,188.333 35.335,188.333 35.157 C 188.333 34.979,188.258 34.833,188.167 34.833 C 188.075 34.833,188.000 34.683,188.000 34.500 C 188.000 34.317,187.925 34.167,187.833 34.167 C 187.742 34.167,187.667 34.017,187.667 33.833 C 187.667 33.650,187.592 33.500,187.500 33.500 C 187.408 33.500,187.333 33.317,187.333 33.093 C 187.333 32.869,187.258 32.640,187.167 32.583 C 187.075 32.527,187.000 32.335,187.000 32.157 C 187.000 31.979,186.925 31.833,186.833 31.833 C 186.742 31.833,186.667 31.683,186.667 31.500 C 186.667 31.317,186.592 31.167,186.500 31.167 C 186.408 31.167,186.333 31.017,186.333 30.833 C 186.333 30.650,186.258 30.500,186.167 30.500 C 186.075 30.500,186.000 30.350,186.000 30.167 C 186.000 29.983,185.925 29.833,185.833 29.833 C 185.742 29.833,185.667 29.683,185.667 29.500 C 185.667 29.317,185.592 29.167,185.500 29.167 C 185.408 29.167,185.333 28.984,185.333 28.760 C 185.333 28.536,185.258 28.307,185.167 28.250 C 185.075 28.193,185.000 28.001,185.000 27.823 C 185.000 27.646,184.925 27.500,184.833 27.500 C 184.742 27.500,184.667 27.350,184.667 27.167 C 184.667 26.983,184.592 26.833,184.500 26.833 C 184.408 26.833,184.333 26.683,184.333 26.500 C 184.333 26.317,184.258 26.167,184.167 26.167 C 184.075 26.167,184.000 26.017,184.000 25.833 C 184.000 25.650,183.925 25.500,183.833 25.500 C 183.742 25.500,183.667 25.350,183.667 25.167 C 183.667 24.983,183.592 24.833,183.500 24.833 C 183.408 24.833,183.333 24.683,183.333 24.500 C 183.333 24.065,178.086 23.987,177.708 24.416 M217.667 31.982 C 217.667 38.347,217.696 39.142,217.930 39.232 C 218.315 39.380,224.381 39.351,224.617 39.201 C 224.756 39.113,224.826 38.364,224.843 36.787 C 224.856 35.529,224.934 34.500,225.017 34.500 C 225.099 34.500,225.167 34.050,225.167 33.500 C 225.167 32.944,225.241 32.500,225.333 32.500 C 225.425 32.500,225.500 32.310,225.500 32.078 C 225.500 31.515,226.515 30.500,227.078 30.500 C 227.310 30.500,227.500 30.425,227.500 30.333 C 227.500 30.225,229.861 30.167,234.250 30.167 L 241.000 30.167 241.000 56.000 C 241.000 73.111,240.944 81.833,240.833 81.833 C 240.742 81.833,240.667 82.133,240.667 82.500 C 240.667 82.867,240.592 83.167,240.500 83.167 C 240.408 83.167,240.333 83.285,240.333 83.429 C 240.333 83.765,239.932 84.167,239.595 84.167 C 239.451 84.167,239.333 84.242,239.333 84.333 C 239.333 84.425,239.108 84.500,238.833 84.500 C 238.558 84.500,238.333 84.575,238.333 84.667 C 238.333 84.758,237.958 84.833,237.500 84.833 C 237.042 84.833,236.667 84.908,236.667 85.000 C 236.667 85.100,235.996 85.167,234.988 85.167 C 233.756 85.167,233.246 85.230,233.071 85.405 C 232.759 85.717,232.726 89.660,233.033 89.967 C 233.403 90.337,262.986 90.247,263.268 89.875 C 263.593 89.447,263.588 85.731,263.262 85.405 C 263.086 85.228,262.567 85.167,261.262 85.167 C 260.198 85.167,259.500 85.101,259.500 85.000 C 259.500 84.907,259.056 84.833,258.500 84.833 C 257.944 84.833,257.500 84.759,257.500 84.667 C 257.500 84.575,257.307 84.500,257.071 84.500 C 256.589 84.500,256.167 84.155,256.167 83.762 C 256.167 83.618,256.092 83.500,256.000 83.500 C 255.907 83.500,255.833 83.056,255.833 82.500 C 255.833 81.944,255.759 81.500,255.667 81.500 C 255.564 81.500,255.500 80.670,255.500 79.343 C 255.500 78.085,255.431 77.143,255.333 77.083 C 255.224 77.015,255.167 68.998,255.167 53.573 L 255.167 30.167 261.907 30.167 C 266.220 30.167,268.684 30.227,268.750 30.333 C 268.807 30.425,269.036 30.500,269.260 30.500 C 269.484 30.500,269.667 30.575,269.667 30.667 C 269.667 30.758,269.785 30.833,269.929 30.833 C 270.265 30.833,270.667 31.235,270.667 31.571 C 270.667 31.715,270.742 31.833,270.833 31.833 C 270.925 31.833,271.000 32.058,271.000 32.333 C 271.000 32.608,271.075 32.833,271.167 32.833 C 271.262 32.833,271.333 33.337,271.333 34.010 C 271.333 34.752,271.395 35.148,271.500 35.083 C 271.608 35.017,271.667 35.715,271.667 37.056 C 271.667 39.563,271.296 39.333,275.341 39.333 C 278.282 39.333,278.500 39.312,278.661 39.011 C 278.772 38.804,278.833 36.218,278.833 31.761 L 278.833 24.833 248.250 24.833 L 217.667 24.833 217.667 31.982 M320.083 28.333 C 320.140 28.425,320.519 28.500,320.927 28.500 C 321.334 28.500,321.667 28.575,321.667 28.667 C 321.667 28.758,321.892 28.833,322.167 28.833 C 322.442 28.833,322.667 28.908,322.667 29.000 C 322.667 29.092,322.810 29.167,322.986 29.167 C 323.162 29.167,323.331 29.235,323.361 29.317 C 323.392 29.400,323.604 29.494,323.833 29.526 C 324.063 29.557,324.371 29.715,324.520 29.875 C 324.668 30.035,324.912 30.167,325.061 30.167 C 325.211 30.167,325.333 30.242,325.333 30.333 C 325.333 30.425,325.452 30.500,325.596 30.500 C 325.741 30.500,326.148 30.800,326.500 31.167 C 326.852 31.533,327.225 31.833,327.328 31.833 C 327.553 31.833,328.333 32.588,328.333 32.806 C 328.333 32.890,328.633 33.269,329.000 33.647 C 329.367 34.025,329.667 34.430,329.667 34.547 C 329.667 34.664,329.817 34.868,330.000 35.000 C 330.183 35.132,330.333 35.374,330.333 35.537 C 330.333 35.700,330.408 35.833,330.500 35.833 C 330.592 35.833,330.667 35.983,330.667 36.167 C 330.667 36.350,330.723 36.501,330.792 36.501 C 330.941 36.503,331.333 37.310,331.333 37.617 C 331.333 37.736,331.408 37.833,331.500 37.833 C 331.592 37.833,331.667 37.947,331.667 38.086 C 331.667 38.224,331.753 38.506,331.859 38.711 C 332.274 39.513,332.333 39.674,332.333 39.998 C 332.333 40.182,332.408 40.333,332.500 40.333 C 332.592 40.333,332.667 40.554,332.667 40.823 C 332.667 41.093,332.742 41.360,332.833 41.417 C 332.925 41.473,333.000 41.736,333.000 42.000 C 333.000 42.264,333.075 42.527,333.167 42.583 C 333.258 42.640,333.333 42.982,333.333 43.343 C 333.333 43.704,333.408 44.000,333.500 44.000 C 333.592 44.000,333.667 44.375,333.667 44.833 C 333.667 45.292,333.735 45.667,333.819 45.667 C 333.971 45.667,334.097 46.694,334.259 49.250 C 334.306 49.983,334.419 50.733,334.510 50.917 C 334.836 51.571,334.497 66.667,334.156 66.667 C 334.070 66.667,334.000 67.112,334.000 67.657 C 334.000 68.201,333.925 68.693,333.833 68.750 C 333.742 68.807,333.667 69.182,333.667 69.583 C 333.667 69.985,333.600 70.355,333.518 70.406 C 333.436 70.456,333.326 70.780,333.274 71.124 C 333.049 72.616,332.955 73.000,332.815 73.000 C 332.733 73.000,332.667 73.221,332.667 73.490 C 332.667 73.760,332.592 74.027,332.500 74.083 C 332.408 74.140,332.333 74.369,332.333 74.593 C 332.333 74.817,332.258 75.000,332.167 75.000 C 332.075 75.000,332.000 75.225,332.000 75.500 C 332.000 75.775,331.925 76.000,331.833 76.000 C 331.742 76.000,331.667 76.150,331.667 76.333 C 331.667 76.517,331.592 76.667,331.500 76.667 C 331.408 76.667,331.333 76.817,331.333 77.000 C 331.333 77.183,331.258 77.333,331.167 77.333 C 331.075 77.333,331.000 77.483,331.000 77.667 C 331.000 77.850,330.925 78.000,330.833 78.000 C 330.742 78.000,330.667 78.150,330.667 78.333 C 330.667 78.517,330.592 78.667,330.500 78.667 C 330.408 78.667,330.333 78.765,330.333 78.885 C 330.333 79.005,330.183 79.265,330.000 79.462 C 329.817 79.658,329.665 79.879,329.664 79.951 C 329.655 80.334,326.317 83.833,325.961 83.833 C 325.839 83.833,325.632 83.983,325.500 84.167 C 325.368 84.350,325.126 84.500,324.963 84.500 C 324.800 84.500,324.667 84.575,324.667 84.667 C 324.667 84.758,324.517 84.833,324.333 84.833 C 324.150 84.833,324.000 84.908,324.000 85.000 C 324.000 85.092,323.850 85.167,323.667 85.167 C 323.483 85.167,323.333 85.242,323.333 85.333 C 323.333 85.425,323.183 85.500,323.000 85.500 C 322.817 85.500,322.667 85.575,322.667 85.667 C 322.667 85.758,322.442 85.833,322.167 85.833 C 321.892 85.833,321.667 85.908,321.667 86.000 C 321.667 86.092,321.292 86.167,320.833 86.167 C 320.375 86.167,320.000 86.242,320.000 86.333 C 320.000 86.439,318.750 86.500,316.583 86.500 C 314.417 86.500,313.167 86.439,313.167 86.333 C 313.167 86.242,312.867 86.167,312.500 86.167 C 312.133 86.167,311.833 86.092,311.833 86.000 C 311.833 85.908,311.608 85.833,311.333 85.833 C 311.058 85.833,310.833 85.758,310.833 85.667 C 310.833 85.575,310.608 85.500,310.333 85.500 C 310.058 85.500,309.833 85.425,309.833 85.333 C 309.833 85.242,309.683 85.167,309.500 85.167 C 309.317 85.167,309.167 85.092,309.167 85.000 C 309.167 84.908,309.017 84.833,308.833 84.833 C 308.650 84.833,308.500 84.758,308.500 84.667 C 308.500 84.575,308.387 84.500,308.250 84.500 C 308.112 84.500,308.000 84.425,308.000 84.333 C 308.000 84.242,307.899 84.167,307.775 84.167 C 307.651 84.167,307.314 83.942,307.026 83.667 C 306.738 83.392,306.424 83.167,306.327 83.167 C 306.120 83.167,305.333 82.410,305.333 82.211 C 305.333 82.135,305.183 81.965,305.000 81.833 C 304.817 81.701,304.667 81.535,304.667 81.465 C 304.667 81.323,304.282 80.831,303.708 80.237 C 303.502 80.023,303.333 79.733,303.333 79.591 C 303.333 79.449,303.258 79.333,303.167 79.333 C 303.075 79.333,303.000 79.235,303.000 79.115 C 303.000 78.995,302.850 78.735,302.667 78.538 C 302.483 78.342,302.333 78.065,302.333 77.924 C 302.333 77.782,302.258 77.667,302.167 77.667 C 302.075 77.667,302.000 77.517,302.000 77.333 C 302.000 77.150,301.925 77.000,301.833 77.000 C 301.742 77.000,301.667 76.850,301.667 76.667 C 301.667 76.483,301.592 76.333,301.500 76.333 C 301.408 76.333,301.333 76.108,301.333 75.833 C 301.333 75.558,301.258 75.333,301.167 75.333 C 301.075 75.333,301.000 75.108,301.000 74.833 C 301.000 74.558,300.925 74.333,300.833 74.333 C 300.742 74.333,300.667 74.108,300.667 73.833 C 300.667 73.558,300.592 73.333,300.500 73.333 C 300.408 73.333,300.333 73.108,300.333 72.833 C 300.333 72.558,300.258 72.333,300.167 72.333 C 300.075 72.333,300.000 72.033,300.000 71.667 C 300.000 71.300,299.925 71.000,299.833 71.000 C 299.742 71.000,299.667 70.625,299.667 70.167 C 299.667 69.708,299.592 69.333,299.500 69.333 C 299.408 69.333,299.333 68.925,299.333 68.427 C 299.333 67.928,299.258 67.473,299.167 67.417 C 299.075 67.360,299.000 66.760,299.000 66.083 C 299.000 65.407,298.925 64.807,298.833 64.750 C 298.734 64.689,298.667 63.609,298.667 62.073 C 298.667 60.469,298.604 59.500,298.500 59.500 C 298.397 59.500,298.333 58.614,298.333 57.177 C 298.333 55.807,298.402 54.811,298.500 54.750 C 298.599 54.689,298.667 53.637,298.667 52.157 C 298.667 50.608,298.730 49.667,298.833 49.667 C 298.931 49.667,299.000 49.111,299.000 48.333 C 299.000 47.556,299.069 47.000,299.167 47.000 C 299.259 47.000,299.333 46.556,299.333 46.000 C 299.333 45.444,299.407 45.000,299.500 45.000 C 299.592 45.000,299.667 44.621,299.667 44.157 C 299.667 43.637,299.731 43.353,299.833 43.417 C 299.932 43.478,300.000 43.283,300.000 42.936 C 300.000 42.616,300.075 42.307,300.167 42.250 C 300.258 42.193,300.333 41.889,300.333 41.573 C 300.333 41.258,300.408 41.000,300.500 41.000 C 300.592 41.000,300.667 40.775,300.667 40.500 C 300.667 40.225,300.742 40.000,300.833 40.000 C 300.925 40.000,301.000 39.813,301.000 39.583 C 301.000 39.354,301.075 39.167,301.167 39.167 C 301.258 39.167,301.333 38.984,301.333 38.760 C 301.333 38.536,301.408 38.307,301.500 38.250 C 301.592 38.193,301.667 38.001,301.667 37.823 C 301.667 37.646,301.742 37.500,301.833 37.500 C 301.925 37.500,302.000 37.350,302.000 37.167 C 302.000 36.983,302.075 36.833,302.167 36.833 C 302.258 36.833,302.333 36.683,302.333 36.500 C 302.333 36.317,302.408 36.167,302.500 36.167 C 302.592 36.167,302.667 36.033,302.667 35.870 C 302.667 35.707,302.817 35.465,303.000 35.333 C 303.183 35.201,303.333 34.994,303.333 34.872 C 303.333 34.751,303.522 34.463,303.753 34.232 C 303.984 34.001,304.123 33.730,304.061 33.630 C 303.994 33.521,304.026 33.496,304.141 33.567 C 304.247 33.633,304.333 33.606,304.333 33.507 C 304.333 33.251,306.450 31.167,306.710 31.167 C 306.829 31.167,307.035 31.017,307.167 30.833 C 307.299 30.650,307.540 30.500,307.703 30.500 C 307.867 30.500,308.000 30.425,308.000 30.333 C 308.000 30.242,308.112 30.167,308.250 30.167 C 308.387 30.167,308.500 30.092,308.500 30.000 C 308.500 29.908,308.650 29.833,308.833 29.833 C 309.017 29.833,309.167 29.758,309.167 29.667 C 309.167 29.575,309.317 29.500,309.500 29.500 C 309.683 29.500,309.833 29.425,309.833 29.333 C 309.833 29.242,310.016 29.167,310.240 29.167 C 310.464 29.167,310.693 29.092,310.750 29.000 C 310.807 28.908,311.032 28.833,311.250 28.833 C 311.468 28.833,311.693 28.758,311.750 28.667 C 311.807 28.575,312.149 28.500,312.510 28.500 C 312.871 28.500,313.167 28.425,313.167 28.333 C 313.167 28.228,314.413 28.167,316.573 28.167 C 318.665 28.167,320.020 28.231,320.083 28.333 M110.500 30.000 C 110.500 30.092,110.800 30.167,111.167 30.167 C 111.533 30.167,111.833 30.242,111.833 30.333 C 111.833 30.425,112.058 30.500,112.333 30.500 C 112.608 30.500,112.833 30.575,112.833 30.667 C 112.833 30.758,112.983 30.833,113.167 30.833 C 113.350 30.833,113.500 30.908,113.500 31.000 C 113.500 31.092,113.650 31.167,113.833 31.167 C 114.017 31.167,114.167 31.242,114.167 31.333 C 114.167 31.425,114.280 31.500,114.419 31.500 C 114.712 31.500,117.167 33.900,117.167 34.186 C 117.167 34.291,117.298 34.499,117.458 34.647 C 117.619 34.795,117.776 35.104,117.808 35.333 C 117.839 35.563,117.933 35.775,118.016 35.806 C 118.099 35.836,118.167 36.005,118.167 36.181 C 118.167 36.356,118.242 36.500,118.333 36.500 C 118.425 36.500,118.500 36.800,118.500 37.167 C 118.500 37.533,118.575 37.833,118.667 37.833 C 118.761 37.833,118.833 38.302,118.833 38.907 C 118.833 39.497,118.908 40.027,119.000 40.083 C 119.094 40.141,119.167 40.943,119.167 41.917 C 119.167 42.890,119.094 43.692,119.000 43.750 C 118.908 43.807,118.833 44.294,118.833 44.833 C 118.833 45.373,118.758 45.860,118.667 45.917 C 118.575 45.973,118.500 46.236,118.500 46.500 C 118.500 46.764,118.425 47.027,118.333 47.083 C 118.242 47.140,118.167 47.333,118.167 47.512 C 118.167 47.691,118.101 47.968,118.021 48.127 C 117.941 48.286,117.704 48.754,117.496 49.167 C 117.288 49.579,117.034 50.085,116.933 50.290 C 116.833 50.496,116.694 50.665,116.625 50.665 C 116.556 50.666,116.500 50.779,116.500 50.917 C 116.500 51.054,116.425 51.167,116.333 51.167 C 116.242 51.167,116.167 51.241,116.167 51.331 C 116.167 51.680,114.128 53.833,113.798 53.833 C 113.674 53.833,113.465 53.983,113.333 54.167 C 113.201 54.350,112.960 54.500,112.797 54.500 C 112.633 54.500,112.500 54.575,112.500 54.667 C 112.500 54.758,112.350 54.833,112.167 54.833 C 111.983 54.833,111.833 54.908,111.833 55.000 C 111.833 55.092,111.683 55.167,111.500 55.167 C 111.317 55.167,111.167 55.242,111.167 55.333 C 111.167 55.425,111.017 55.500,110.833 55.500 C 110.650 55.500,110.500 55.575,110.500 55.667 C 110.500 55.758,110.275 55.833,110.000 55.833 C 109.725 55.833,109.500 55.908,109.500 56.000 C 109.500 56.092,109.200 56.167,108.833 56.167 C 108.467 56.167,108.167 56.242,108.167 56.333 C 108.167 56.435,107.413 56.500,106.240 56.500 C 104.998 56.500,104.350 56.559,104.417 56.667 C 104.481 56.771,104.113 56.833,103.427 56.833 L 102.333 56.833 102.333 43.333 L 102.333 29.833 106.417 29.833 C 109.028 29.833,110.500 29.893,110.500 30.000 M176.500 41.885 C 176.500 42.286,178.331 46.000,178.528 46.000 C 178.604 46.000,178.667 46.150,178.667 46.333 C 178.667 46.517,178.742 46.667,178.833 46.667 C 178.925 46.667,179.000 46.817,179.000 47.000 C 179.000 47.183,179.075 47.333,179.167 47.333 C 179.258 47.333,179.333 47.558,179.333 47.833 C 179.333 48.108,179.408 48.333,179.500 48.333 C 179.592 48.333,179.667 48.483,179.667 48.667 C 179.667 48.850,179.742 49.000,179.833 49.000 C 179.925 49.000,180.000 49.150,180.000 49.333 C 180.000 49.517,180.075 49.667,180.167 49.667 C 180.258 49.667,180.333 49.817,180.333 50.000 C 180.333 50.183,180.408 50.333,180.500 50.333 C 180.592 50.333,180.667 50.483,180.667 50.667 C 180.667 50.850,180.742 51.000,180.833 51.000 C 180.925 51.000,181.000 51.150,181.000 51.333 C 181.000 51.517,181.075 51.667,181.167 51.667 C 181.258 51.667,181.333 51.817,181.333 52.000 C 181.333 52.183,181.408 52.333,181.500 52.333 C 181.592 52.333,181.667 52.558,181.667 52.833 C 181.667 53.108,181.742 53.333,181.833 53.333 C 181.925 53.333,182.000 53.483,182.000 53.667 C 182.000 53.850,182.075 54.000,182.167 54.000 C 182.258 54.000,182.333 54.146,182.333 54.323 C 182.333 54.501,182.408 54.693,182.500 54.750 C 182.592 54.807,182.667 54.999,182.667 55.177 C 182.667 55.354,182.742 55.500,182.833 55.500 C 182.925 55.500,183.000 55.650,183.000 55.833 C 183.000 56.017,183.075 56.167,183.167 56.167 C 183.258 56.167,183.333 56.317,183.333 56.500 C 183.333 56.683,183.408 56.833,183.500 56.833 C 183.592 56.833,183.667 56.983,183.667 57.167 C 183.667 57.350,183.742 57.500,183.833 57.500 C 183.925 57.500,184.000 57.692,184.000 57.927 C 184.000 58.161,184.059 58.316,184.131 58.272 C 184.204 58.227,184.279 58.392,184.299 58.637 C 184.320 58.882,184.411 59.108,184.501 59.139 C 184.592 59.169,184.667 59.338,184.667 59.514 C 184.667 59.690,184.742 59.833,184.833 59.833 C 184.925 59.833,185.000 59.983,185.000 60.167 C 185.000 60.350,185.075 60.500,185.167 60.500 C 185.258 60.500,185.333 60.650,185.333 60.833 C 185.333 61.017,185.408 61.167,185.500 61.167 C 185.592 61.167,185.667 61.317,185.667 61.500 C 185.667 61.683,185.742 61.833,185.833 61.833 C 185.925 61.833,186.000 61.983,186.000 62.167 C 186.000 62.350,186.075 62.500,186.167 62.500 C 186.258 62.500,186.333 62.650,186.333 62.833 C 186.333 63.017,186.392 63.167,186.464 63.167 C 186.535 63.167,186.611 63.373,186.632 63.625 C 186.653 63.877,186.744 64.108,186.835 64.139 C 186.926 64.169,187.000 64.338,187.000 64.514 C 187.000 64.690,187.075 64.833,187.167 64.833 C 187.258 64.833,187.333 64.908,187.333 65.000 C 187.333 65.109,183.583 65.167,176.417 65.167 C 170.412 65.167,165.500 65.143,165.500 65.115 C 165.500 65.086,165.650 64.752,165.833 64.373 C 166.017 63.993,166.167 63.567,166.167 63.425 C 166.167 63.283,166.242 63.167,166.333 63.167 C 166.425 63.167,166.500 63.017,166.500 62.833 C 166.500 62.650,166.575 62.500,166.667 62.500 C 166.758 62.500,166.833 62.350,166.833 62.167 C 166.833 61.983,166.908 61.833,167.000 61.833 C 167.092 61.833,167.167 61.735,167.167 61.615 C 167.167 61.494,167.317 61.085,167.500 60.706 C 167.683 60.327,167.833 59.900,167.833 59.758 C 167.833 59.616,167.908 59.500,168.000 59.500 C 168.092 59.500,168.167 59.350,168.167 59.167 C 168.167 58.983,168.242 58.833,168.333 58.833 C 168.425 58.833,168.500 58.683,168.500 58.500 C 168.500 58.317,168.575 58.167,168.667 58.167 C 168.758 58.167,168.833 58.053,168.833 57.914 C 168.833 57.776,168.908 57.513,169.000 57.331 C 169.092 57.149,169.242 56.851,169.333 56.669 C 169.425 56.487,169.500 56.224,169.500 56.086 C 169.500 55.947,169.575 55.833,169.667 55.833 C 169.758 55.833,169.833 55.683,169.833 55.500 C 169.833 55.317,169.908 55.167,170.000 55.167 C 170.092 55.167,170.167 55.021,170.167 54.843 C 170.167 54.665,170.242 54.473,170.333 54.417 C 170.425 54.360,170.500 54.174,170.500 54.004 C 170.500 53.834,170.574 53.669,170.665 53.639 C 170.756 53.608,170.847 53.382,170.867 53.137 C 170.887 52.892,170.963 52.727,171.035 52.772 C 171.108 52.816,171.167 52.661,171.167 52.427 C 171.167 52.192,171.242 52.000,171.333 52.000 C 171.425 52.000,171.500 51.850,171.500 51.667 C 171.500 51.483,171.575 51.333,171.667 51.333 C 171.758 51.333,171.833 51.183,171.833 51.000 C 171.833 50.817,171.908 50.667,172.000 50.667 C 172.092 50.667,172.167 50.517,172.167 50.333 C 172.167 50.150,172.225 50.000,172.297 50.000 C 172.369 50.000,172.444 49.794,172.465 49.542 C 172.486 49.290,172.577 49.058,172.668 49.028 C 172.759 48.997,172.833 48.828,172.833 48.653 C 172.833 48.477,172.908 48.333,173.000 48.333 C 173.092 48.333,173.167 48.183,173.167 48.000 C 173.167 47.817,173.242 47.667,173.333 47.667 C 173.425 47.667,173.500 47.517,173.500 47.333 C 173.500 47.150,173.575 47.000,173.667 47.000 C 173.758 47.000,173.833 46.850,173.833 46.667 C 173.833 46.483,173.908 46.333,174.000 46.333 C 174.092 46.333,174.167 46.108,174.167 45.833 C 174.167 45.558,174.242 45.333,174.333 45.333 C 174.425 45.333,174.500 45.183,174.500 45.000 C 174.500 44.817,174.575 44.667,174.667 44.667 C 174.758 44.667,174.833 44.517,174.833 44.333 C 174.833 44.150,174.908 44.000,175.000 44.000 C 175.092 44.000,175.167 43.856,175.167 43.681 C 175.167 43.505,175.241 43.336,175.332 43.306 C 175.423 43.275,175.514 43.049,175.534 42.804 C 175.554 42.558,175.630 42.394,175.702 42.439 C 175.774 42.483,175.833 42.328,175.833 42.093 C 175.833 41.778,175.920 41.667,176.167 41.667 C 176.350 41.667,176.500 41.765,176.500 41.885 M5.250 69.500 C 5.193 69.592,5.018 69.667,4.860 69.667 C 4.703 69.667,4.465 69.817,4.333 70.000 C 4.201 70.183,3.987 70.333,3.858 70.333 C 3.728 70.333,3.501 70.465,3.353 70.626 C 3.205 70.787,2.877 71.025,2.625 71.154 C 2.373 71.284,2.167 71.452,2.167 71.528 C 2.167 71.604,2.050 71.667,1.907 71.667 C 1.764 71.667,1.693 71.742,1.750 71.833 C 1.807 71.925,1.715 72.000,1.547 72.000 C 1.378 72.000,1.132 72.150,1.000 72.333 C 0.868 72.517,0.628 72.667,0.466 72.667 C 0.121 72.667,-0.084 73.310,0.068 73.917 C 0.130 74.164,0.292 74.333,0.466 74.333 C 0.628 74.333,0.868 74.483,1.000 74.667 C 1.132 74.850,1.374 75.000,1.537 75.000 C 1.700 75.000,1.833 75.075,1.833 75.167 C 1.833 75.710,3.049 75.305,3.833 74.500 C 4.280 74.042,4.762 73.667,4.906 73.667 C 5.049 73.667,5.167 73.592,5.167 73.500 C 5.167 73.399,5.861 73.333,6.917 73.333 C 7.972 73.333,8.667 73.399,8.667 73.500 C 8.667 73.592,8.892 73.667,9.167 73.667 C 9.442 73.667,9.667 73.742,9.667 73.833 C 9.667 73.925,9.892 74.000,10.167 74.000 C 10.442 74.000,10.667 74.075,10.667 74.167 C 10.667 74.258,10.817 74.333,11.000 74.333 C 11.183 74.333,11.333 74.408,11.333 74.500 C 11.333 74.592,11.479 74.667,11.657 74.667 C 11.835 74.667,12.027 74.742,12.083 74.833 C 12.140 74.925,12.369 75.000,12.593 75.000 C 12.817 75.000,13.000 75.075,13.000 75.167 C 13.000 75.258,13.150 75.333,13.333 75.333 C 13.517 75.333,13.667 75.408,13.667 75.500 C 13.667 75.592,13.817 75.667,14.000 75.667 C 14.183 75.667,14.333 75.742,14.333 75.833 C 14.333 75.925,14.483 76.000,14.667 76.000 C 14.850 76.000,15.000 76.075,15.000 76.167 C 15.000 76.258,15.150 76.333,15.333 76.333 C 15.517 76.333,15.667 76.408,15.667 76.500 C 15.667 76.592,15.817 76.667,16.000 76.667 C 16.183 76.667,16.333 76.742,16.333 76.833 C 16.333 76.925,16.483 77.000,16.667 77.000 C 16.850 77.000,17.000 77.075,17.000 77.167 C 17.000 77.258,17.152 77.333,17.338 77.333 C 17.752 77.333,18.859 77.881,22.763 80.018 L 25.777 81.667 27.805 81.667 C 29.046 81.667,29.833 81.602,29.833 81.500 C 29.833 81.405,30.333 81.333,31.000 81.333 C 31.667 81.333,32.167 81.262,32.167 81.167 C 32.167 81.073,32.641 81.000,33.258 81.000 C 34.349 81.000,35.167 80.572,35.167 80.000 C 35.167 79.900,35.358 79.627,35.592 79.392 C 36.264 78.721,36.081 78.425,34.957 78.367 C 34.368 78.336,34.000 78.384,34.000 78.492 C 34.000 78.592,33.615 78.667,33.093 78.667 C 32.594 78.667,32.140 78.742,32.083 78.833 C 32.027 78.925,31.614 79.000,31.167 79.000 C 30.719 79.000,30.307 79.075,30.250 79.167 C 30.193 79.258,29.701 79.333,29.157 79.333 C 28.608 79.333,28.167 79.259,28.167 79.167 C 28.167 79.075,28.017 79.000,27.833 79.000 C 27.650 79.000,27.500 78.925,27.500 78.833 C 27.500 78.742,27.350 78.667,27.167 78.667 C 26.983 78.667,26.833 78.592,26.833 78.500 C 26.833 78.408,26.690 78.333,26.514 78.333 C 26.338 78.333,26.169 78.276,26.139 78.207 C 26.108 78.137,25.408 77.744,24.583 77.333 C 23.758 76.923,23.058 76.529,23.028 76.460 C 22.997 76.390,22.828 76.333,22.653 76.333 C 22.477 76.333,22.333 76.258,22.333 76.167 C 22.333 76.075,22.183 76.000,22.000 76.000 C 21.817 76.000,21.667 75.925,21.667 75.833 C 21.667 75.742,21.517 75.667,21.333 75.667 C 21.150 75.667,21.000 75.592,21.000 75.500 C 21.000 75.408,20.850 75.333,20.667 75.333 C 20.483 75.333,20.333 75.258,20.333 75.167 C 20.333 75.075,20.183 75.000,20.000 75.000 C 19.817 75.000,19.667 74.925,19.667 74.833 C 19.667 74.742,19.517 74.667,19.333 74.667 C 19.150 74.667,19.000 74.592,19.000 74.500 C 19.000 74.408,18.850 74.333,18.667 74.333 C 18.483 74.333,18.333 74.258,18.333 74.167 C 18.333 74.075,18.183 74.000,18.000 74.000 C 17.817 74.000,17.667 73.925,17.667 73.833 C 17.667 73.742,17.517 73.667,17.333 73.667 C 17.150 73.667,17.000 73.592,17.000 73.500 C 17.000 73.408,16.850 73.333,16.667 73.333 C 16.483 73.333,16.333 73.258,16.333 73.167 C 16.333 73.075,16.183 73.000,16.000 73.000 C 15.817 73.000,15.667 72.925,15.667 72.833 C 15.667 72.742,15.517 72.667,15.333 72.667 C 15.150 72.667,15.000 72.592,15.000 72.500 C 15.000 72.408,14.850 72.333,14.667 72.333 C 14.483 72.333,14.333 72.258,14.333 72.167 C 14.333 72.075,14.183 72.000,14.000 72.000 C 13.817 72.000,13.667 71.925,13.667 71.833 C 13.667 71.742,13.517 71.667,13.333 71.667 C 13.150 71.667,13.000 71.592,13.000 71.500 C 13.000 71.408,12.850 71.333,12.667 71.333 C 12.483 71.333,12.333 71.258,12.333 71.167 C 12.333 71.075,12.183 71.000,12.000 71.000 C 11.817 71.000,11.667 70.925,11.667 70.833 C 11.667 70.742,11.517 70.667,11.333 70.667 C 11.150 70.667,11.000 70.592,11.000 70.500 C 11.000 70.408,10.850 70.333,10.667 70.333 C 10.483 70.333,10.333 70.258,10.333 70.167 C 10.333 70.075,10.183 70.000,10.000 70.000 C 9.817 70.000,9.667 69.925,9.667 69.833 C 9.667 69.742,9.517 69.667,9.333 69.667 C 9.150 69.667,9.000 69.592,9.000 69.500 C 9.000 69.399,8.281 69.333,7.177 69.333 C 6.141 69.333,5.309 69.405,5.250 69.500 M67.333 69.500 C 67.333 69.592,67.183 69.667,67.000 69.667 C 66.817 69.667,66.667 69.742,66.667 69.833 C 66.667 69.925,66.517 70.000,66.333 70.000 C 66.150 70.000,66.000 70.075,66.000 70.167 C 66.000 70.258,65.850 70.333,65.667 70.333 C 65.483 70.333,65.333 70.408,65.333 70.500 C 65.333 70.592,65.183 70.667,65.000 70.667 C 64.817 70.667,64.667 70.742,64.667 70.833 C 64.667 70.925,64.517 71.000,64.333 71.000 C 64.150 71.000,64.000 71.075,64.000 71.167 C 64.000 71.258,63.854 71.333,63.677 71.333 C 63.499 71.333,63.307 71.408,63.250 71.500 C 63.193 71.592,63.001 71.667,62.823 71.667 C 62.646 71.667,62.500 71.742,62.500 71.833 C 62.500 71.925,62.350 72.000,62.167 72.000 C 61.983 72.000,61.833 72.075,61.833 72.167 C 61.833 72.258,61.683 72.333,61.500 72.333 C 61.317 72.333,61.167 72.408,61.167 72.500 C 61.167 72.592,61.066 72.667,60.943 72.667 C 60.821 72.667,60.640 72.835,60.543 73.042 C 60.416 73.309,58.529 74.344,53.944 76.658 L 47.523 79.899 46.405 79.677 C 45.791 79.555,44.979 79.278,44.602 79.063 C 44.149 78.804,43.648 78.670,43.125 78.669 C 42.690 78.668,42.333 78.592,42.333 78.500 C 42.333 78.407,41.889 78.333,41.333 78.333 C 40.226 78.333,39.882 78.935,40.667 79.500 C 40.850 79.632,41.000 79.840,41.000 79.961 C 41.000 80.569,41.791 81.000,42.909 81.000 C 43.535 81.000,44.000 81.072,44.000 81.169 C 44.000 81.327,45.365 81.388,49.094 81.395 C 50.672 81.399,50.852 81.321,56.417 78.257 C 60.029 76.268,61.597 75.533,62.043 75.618 C 62.321 75.671,62.500 75.632,62.500 75.519 C 62.500 75.417,62.650 75.333,62.833 75.333 C 63.017 75.333,63.167 75.258,63.167 75.167 C 63.167 75.075,63.350 75.000,63.573 75.000 C 63.797 75.000,64.027 74.925,64.083 74.833 C 64.140 74.742,64.332 74.667,64.510 74.667 C 64.688 74.667,64.833 74.592,64.833 74.500 C 64.833 74.408,65.021 74.333,65.250 74.333 C 65.479 74.333,65.667 74.258,65.667 74.167 C 65.667 74.075,65.850 74.000,66.073 74.000 C 66.297 74.000,66.527 73.925,66.583 73.833 C 66.640 73.742,66.907 73.667,67.177 73.667 C 67.446 73.667,67.667 73.592,67.667 73.500 C 67.667 73.400,68.333 73.333,69.333 73.333 C 70.333 73.333,71.000 73.400,71.000 73.500 C 71.000 73.592,71.117 73.667,71.261 73.667 C 71.404 73.667,71.887 74.042,72.333 74.500 C 73.117 75.305,74.333 75.710,74.333 75.167 C 74.333 75.075,74.467 75.000,74.630 75.000 C 74.793 75.000,75.035 74.850,75.167 74.667 C 75.299 74.483,75.508 74.333,75.632 74.333 C 75.971 74.333,76.333 73.903,76.333 73.500 C 76.333 73.120,75.976 72.667,75.677 72.667 C 75.578 72.667,75.262 72.442,74.974 72.167 C 74.686 71.892,74.366 71.667,74.262 71.667 C 74.158 71.667,73.965 71.517,73.833 71.333 C 73.701 71.150,73.476 71.000,73.333 71.000 C 73.190 71.000,72.965 70.850,72.833 70.667 C 72.701 70.483,72.476 70.333,72.333 70.333 C 72.190 70.333,71.965 70.183,71.833 70.000 C 71.701 69.817,71.460 69.667,71.297 69.667 C 71.133 69.667,71.000 69.592,71.000 69.500 C 71.000 69.399,70.278 69.333,69.167 69.333 C 68.056 69.333,67.333 69.399,67.333 69.500 " stroke="none" fill="#242424" fill-rule="evenodd"></path></g></svg>