<svg version="1.1" style="color: white" id="Layer_1" xmlns="http://www.w3.org/2000/svg" xmlns:xlink="http://www.w3.org/1999/xlink" 
	 viewBox="0 0 1024 1024" enable-background="new 0 0 1024 1024" xml:space="preserve">
<path fill="currentColor" opacity="1.000000" stroke="none" 
	d="
M661.976196,574.702881 
	C665.260315,568.606934 664.628723,562.171204 664.977783,554.535767 
	C670.662109,560.228699 674.129211,565.935242 677.495483,571.663025 
	C677.991455,572.507019 677.256409,574.234314 676.809204,575.449219 
	C668.769165,597.291077 670.256653,618.889160 678.359741,640.340576 
	C681.455627,648.536377 680.200012,651.148132 671.374634,654.688721 
	C666.510010,647.809021 664.710815,639.354797 660.492126,631.441162 
	C654.663391,638.363708 649.352966,644.735718 644.069031,651.085571 
	C639.211975,656.922363 633.341309,658.774170 626.277893,659.265991 
	C616.154968,659.970825 606.051270,661.004761 595.960449,662.093628 
	C591.937317,662.527710 589.155334,661.882996 587.053345,657.779419 
	C581.840332,647.602234 573.588928,640.609741 562.883850,636.437805 
	C554.351440,633.112610 545.924683,629.516846 537.443054,626.060791 
	C526.339966,621.536560 518.171448,625.401855 514.621399,636.902649 
	C513.865295,639.352295 513.339172,641.873047 512.693054,644.416260 
	C510.174500,643.691772 510.142853,641.769409 509.447571,640.368286 
	C505.307404,632.025269 496.925110,626.636475 487.814087,628.428589 
	C473.382294,631.267456 459.228363,635.507385 444.149719,636.552185 
	C446.018158,639.813599 449.861877,638.843567 451.402924,641.481384 
	C442.734131,647.909363 436.678162,648.217590 427.938965,642.921631 
	C414.386322,634.708679 400.196625,627.710876 385.817413,621.086609 
	C384.933441,620.679321 383.975250,620.433105 382.293823,619.848511 
	C385.989441,633.062744 391.774078,645.031494 394.236420,658.038147 
	C384.706909,659.140625 381.484497,657.363770 378.306305,649.674988 
	C375.067719,641.840149 371.828125,634.005737 368.161133,625.136169 
	C365.899658,630.690735 364.156647,635.409058 362.071075,639.970703 
	C360.015137,644.467590 358.072845,649.087036 354.579651,652.911804 
	C350.985718,651.310791 349.023468,648.365601 346.756805,645.776428 
	C345.052094,643.829224 346.351410,641.999756 347.168427,640.223877 
	C351.910492,629.916321 356.150299,619.437744 358.208862,608.207886 
	C359.414551,601.630371 360.100067,595.037598 358.598419,588.403931 
	C357.562866,583.829468 356.095886,579.462891 352.156067,575.978943 
	C354.560455,573.564392 357.388824,572.595215 360.136597,571.644409 
	C362.703430,570.756165 363.446106,569.370667 362.679352,566.755554 
	C361.603882,563.087280 360.701263,559.359802 359.917542,555.617249 
	C359.239471,552.379089 357.773651,551.887146 355.012207,553.547058 
	C350.016815,556.549866 344.783600,559.175537 339.911224,562.359009 
	C335.263855,565.395386 331.477936,565.183838 326.836639,561.883240 
	C316.786835,554.736389 306.841827,547.469299 297.144196,539.856018 
	C295.863708,538.850769 294.497284,537.954834 292.334869,536.411926 
	C290.966309,544.965149 289.996307,552.783875 291.890900,560.571594 
	C292.828552,564.425781 297.721710,564.570129 300.520325,567.433899 
	C299.588348,567.902222 299.070404,568.354614 298.509857,568.415649 
	C289.093658,569.440796 284.134064,575.808960 280.053314,583.447998 
	C276.794037,589.549438 273.211182,595.477966 269.114838,601.345764 
	C267.090393,594.285645 262.676239,587.675659 267.318604,580.168457 
	C268.714478,577.911255 269.402985,575.174072 270.975006,573.075989 
	C276.998108,565.037231 278.640411,556.057983 277.689636,546.273865 
	C277.156342,540.786011 277.785614,535.240234 278.893341,529.884705 
	C279.691040,526.028076 278.247803,523.788696 275.808807,521.188599 
	C269.023743,513.955383 263.507904,505.891937 261.020477,496.060089 
	C260.109100,492.457703 260.848907,489.879730 263.868103,487.351471 
	C272.938965,479.755676 282.011108,472.168091 291.494720,465.093689 
	C293.741974,463.417297 294.640686,461.869537 293.933289,458.846771 
	C292.610779,453.195618 291.645325,447.441162 291.613464,441.564026 
	C291.597382,438.596985 292.378967,436.906342 295.601898,436.471252 
	C301.366364,435.693054 307.067505,434.428955 312.838470,433.721558 
	C316.958527,433.216492 320.225433,432.095062 321.400909,427.584259 
	C322.291656,424.166046 324.795258,422.419708 328.175110,421.727539 
	C334.809509,420.368927 341.291687,417.807312 348.277374,419.377960 
	C349.852753,419.732178 351.187500,418.843750 352.518311,418.181000 
	C360.272003,414.319550 367.986450,410.377899 375.776764,406.592224 
	C378.228394,405.400848 379.763580,403.980072 379.857086,400.997467 
	C379.992493,396.678833 381.939606,393.347473 386.229034,391.763855 
	C386.383881,391.706665 386.524902,391.611176 386.670837,391.530762 
	C404.230011,381.854736 405.888306,381.724152 424.571075,388.771118 
	C426.544067,383.017639 425.394745,376.929962 426.541473,371.150543 
	C427.114777,368.261139 427.052979,365.215637 427.464020,362.237885 
	C428.210052,356.833221 428.157928,351.678925 425.829498,346.257782 
	C420.216827,333.190277 419.128784,319.218567 419.731506,305.113464 
	C419.948059,300.045593 422.527283,296.250671 426.691925,293.619873 
	C429.635651,291.760345 430.860626,289.457428 431.030548,285.886169 
	C431.915771,267.279297 435.905762,249.607773 447.676117,234.488724 
	C465.812469,211.192551 489.655640,201.097168 518.975464,203.537369 
	C536.295959,204.978928 551.628113,211.200943 564.725586,222.630173 
	C581.435791,237.211899 589.493713,256.041565 591.311584,277.833405 
	C591.505188,280.155243 591.770691,282.484589 591.746826,284.807831 
	C591.712769,288.131256 592.975342,290.404480 595.978516,292.041443 
	C602.984741,295.860382 604.086670,302.750397 604.096863,309.694702 
	C604.117310,323.602814 602.257935,337.259644 596.700439,350.172974 
	C595.539734,352.869965 595.080139,355.585022 595.349182,358.444122 
	C596.863708,374.540680 597.404358,390.675507 597.143127,406.833649 
	C597.095276,409.793854 598.273743,411.344208 600.939697,412.458679 
	C622.885132,421.632294 643.505127,433.070618 661.712280,448.544098 
	C663.567810,450.121094 665.695129,450.892548 667.995300,451.388367 
	C712.421204,460.964935 739.015503,488.411896 748.779114,532.440735 
	C751.098206,542.898376 751.033203,553.596741 749.564392,564.231384 
	C749.096741,567.617676 749.193298,570.769348 751.097534,573.835693 
	C753.203064,577.225891 754.494080,581.197083 756.930420,584.293030 
	C765.099854,594.674316 760.110718,604.929871 757.537781,615.934998 
	C753.381531,613.209595 754.850647,607.937988 750.929626,605.254639 
	C743.769348,610.113525 736.525208,615.076782 729.230164,619.964050 
	C723.764282,623.625916 723.466064,623.468811 719.961548,618.169128 
	C710.980347,604.587280 709.750427,590.682007 718.222351,576.548523 
	C717.001282,574.753784 715.329712,575.229797 713.941528,575.086365 
	C699.294006,573.573547 688.429077,566.043518 680.510864,553.975159 
	C670.405823,538.573853 665.933594,521.245911 663.755188,503.228302 
	C662.392883,491.961395 662.124573,480.648987 663.568298,469.346100 
	C663.925842,466.547302 663.155762,465.065552 660.044495,463.917725 
	C656.460938,462.595642 653.442566,459.741486 649.837646,457.323944 
	C646.539734,465.032959 643.521118,472.382599 640.269897,479.627808 
	C633.634399,494.414520 625.435059,508.340088 616.222961,521.640747 
	C613.598755,525.429626 613.326233,528.359741 615.700623,532.444336 
	C621.063599,541.670044 625.176697,551.538269 628.688416,561.618164 
	C629.719482,564.578003 631.420654,566.261047 634.365784,567.292419 
	C641.592285,569.822998 648.692444,572.712891 655.905701,575.283569 
	C657.768738,575.947510 659.947205,577.498169 661.976196,574.702881 
M524.302185,347.779541 
	C518.666199,340.054565 518.913025,330.459442 515.651611,321.651398 
	C519.198181,324.804932 522.680115,325.563110 527.020386,323.723053 
	C524.185730,320.127075 521.544434,316.928314 519.075256,313.601898 
	C516.532227,310.176056 514.926880,306.734222 516.571899,302.069794 
	C522.791992,284.432831 527.074219,266.303192 528.387878,247.612274 
	C528.935242,239.823227 528.645874,231.965515 528.511475,224.142914 
	C528.451538,220.653152 526.903320,218.706055 522.834534,218.048218 
	C486.690826,212.204605 455.814728,232.659973 447.271606,268.121765 
	C443.977875,281.793854 445.640106,295.635101 444.973907,309.395782 
	C444.893860,311.048706 445.850311,313.072479 443.596802,314.372864 
	C440.259338,312.560272 438.894989,307.800964 433.744843,307.679047 
	C432.597168,316.228394 434.654602,324.056335 436.695251,332.291107 
	C439.883118,330.109314 439.832062,326.157257 443.216583,324.558411 
	C444.824432,327.443878 444.073395,330.488342 444.316895,333.366699 
	C445.063385,342.188995 446.394531,350.754364 455.146729,355.625732 
	C461.057159,358.915344 464.424591,363.591339 465.706879,370.433746 
	C466.808838,376.313873 468.194092,382.371399 472.184509,388.318756 
	C479.478943,380.401215 486.361542,372.930756 494.014496,364.624084 
	C495.575836,375.586029 498.840088,384.028015 511.008209,384.037506 
	C523.692810,384.047424 527.985413,375.824951 529.240662,363.986450 
	C533.598633,368.709137 537.208252,372.561523 540.749756,376.475525 
	C544.264343,380.359741 547.710327,384.306030 551.642822,388.739716 
	C553.432007,383.843475 551.095459,380.504242 550.062744,377.025452 
	C546.405762,364.706635 540.728638,353.165283 536.117554,341.212006 
	C535.103271,338.582703 533.301147,337.165405 530.392883,337.360046 
	C527.495972,337.553986 526.506531,339.435089 526.084595,341.990845 
	C525.787964,343.787292 525.231995,345.540894 524.302185,347.779541 
M575.508301,440.765106 
	C574.257812,442.276031 575.242615,443.977905 575.091492,445.582306 
	C574.516541,451.687592 573.561951,457.636688 568.949219,461.671692 
	C566.140198,461.512146 566.271301,458.519623 563.943298,458.494537 
	C563.220520,460.201019 562.629272,461.934784 561.782776,463.533386 
	C559.018494,468.753998 557.088806,474.979492 549.239929,474.377533 
	C548.117065,474.291412 547.344666,475.143219 547.054199,476.134216 
	C544.309753,485.499390 536.392883,490.309906 529.529297,496.008209 
	C522.469666,501.869263 502.849365,503.608978 495.464844,498.208588 
	C488.128967,492.843842 481.100708,486.804413 477.266266,478.077393 
	C476.620575,476.607849 476.214508,475.011719 473.917480,475.004395 
	C468.853577,474.988251 465.708313,471.813324 463.253967,467.818695 
	C461.445221,464.874786 459.760345,461.854706 457.960297,458.765594 
	C456.308655,459.255981 454.916626,459.669281 453.456177,460.102905 
	C449.074371,455.368011 448.132751,449.799500 448.483978,443.796692 
	C448.597137,441.862427 449.492126,439.510986 447.639984,438.129364 
	C440.327942,432.675140 436.022400,424.958984 431.558685,417.344849 
	C430.118530,414.888214 428.215088,415.200226 425.963776,416.008270 
	C423.062592,417.049561 423.987030,418.986542 424.587219,420.890900 
	C424.886902,421.841827 425.238525,422.784180 425.656433,423.688965 
	C433.016815,439.624664 441.834900,454.670959 452.962006,468.300842 
	C454.544373,470.239166 456.515594,472.103729 456.516907,474.733643 
	C456.521149,483.099701 461.679840,489.242828 465.312531,496.069214 
	C467.147278,499.517029 469.805115,501.546509 473.559387,502.708771 
	C484.209198,506.005737 494.746979,509.663483 505.385986,512.996887 
	C509.796906,514.378906 513.512695,516.607727 516.783997,519.864014 
	C519.942566,523.008118 522.967041,526.278748 527.432800,527.904358 
	C542.287964,533.312012 557.043579,538.992615 571.874451,544.468018 
	C573.427063,545.041260 575.110535,546.465149 577.279541,544.695190 
	C575.365356,537.225769 570.876282,530.972900 566.661255,524.684509 
	C564.371643,521.268555 564.165039,518.837097 566.563599,515.338867 
	C581.795898,493.122559 594.138367,469.337616 603.175720,443.976898 
	C608.950867,427.770538 610.998596,431.986084 594.455139,424.843018 
	C591.111938,423.399445 589.347778,424.083313 587.878357,427.403687 
	C585.411987,432.976807 582.026245,437.888641 575.508301,440.765106 
M525.448792,556.799194 
	C536.878296,552.078552 546.225098,558.106079 555.996582,562.235046 
	C549.278076,564.335693 542.303101,564.642639 536.241455,567.993408 
	C530.219543,571.322266 524.388428,574.996216 518.085754,578.749817 
	C521.582458,581.860413 525.428894,581.987549 528.670044,583.479858 
	C533.022278,585.483643 536.276672,584.100403 539.073181,580.502319 
	C542.443298,576.166260 545.918274,571.906799 549.476868,567.723877 
	C551.471252,565.379578 553.997314,563.677185 557.240112,563.766113 
	C564.534058,563.966187 572.359680,565.370178 577.528503,569.648254 
	C582.660339,573.895874 588.472717,574.290833 593.747192,576.873169 
	C595.529297,577.745789 598.070801,577.540833 598.831909,579.969788 
	C597.289246,582.171021 593.789551,580.287781 592.890076,583.653442 
	C598.990234,586.202026 606.039612,586.172302 611.956543,589.887207 
	C608.046509,594.890930 602.248108,597.414124 599.277405,603.422485 
	C606.501160,603.963074 612.898682,605.204163 617.108459,598.403381 
	C618.101013,596.799988 619.941040,595.920471 621.806885,595.851501 
	C629.079224,595.582764 635.481995,598.619629 642.242310,601.284302 
	C632.602661,602.962891 626.173218,608.640137 620.862854,616.027344 
	C618.584534,619.196594 619.015869,620.751648 622.756042,621.518860 
	C627.193787,622.429199 631.260071,620.263550 632.506409,615.149170 
	C634.555481,606.740234 640.394714,604.237793 647.988037,603.789856 
	C649.817017,603.681946 651.652893,603.694092 653.484436,603.622864 
	C654.916016,603.567261 655.954956,603.044189 656.557434,601.567200 
	C659.330200,594.770386 657.809937,591.047302 651.058167,588.410156 
	C649.972839,587.986206 648.861572,587.629089 647.768555,587.224304 
	C606.549011,571.957520 565.329407,556.690796 524.112610,541.416687 
	C520.826599,540.199036 517.521851,538.964294 514.937195,536.475830 
	C507.945007,529.743896 499.860138,525.217957 490.309540,522.994080 
	C484.172394,521.565002 478.225800,519.260071 472.264679,517.147705 
	C465.181519,514.637695 457.220245,513.802734 452.449677,506.362427 
	C450.080536,509.495819 447.604034,511.705444 446.334259,515.512085 
	C455.687561,519.743591 466.015137,521.229980 474.641846,526.736450 
	C473.265900,529.091980 470.116180,528.257202 469.417175,531.102234 
	C474.520691,532.536621 479.723755,533.282043 484.736084,532.541687 
	C494.842743,531.049011 498.399750,538.614014 504.246826,545.032776 
	C491.166809,548.524658 478.123077,549.925110 468.741211,559.869751 
	C475.729309,564.944031 485.098389,563.031982 488.978088,556.017517 
	C490.086731,554.013123 490.489288,551.003967 492.893799,550.462219 
	C501.133057,548.606079 509.074677,550.350403 517.516235,552.443726 
	C516.209290,554.871887 515.453430,556.276245 514.479614,558.085510 
	C518.303528,558.586731 521.445679,557.587524 525.448792,556.799194 
M494.582977,610.239014 
	C494.735901,608.889160 493.636810,608.603333 492.768555,608.247620 
	C474.133759,600.614075 455.586487,592.759521 436.613800,585.976074 
	C434.990295,585.395569 433.383606,585.209473 431.710846,585.493835 
	C423.317810,586.920837 414.827759,586.955017 406.365448,587.500793 
	C400.202637,587.898193 396.326660,585.577942 393.101807,580.719849 
	C387.259949,571.919434 382.860077,562.432434 379.050903,552.635620 
	C378.272247,550.632996 377.274506,548.713318 374.767395,549.625610 
	C372.515625,550.444824 373.657013,552.360474 374.010895,553.919800 
	C377.889893,571.010681 383.467010,587.532349 390.414337,603.618164 
	C391.834991,606.907532 394.039490,608.938049 397.167511,610.515442 
	C417.310974,620.672974 438.391815,624.056152 460.649261,619.852661 
	C472.089325,617.692017 483.580048,615.788391 494.582977,610.239014 
M371.783203,534.677612 
	C377.779510,534.743958 383.797821,534.511353 389.766602,534.951172 
	C397.466339,535.518433 402.587738,532.536011 405.263763,525.300232 
	C406.991425,520.628845 410.397522,517.888306 414.957397,515.912170 
	C421.051666,513.271179 427.145050,510.468781 432.507050,506.439819 
	C441.736511,499.504852 445.360474,483.779419 439.454041,474.947510 
	C424.494934,452.579071 410.646149,429.705505 404.228424,403.156586 
	C403.881409,401.720978 403.345215,400.320618 401.298431,400.361053 
	C396.884125,400.448273 393.872437,404.426331 395.084167,408.796417 
	C395.661835,410.879608 396.296356,412.949097 396.972626,415.002563 
	C404.094696,436.628113 415.789032,455.749359 429.481750,473.717102 
	C432.764679,478.024994 433.684296,482.272034 432.935913,487.632721 
	C431.854279,495.380432 427.881439,499.869781 420.561920,502.017639 
	C417.545319,502.902832 414.656158,504.290009 411.800629,505.642273 
	C405.897491,508.437775 398.929230,511.140839 396.524567,517.138855 
	C392.016479,528.383606 384.230560,529.530518 374.228302,527.334106 
	C372.782867,527.016724 371.242096,527.058350 369.745667,527.060852 
	C361.893402,527.074036 355.873260,523.471313 350.431610,518.066223 
	C344.031982,511.709473 337.880157,505.162140 332.603363,497.859436 
	C324.761658,487.007141 317.842407,475.640594 315.093872,462.283142 
	C314.398132,458.901764 312.583710,454.823975 318.735657,454.200684 
	C320.790283,453.992554 320.940002,451.971222 320.573181,450.195648 
	C320.184204,448.312683 319.053741,447.201660 317.055450,447.443054 
	C314.912231,447.701935 312.794067,448.161072 310.657837,448.486145 
	C307.220551,449.009277 306.041107,450.401611 306.930084,454.252075 
	C313.097015,480.962097 326.217834,503.601532 345.571930,522.928040 
	C352.725250,530.071106 360.388245,535.113342 371.783203,534.677612 
M584.474182,307.966370 
	C582.511658,309.629730 581.309509,312.137146 577.877502,313.906158 
	C578.084045,286.018402 580.389587,258.137054 558.508423,235.329605 
	C557.977295,243.160263 558.466553,249.933014 557.429260,256.648346 
	C555.304871,270.402161 554.466248,284.442657 547.320557,296.932343 
	C547.030701,297.438873 546.829590,298.416443 547.104858,298.762024 
	C550.417236,302.919373 551.275391,308.948944 557.328125,311.069763 
	C561.813965,312.641510 565.982361,315.119324 570.293396,317.194092 
	C566.175598,326.037476 557.085327,319.756439 551.321045,324.184387 
	C555.737061,326.409668 561.412903,326.157501 563.983765,331.225464 
	C562.087708,334.709564 557.520874,334.875732 555.579102,338.518219 
	C559.108887,344.570557 562.659790,350.659180 566.271118,356.851318 
	C582.772278,348.350372 577.009521,332.716583 579.297791,319.212982 
	C583.716797,322.747986 584.601990,327.649689 587.678894,331.616364 
	C590.078918,324.443085 590.638000,317.386932 590.908569,310.295593 
	C590.971008,308.660400 591.080933,306.739288 589.340637,305.836945 
	C587.476318,304.870239 586.308167,306.550629 584.474182,307.966370 
M459.711578,579.668945 
	C513.728943,601.019226 567.383545,623.281494 621.626099,644.066284 
	C627.724548,646.403137 628.914673,645.981445 631.978455,639.840027 
	C629.754089,638.042358 627.030273,637.237122 624.430481,636.200317 
	C566.155212,612.959839 507.385193,591.010559 448.689789,568.866577 
	C445.576691,567.692078 442.505737,566.761230 439.036224,566.793213 
	C431.552765,566.862427 424.065918,566.363464 416.578461,566.283264 
	C412.959900,566.244568 410.202057,565.016907 408.023987,562.079407 
	C405.348083,558.470459 402.451691,555.025085 399.649750,551.509705 
	C398.058380,549.513062 396.282928,548.276123 393.391571,550.262573 
	C394.165588,554.681091 396.492371,558.498169 398.671265,562.367981 
	C405.903137,575.212097 405.871063,574.866699 420.558380,573.267578 
	C427.700684,572.489807 434.959808,569.929932 442.246033,572.856079 
	C447.805573,575.088867 453.403748,577.225525 459.711578,579.668945 
M717.462036,532.407593 
	C719.446838,532.588562 721.437866,532.973877 723.415344,532.913940 
	C730.643921,532.694702 734.203064,527.338867 731.405334,520.708923 
	C729.531555,516.268616 727.503113,511.854156 725.097839,507.685547 
	C719.506958,497.995880 712.865417,489.141876 702.961670,481.920959 
	C702.257690,493.450409 701.322266,504.185547 703.169739,514.898376 
	C704.564819,522.988281 708.898193,528.973267 717.462036,532.407593 
M346.633820,455.694214 
	C344.620880,449.531250 342.571777,443.379730 340.613678,437.199371 
	C339.889130,434.912506 338.646027,433.825806 336.176941,434.554138 
	C333.883057,435.230804 332.827850,436.662750 333.415833,439.036011 
	C333.814697,440.646088 334.353027,442.224335 334.881775,443.799042 
	C341.625427,463.884338 352.435181,481.784332 364.421997,499.079803 
	C367.897156,504.094055 372.108185,506.812531 378.447693,506.952850 
	C383.546021,507.065735 388.654755,508.281372 393.684021,509.357513 
	C396.744080,510.012268 399.148773,509.536133 401.474609,507.442474 
	C405.059906,504.215057 408.787170,501.147675 413.054993,498.809296 
	C422.701630,493.523682 423.024292,484.270538 413.569580,478.207581 
	C412.440063,481.662384 412.278412,485.417572 409.549500,488.224548 
	C405.723694,492.159821 402.075928,496.273102 398.454376,500.400085 
	C396.528473,502.594788 394.251068,503.538177 391.379852,503.211090 
	C387.253540,502.741028 383.132080,502.050323 378.993286,501.912811 
	C373.774139,501.739380 370.520630,498.891693 367.568451,495.015991 
	C358.604218,483.247406 352.229980,470.121979 346.633820,455.694214 
M508.961426,403.631226 
	C504.492859,405.836395 499.822052,407.714264 495.602203,410.321960 
	C488.941711,414.437836 487.050262,422.307343 490.636627,429.566772 
	C494.014954,428.072296 495.717499,424.887024 497.880859,422.270111 
	C500.216675,419.444519 495.897278,417.237030 496.914459,413.842590 
	C506.865021,413.615112 516.897644,413.680328 527.430359,414.290710 
	C524.311218,421.542023 526.558594,426.539246 533.194031,429.722961 
	C535.804932,420.859283 535.618225,416.286682 530.884033,412.158722 
	C524.908020,406.948029 518.282837,402.513763 508.961426,403.631226 
M428.185242,525.777954 
	C426.253540,526.972168 423.760040,527.321899 422.463654,529.475342 
	C424.970276,536.816772 433.736053,540.791443 432.904694,549.770874 
	C438.594299,552.627441 441.501678,549.062134 443.982086,544.907227 
	C449.062927,545.968506 450.676147,552.559021 456.603638,552.318970 
	C456.401306,549.852905 454.993103,548.580078 453.907715,547.182739 
	C448.800232,540.606934 443.347015,534.274231 438.619812,527.437988 
	C435.666534,523.167114 432.846985,522.496643 428.185242,525.777954 
M330.082092,547.229065 
	C334.470245,549.863281 339.954865,547.880371 345.088531,541.740540 
	C343.192810,539.578003 341.167786,537.022034 338.048553,539.220764 
	C334.496552,541.724670 331.572998,540.702087 328.429565,538.741638 
	C324.754730,536.449707 320.809875,534.538574 317.343353,531.973999 
	C302.984039,521.350708 286.725983,512.447815 281.224518,493.483765 
	C281.167847,493.288483 280.676514,493.219299 280.373260,493.084625 
	C276.104004,494.834808 275.309784,497.471405 278.220520,501.162659 
	C279.662811,502.991760 280.844727,505.042786 282.396545,506.766418 
	C296.310608,522.220886 312.842529,534.609619 330.082092,547.229065 
M372.518097,424.074951 
	C368.554108,426.168182 364.687805,428.482086 360.598724,430.292786 
	C356.473572,432.119507 357.275726,434.784119 358.340576,438.057556 
	C359.576721,441.857361 361.951263,441.144958 364.615723,440.219849 
	C368.160431,438.989044 371.219238,438.584137 373.356445,442.893738 
	C374.857605,445.920868 377.209198,444.750000 378.930573,442.692688 
	C381.376160,439.769806 383.380707,436.471893 386.417267,434.057953 
	C387.631256,433.092926 387.551147,431.895355 387.257172,430.466217 
	C385.022614,419.603973 383.618988,418.863403 373.623505,423.497162 
	C373.472900,423.567017 373.326447,423.645874 372.518097,424.074951 
M743.109497,588.416748 
	C741.573364,585.255920 739.481384,582.468201 737.163818,579.862671 
	C735.488647,577.979370 733.073242,577.281250 730.809753,577.844116 
	C728.332642,578.460083 728.422424,581.026855 727.989990,583.161194 
	C726.434326,590.838928 731.304443,595.151978 736.282349,599.440063 
	C738.050659,600.963379 739.904053,602.799194 742.434753,601.372253 
	C745.199097,599.813538 745.969238,596.981873 745.558716,594.074158 
	C745.313599,592.338318 744.211609,590.723389 743.109497,588.416748 
M548.277283,587.683960 
	C547.169922,589.015625 545.084839,590.080994 546.214600,592.205200 
	C547.088562,593.848511 549.034851,593.686157 550.680725,593.765869 
	C558.314392,594.135681 562.387756,589.590271 563.072327,579.555725 
	C556.795288,579.450623 552.836975,583.434937 548.277283,587.683960 
M652.059753,614.363831 
	C644.474548,613.745789 641.486694,616.620544 639.099731,626.867798 
	C641.882385,629.226440 644.099426,628.703613 646.007874,625.655762 
	C648.207031,622.143616 650.922363,618.937561 652.059753,614.363831 
M392.999908,449.759277 
	C392.303925,450.808411 390.898621,451.467712 391.193542,453.316589 
	C393.351624,453.980804 395.514191,454.050781 398.072205,452.696625 
	C395.937286,452.166504 398.325958,446.566803 392.999908,449.759277 
z"/>
<path fill="currentColor" opacity="1.000000" stroke="none" 
	d="
M437.428406,693.690796 
	C437.996185,694.380859 438.465118,694.731934 438.584991,695.177063 
	C441.573120,706.272644 441.276917,717.526978 438.937500,728.571411 
	C437.898773,733.475342 432.535889,734.219971 427.580536,734.875305 
	C431.790497,743.272095 438.215576,749.709229 442.525726,757.489380 
	C440.341980,760.186218 437.640961,758.876831 435.339020,759.298584 
	C423.385895,761.488586 414.920837,757.431824 410.001953,745.949890 
	C408.389862,742.186768 405.597656,738.892395 403.128784,735.543152 
	C400.542084,732.034058 400.515259,729.236511 403.943726,726.061890 
	C407.964417,722.339111 411.479431,718.066895 415.172180,713.995178 
	C416.248474,712.808472 417.531494,711.692078 417.851074,709.198730 
	C411.467194,709.198730 405.369415,709.137634 399.273651,709.223389 
	C396.003418,709.269348 396.372925,711.828308 396.372711,713.963928 
	C396.371368,726.962158 396.191132,739.965820 396.527832,752.955872 
	C396.656830,757.932495 394.797424,759.525818 390.162018,759.226990 
	C386.676910,759.002258 383.165955,759.164124 379.666626,759.178711 
	C376.410156,759.192322 374.735229,757.708435 374.739624,754.338013 
	C374.765472,734.507385 374.782837,714.676636 374.728638,694.846130 
	C374.718079,690.983459 376.470367,689.594604 380.241455,689.617065 
	C396.238678,689.712280 412.236969,689.657654 428.234772,689.617065 
	C431.782959,689.608093 434.717529,690.888184 437.428406,693.690796 
z"/>
<path fill="currentColor" opacity="1.000000" stroke="none" 
	d="
M638.692871,733.745605 
	C638.690857,726.782227 638.578125,720.281433 638.731445,713.786987 
	C638.809631,710.475342 637.779236,708.796814 634.211365,708.914490 
	C628.717651,709.095764 623.215759,709.112976 617.718506,709.064392 
	C615.360413,709.043518 613.675415,710.143066 611.911255,711.500610 
	C606.009705,716.041870 600.012451,720.458679 594.438660,724.633423 
	C592.445801,723.928101 592.408020,722.888794 592.417358,721.893982 
	C592.483154,714.897644 592.520935,707.900269 592.677185,700.905701 
	C592.819519,694.530579 597.268188,689.798401 603.646973,689.729858 
	C618.474304,689.570618 633.305664,689.567261 648.133118,689.718201 
	C654.995300,689.788086 660.031799,694.491760 660.138855,701.279907 
	C660.378052,716.437866 660.363892,731.604858 660.125610,746.763123 
	C660.015015,753.799255 655.400635,758.647339 648.017334,758.875427 
	C633.368774,759.328064 618.695251,759.340027 604.040710,759.066956 
	C597.177063,758.939087 593.360291,753.720581 592.548462,746.953430 
	C591.490845,738.137146 594.171692,731.800354 602.207092,727.762268 
	C605.848633,725.932251 608.429321,722.295715 613.003601,721.117371 
	C615.028870,727.279724 613.180237,733.563904 614.659241,740.443665 
	C621.821838,740.443665 629.084900,740.758667 636.301086,740.313904 
	C640.043274,740.083252 638.198975,736.403564 638.692871,733.745605 
z"/>
<path fill="currentColor" opacity="1.000000" stroke="none" 
	d="
M730.305725,752.719055 
	C727.547974,757.411438 723.394226,759.048828 718.721680,759.090759 
	C703.402344,759.228333 688.080994,759.140076 672.760376,759.130859 
	C671.246704,759.129944 669.758301,758.997742 668.029358,757.208679 
	C670.839844,751.903931 674.235474,746.621643 678.339172,742.009460 
	C681.045837,738.967407 685.532715,740.125427 689.288147,740.022217 
	C694.779602,739.871338 700.279053,740.032227 705.773071,739.940857 
	C707.798401,739.907166 710.527832,740.577332 710.638611,737.229797 
	C710.752930,733.774902 708.015442,734.425964 705.975403,734.412292 
	C697.316162,734.354065 688.656128,734.420776 679.997009,734.360596 
	C673.085327,734.312561 669.379578,730.893799 669.190430,724.132935 
	C668.995239,717.156128 668.962341,710.167786 669.111938,703.189941 
	C669.319763,693.493896 673.332886,689.671265 682.955872,689.660400 
	C697.610474,689.643799 712.265198,689.620728 726.919617,689.666748 
	C728.656433,689.672180 730.590332,689.048706 732.578003,691.037354 
	C728.972351,696.994995 725.082458,702.847778 719.852844,707.657410 
	C718.956604,708.481628 717.009583,708.294739 715.540527,708.342407 
	C708.554382,708.569275 701.564819,708.689636 694.578308,708.907104 
	C692.567932,708.969727 690.394958,708.975403 690.391418,711.929871 
	C690.387817,714.997864 692.631287,714.751038 694.613464,714.760742 
	C704.938110,714.811523 715.265686,714.971436 725.586304,714.776733 
	C729.877991,714.695862 731.532776,716.106018 731.410156,720.520752 
	C731.165222,729.339600 731.372131,738.170715 731.369324,746.996765 
	C731.368774,748.820618 731.475952,750.679260 730.305725,752.719055 
z"/>
<path fill="currentColor" opacity="1.000000" stroke="none" 
	d="
M342.744843,689.865234 
	C349.906250,689.765320 356.647064,689.765320 363.166351,689.765320 
	C364.025238,692.710327 362.466309,694.014526 361.555450,695.510193 
	C356.529633,703.762634 351.546326,712.043396 346.356781,720.192444 
	C344.612915,722.930786 344.397430,725.032104 346.464020,727.799927 
	C352.742126,736.208618 358.742523,744.824829 364.836304,753.370728 
	C365.783417,754.698975 367.378540,756.035767 366.637695,757.763245 
	C365.740265,759.855774 363.491180,759.220093 361.733887,759.256836 
	C342.817719,759.653198 342.830994,759.633362 332.643219,743.547852 
	C329.996033,739.368286 327.235413,735.260620 323.335724,731.416687 
	C323.335724,738.480774 323.359497,745.544983 323.328552,752.608887 
	C323.301544,758.777771 322.912109,759.173828 316.865631,759.239624 
	C313.533142,759.275879 310.197388,759.131531 306.867096,759.219482 
	C303.121979,759.318298 301.418427,757.824280 301.534576,753.876831 
	C301.676392,749.057922 301.415131,744.221802 301.189148,739.399597 
	C301.068420,736.823853 302.068848,734.990967 303.978363,733.342285 
	C306.974396,730.755615 310.419189,728.626038 312.967621,724.952942 
	C310.371094,723.878845 307.870636,724.376404 305.482483,724.396851 
	C302.444397,724.422852 301.461426,723.160339 301.491608,720.162170 
	C301.577148,711.668274 301.418396,703.171265 301.297241,694.676208 
	C301.252625,691.544067 302.141479,689.540955 305.804413,689.661499 
	C309.965851,689.798523 314.141693,689.794067 318.300873,689.612366 
	C321.926056,689.453918 323.433899,690.901367 323.365082,694.571167 
	C323.224823,702.049133 323.323090,709.531494 323.323090,717.915283 
	C328.011017,712.755493 330.562592,707.201050 333.813751,702.118896 
	C336.478577,697.953247 338.123474,693.058044 342.744843,689.865234 
z"/>
<path fill="currentColor" opacity="1.000000" stroke="none" 
	d="
M465.498413,714.581970 
	C468.177094,707.529236 470.802429,700.870300 473.254486,694.148193 
	C474.443329,690.889099 476.410736,689.423340 479.993408,689.600098 
	C484.812469,689.837830 489.656769,689.760315 494.482574,689.594604 
	C497.543030,689.489502 499.436462,690.531921 500.623932,693.474121 
	C508.848846,713.852478 517.165955,734.193604 525.489807,754.531860 
	C526.404053,756.765625 526.423523,758.883545 523.606445,758.934204 
	C512.705383,759.130310 501.798798,759.013916 490.531982,759.013916 
	C491.047333,753.892761 494.257690,751.209595 496.515259,748.115906 
	C498.210815,745.792358 498.416840,743.853577 497.337158,741.278687 
	C494.137665,733.648682 491.134277,725.936462 487.475830,716.814087 
	C485.005524,723.191895 483.102478,728.092285 481.209381,732.996460 
	C479.590607,737.190002 477.976898,741.385559 476.371826,745.584351 
	C470.703064,760.413818 468.957703,761.370972 452.882202,759.195190 
	C448.121399,758.550781 449.344543,755.813782 450.414093,753.073792 
	C455.377991,740.356934 460.383301,727.656311 465.498413,714.581970 
z"/>
<path fill="currentColor" opacity="1.000000" stroke="none" 
	d="
M574.404053,784.454468 
	C574.616882,783.957275 574.664307,783.796387 574.734314,783.646057 
	C580.956421,770.286865 577.339661,773.034546 592.742920,772.636108 
	C595.715637,772.559265 597.076721,774.079773 597.077637,776.844666 
	C597.082031,789.821289 597.028870,802.797913 596.970886,815.774414 
	C596.957275,818.816711 595.470276,820.390259 592.315002,820.238953 
	C590.820923,820.167236 589.310669,820.108887 587.825439,820.242065 
	C583.715942,820.610413 582.025269,818.558289 582.026367,814.687561 
	C582.027222,811.533569 582.026550,808.379517 582.026550,803.992310 
	C578.889954,808.251953 577.928650,812.208069 576.489746,815.876221 
	C575.282166,818.954712 573.420532,820.243896 570.127258,820.303711 
	C566.711365,820.365845 564.975586,818.831848 563.899536,815.777771 
	C562.577576,812.026123 560.966370,808.376404 558.903809,803.249634 
	C558.678467,808.346436 558.348572,811.993713 558.404846,815.634949 
	C558.458374,819.092224 556.970947,820.536133 553.606201,820.282959 
	C552.779358,820.220703 551.943176,820.285400 551.111328,820.286377 
	C543.918213,820.294983 543.796631,820.168823 543.796448,813.127869 
	C543.796143,801.481567 543.892456,789.833679 543.720947,778.189819 
	C543.662109,774.191772 545.009216,772.686646 549.144409,772.457458 
	C560.723145,771.815613 560.690247,771.638916 565.144897,782.341858 
	C566.522827,785.652466 568.060303,788.896667 569.746643,792.667419 
	C572.252991,790.000549 573.042664,787.275391 574.404053,784.454468 
z"/>
<path fill="currentColor" opacity="1.000000" stroke="none" 
	d="
M542.781372,739.998657 
	C542.787415,731.169006 542.554016,722.829224 542.893982,714.512878 
	C543.077637,710.022156 541.163269,708.507874 537.127563,708.505554 
	C532.796509,708.503052 528.464050,708.501160 524.135193,708.386169 
	C522.377502,708.339478 520.460999,708.890320 518.374939,707.004517 
	C521.075134,701.346008 524.285217,695.830200 528.156921,690.691528 
	C528.921509,689.676819 530.210266,689.695435 531.387390,689.694702 
	C548.880310,689.684082 566.373291,689.671997 583.866211,689.687073 
	C584.827332,689.687866 585.898621,689.634827 586.888489,691.301880 
	C583.566284,696.976196 579.846069,702.758545 574.974182,707.725891 
	C573.769043,708.954651 571.918335,709.166992 570.256653,708.950134 
	C565.184998,708.288330 564.149170,710.783325 564.237000,715.342834 
	C564.480835,727.999756 564.150146,740.667603 564.386047,753.324829 
	C564.473389,758.009216 562.687134,759.607056 558.219177,759.284485 
	C554.571472,759.021118 550.892700,759.193176 547.227783,759.161560 
	C544.147705,759.135071 542.683716,757.611328 542.732788,754.492310 
	C542.806091,749.828491 542.770203,745.163025 542.781372,739.998657 
z"/>
<path fill="currentColor" opacity="1.000000" stroke="none" 
	d="
M466.867828,820.262451 
	C457.886353,820.262817 449.387726,820.351807 440.892059,820.230103 
	C434.482391,820.138245 431.802277,817.382080 431.750793,810.993652 
	C431.670227,800.997192 431.637695,790.999268 431.716461,781.003113 
	C431.756470,775.925537 434.277588,772.905701 439.167114,772.816650 
	C450.823669,772.604431 462.487244,772.772156 474.147858,772.820496 
	C474.580719,772.822327 475.012115,773.180054 475.431183,773.366150 
	C472.845917,782.406982 466.966949,786.982727 458.127197,786.958252 
	C445.080536,786.922119 447.491486,786.198486 447.274506,797.912048 
	C447.265228,798.411743 447.270599,798.911743 447.270996,799.411560 
	C447.276001,805.992188 452.150208,809.152832 458.174347,806.474548 
	C460.480042,805.449524 459.728516,803.724792 458.856903,802.323425 
	C457.031311,799.388306 454.983704,796.591248 452.551422,793.043457 
	C459.824188,791.315186 466.624298,791.429077 473.394135,792.516907 
	C475.298828,792.822876 475.212921,795.092468 475.214417,796.754822 
	C475.219238,802.086304 475.185547,807.418091 475.128418,812.749268 
	C475.051636,819.909790 474.793182,820.144287 466.867828,820.262451 
z"/>
<path fill="currentColor" opacity="1.000000" stroke="none" 
	d="
M502.196838,817.434692 
	C503.623749,805.827148 498.491394,796.742615 493.172485,787.609985 
	C490.610962,783.211853 487.911285,778.786438 486.292023,773.178650 
	C491.757782,771.844604 497.608337,770.047363 501.682495,773.604370 
	C505.327545,776.786743 506.926178,782.313110 509.911407,787.673828 
	C511.574219,784.404968 513.280823,781.827271 514.241882,778.996460 
	C516.161499,773.342041 519.814514,771.141724 525.642517,772.071960 
	C527.907166,772.433411 530.299438,772.056946 532.348755,773.258179 
	C533.354248,774.998047 532.185608,776.193115 531.511292,777.460449 
	C528.618652,782.897095 525.893433,788.435852 522.735962,793.715393 
	C518.811523,800.277405 515.905457,806.960083 516.982727,814.873535 
	C517.546326,819.013794 515.308838,820.754578 511.334351,820.186890 
	C508.256317,819.747192 504.510742,821.756897 502.196838,817.434692 
z"/>
<path fill="currentColor" opacity="1.000000" stroke="none" 
	d="
M463.149292,328.079010 
	C465.436829,326.761322 467.426544,325.642822 469.735443,324.344818 
	C465.696533,321.978729 461.910370,323.769562 458.273529,323.839478 
	C456.779602,314.195190 461.655670,309.218018 470.861786,310.509125 
	C478.401031,311.566467 485.473663,313.755585 491.750793,318.182678 
	C495.704803,320.971375 500.043579,322.322540 504.926300,321.889679 
	C506.359558,321.762634 507.920776,321.405396 509.789246,323.047852 
	C507.055695,328.573181 504.240723,334.263092 501.168732,340.472504 
	C496.915039,336.700226 492.577057,337.791443 488.152588,338.663544 
	C481.362976,340.001831 474.907715,338.667633 468.782593,335.578552 
	C465.999054,334.174713 463.240173,332.721863 460.491974,331.302521 
	C460.410370,329.518890 461.878784,329.096069 463.149292,328.079010 
z"/>
</svg>
